<svg id="Layer_1" data-name="Layer 1" xmlns="http://www.w3.org/2000/svg" viewBox="0 0 750.47701 273.82098"><defs><style>.cls-1{fill:#2557d6;}</style></defs><title>amex-card</title><path class="cls-1" d="M554.594,32.018,540.073,67.057h29.121ZM387.03,53.731c2.738-1.422,4.349-4.515,4.349-8.356,0-3.764-1.693-6.49-4.431-7.771-2.492-1.42-6.328-1.584-10.006-1.584H350.964V55.543h25.63C380.7,55.544,384.131,55.484,387.03,53.731ZM54.142,32.018,39.785,67.057h28.8ZM722.565,256.49H681.823V237.638h40.578c4.023,0,6.84-.525,8.537-2.177a7.70638,7.70638,0,0,0,2.494-5.733,7.19143,7.19143,0,0,0-2.578-5.813c-1.529-1.342-3.76-1.953-7.434-1.953-19.81-.67-44.523.609-44.523-27.211,0-12.75,8.131-26.172,30.27-26.172h42.025V151.087H712.147c-11.783,0-20.344,2.81-26.406,7.181v-7.181H627.989c-9.233,0-20.074,2.279-25.201,7.181v-7.181H499.655v7.181c-8.207-5.898-22.057-7.181-28.447-7.181H403.18v7.181c-6.492-6.262-20.935-7.181-29.734-7.181H297.312l-17.42,18.775-16.318-18.775H149.847V273.762H261.433l17.95-19.076,16.91,19.076,68.78.059V244.962h6.764c9.125.145,19.889-.223,29.387-4.311v33.107h56.731V241.782h2.736c3.492,0,3.838.146,3.838,3.621v28.348H636.873c10.941,0,22.38-2.786,28.712-7.853v7.853h54.668c11.375,0,22.485-1.588,30.938-5.653v-22.853C746.069,252.707,736.079,256.49,722.565,256.49ZM372.734,227.523H346.409v29.488H305.403L279.425,227.91l-26.997,29.102H168.859V169.098h84.855l25.955,28.818,26.835-28.818h67.414c16.743,0,35.555,4.617,35.555,28.963C409.473,222.482,391.176,227.523,372.734,227.523Zm126.589-3.986c2.98,4.291,3.41,8.297,3.496,16.047v17.428H481.637V246.014c0-5.289.512-13.121-3.41-17.209-3.08-3.149-7.781-3.901-15.48-3.901H440.202v32.108H419.004V169.098H467.71c10.685,0,18.462.472,25.386,4.148,6.658,4.006,10.848,9.494,10.848,19.523-.002,14.031-9.399,21.19-14.953,23.389A22.93361,22.93361,0,0,1,499.323,223.537Zm87.15-36.258H537.069v15.982h48.197v17.938H537.069v17.492l49.404.078v18.242H516.059V169.097h70.414ZM640.686,257.01h-41.09V238.158h40.926c4.002,0,6.84-.527,8.619-2.178a7.78587,7.78587,0,0,0,2.492-5.73,7.54519,7.54519,0,0,0-2.574-5.818c-1.615-1.34-3.842-1.948-7.514-1.948-19.73-.673-44.439.606-44.439-27.212,0-12.752,8.047-26.174,30.164-26.174h42.297v18.709H630.864c-3.836,0-6.33.146-8.451,1.592-2.313,1.423-3.17,3.535-3.17,6.322a6.73771,6.73771,0,0,0,4.615,6.549,24.38111,24.38111,0,0,0,8.211.996l11.359.308c11.449.274,19.313,2.25,24.092,7.069,4.105,4.232,6.311,9.578,6.311,18.625C673.829,248.181,661.963,257.01,640.686,257.01Zm110.506-11.762ZM477.061,188.697c-2.549-1.508-6.311-1.588-10.066-1.588H441.016v19.744h25.631c4.104,0,7.594-.144,10.414-1.812a9.47266,9.47266,0,0,0,4.371-8.438C481.432,192.844,479.795,190.121,477.061,188.697Zm235.723-1.59c-3.838,0-6.389.145-8.537,1.588-2.227,1.426-3.081,3.537-3.081,6.326a6.63944,6.63944,0,0,0,4.612,6.549,24.15023,24.15023,0,0,0,8.129.996l11.437.303c11.537.285,19.242,2.262,23.938,7.08a11.17875,11.17875,0,0,1,1.957,2.174V187.109H712.786l-.002-.002Zm-339.314,0H345.961v22.391h27.265c8.105,0,13.146-4.006,13.149-11.611C386.372,190.199,381.086,187.107,373.47,187.107Zm-183.598,0v15.984h46.315v17.938H189.872v17.49h51.87l24.1-25.791-23.076-25.621Zm135.449,61.479V178.104L292.93,212.777ZM191.649,107.435v15.148H367.912l-.082-32.046h3.411c2.39.083,3.084.302,3.084,4.229v27.818h91.164v-7.461c7.353,3.924,18.789,7.461,33.838,7.461h38.353l8.209-19.522h18.197l8.026,19.522h73.906V104.04l11.189,18.543h59.227V0h-58.611V14.477L649.61609,0h-60.143V14.477L581.9361,0h-81.24c-13.6,0-25.551,1.89-35.207,7.158V0h-56.063V7.158c-6.146-5.43-14.519-7.158-23.826-7.158H180.784L167.042,31.662,152.928,0H88.417V14.477L81.329,0H26.312L.763,58.284v46.621L38.542,17.011H69.888l35.88,83.217V17.011h34.435l27.61,59.625,25.365-59.625h35.126v87.894H206.679L206.6,36.068l-30.593,68.837H157.483L126.812,36.007v68.898H83.899L75.793,85.3H31.865l-8.19,19.605H.762v17.682H36.811l8.128-19.523H63.137l8.106,19.523h70.925V107.66l6.33,14.989h36.819ZM469.401,27.259c6.818-7.015,17.5-10.25,32.039-10.25h20.424V35.842H501.868c-7.696,0-12.047,1.14-16.233,5.208-3.599,3.7-6.066,10.696-6.066,19.908,0,9.417,1.881,16.206,5.801,20.641,3.248,3.478,9.152,4.533,14.705,4.533h9.478l29.733-69.12h31.611l35.719,83.134V17.013h32.123l37.086,61.213V17.013h21.611v87.891H667.538L627.549,38.936v65.968h-42.968l-8.209-19.605h-43.827l-7.966,19.605h-24.688c-10.254,0-23.238-2.258-30.59-9.722-7.416-7.462-11.271-17.571-11.271-33.553C458.026,48.592,460.329,36.676,469.401,27.259ZM426.006,17.01h21.526v87.894H426.006Zm-97.055,0h48.525c10.779,0,18.727.285,25.547,4.21,6.674,3.926,10.676,9.658,10.676,19.46,0,14.015-9.393,21.254-14.864,23.429a24.50452,24.50452,0,0,1,10.438,7.401c2.979,4.372,3.492,8.277,3.492,16.126v17.267H391.486l-.08-11.084c0-5.29.508-12.896-3.33-17.122-3.082-3.09-7.782-3.763-15.379-3.763H350.05v31.97H328.952l-.001-87.894Zm-85.049,0h70.479V35.313H265.002V51.156h48.193V69.173H265.002V86.726h49.379v18.177H243.902V17.01Z" transform="translate(-0.762)"/></svg>