<svg id="Layer_1" data-name="Layer 1" xmlns="http://www.w3.org/2000/svg" width="135" height="40" viewBox="0 0 135 40">
  <title>app_store</title>
  <path d="M130.2,40H4.7A4.7,4.7,0,0,1,0,35.3H0V4.7A4.7,4.7,0,0,1,4.7,0H130.2A4.8,4.8,0,0,1,135,4.7V35.3A4.8,4.8,0,0,1,130.2,40Z" transform="translate(0 0)"/>
  <path d="M134,35.3a3.8,3.8,0,0,1-3.8,3.8H4.7A3.8,3.8,0,0,1,.9,35.3V4.7A3.8,3.8,0,0,1,4.7.9H130.2A3.8,3.8,0,0,1,134,4.7h0Z" transform="translate(0 0)"/>
  <path d="M30.1,19.8a5.8,5.8,0,0,1,2.8-4.9,5.9,5.9,0,0,0-4.7-2.5c-2-.2-3.9,1.2-4.9,1.2s-2.6-1.2-4.2-1.1a6.2,6.2,0,0,0-5.2,3.2c-2.3,3.9-.6,9.7,1.6,12.9,1.1,1.5,2.4,3.3,4,3.2s2.2-1,4.2-1,2.5,1,4.2,1,2.8-1.6,3.9-3.1a13,13,0,0,0,1.8-3.6A5.6,5.6,0,0,1,30.2,20Z" transform="translate(0 0)" style="fill: #d8dbdb"/>
  <path d="M26.9,10.3a5.7,5.7,0,0,0,1.3-4.1,5.8,5.8,0,0,0-3.8,1.9A5.5,5.5,0,0,0,23.1,12a4.8,4.8,0,0,0,3.8-1.8Z" transform="translate(0 0)" style="fill: #d8dbdb"/>
  <g>
    <path d="M48.6,23.6l3.8-10h1.4l4.1,10H56.4l-1.2-3H51.1l-1.1,3Zm2.9-4.1h3.4l-1-2.8-.7-2.1a12.8,12.8,0,0,1-.5,1.9Z" transform="translate(0 0)" style="fill: #d8dbdb"/>
    <path d="M58.8,26.4v-10h1.1v.9a2.8,2.8,0,0,1,.9-.8,2.5,2.5,0,0,1,1.2-.3A3.3,3.3,0,0,1,64.8,18a5,5,0,0,1,0,3.9A3.2,3.2,0,0,1,62,23.8l-1.1-.3-.8-.7v3.5ZM59.9,20a3.2,3.2,0,0,0,.6,2.1,1.7,1.7,0,0,0,1.4.7,1.8,1.8,0,0,0,1.4-.7,3.3,3.3,0,0,0,.6-2.1,3.2,3.2,0,0,0-.6-2.1,1.7,1.7,0,0,0-1.4-.7,1.8,1.8,0,0,0-1.4.7A3.3,3.3,0,0,0,60,20Z" transform="translate(0 0)" style="fill: #d8dbdb"/>
    <path d="M66.6,26.4v-10h1.2v.9a2.8,2.8,0,0,1,.9-.8,2.5,2.5,0,0,1,1.2-.3A3,3,0,0,1,72.6,18a5,5,0,0,1,0,3.9,3.2,3.2,0,0,1-2.8,1.9l-1.1-.3-.8-.7v3.5ZM67.7,20a3.2,3.2,0,0,0,.6,2.1,1.7,1.7,0,0,0,1.4.7,1.8,1.8,0,0,0,1.4-.7,3.3,3.3,0,0,0,.6-2.1,3.2,3.2,0,0,0-.6-2.1,1.7,1.7,0,0,0-1.4-.7,1.8,1.8,0,0,0-1.4.7A3.3,3.3,0,0,0,67.7,20Z" transform="translate(0 0)" style="fill: #d8dbdb"/>
    <path d="M78,20.4h1.3a2.8,2.8,0,0,0,.4,1.2,2.3,2.3,0,0,0,1,.8,3.8,3.8,0,0,0,1.5.3l1.3-.2a1.9,1.9,0,0,0,.9-.6,1.4,1.4,0,0,0,.3-.9,1.3,1.3,0,0,0-.3-.8,2,2,0,0,0-.9-.6L81.8,19l-2-.6a2.7,2.7,0,0,1-1.1-.9,2.3,2.3,0,0,1-.4-1.2,2.6,2.6,0,0,1,.4-1.4,2.7,2.7,0,0,1,1.3-1,4.8,4.8,0,0,1,1.8-.3,5,5,0,0,1,2,.4,2.8,2.8,0,0,1,1.3,1.1,3,3,0,0,1,.5,1.6H84.4a2,2,0,0,0-.7-1.4,2.7,2.7,0,0,0-1.7-.5,2.8,2.8,0,0,0-1.8.4,1.3,1.3,0,0,0-.5,1.1,1.1,1.1,0,0,0,.4.9,5.3,5.3,0,0,0,2,.7l2.2.6a3,3,0,0,1,1.3,1,2.5,2.5,0,0,1,.4,1.4,2.7,2.7,0,0,1-.5,1.5,3,3,0,0,1-1.3,1.1,4.6,4.6,0,0,1-1.9.4,5.8,5.8,0,0,1-2.3-.4,3.2,3.2,0,0,1-1.4-1.2A3.4,3.4,0,0,1,78,20.4Z" transform="translate(0 0)" style="fill: #d8dbdb"/>
    <path d="M90.3,22.5l.2,1.1h-.9l-1-.2a1.2,1.2,0,0,1-.5-.6,4.4,4.4,0,0,1-.2-1.5v-4H87v-1h.9V14.6l1.2-.7v2.5h1.2v1H89.1v4.2a2.1,2.1,0,0,0,.1.7l.2.2h.9Z" transform="translate(0 0)" style="fill: #d8dbdb"/>
    <path d="M91.1,20a3.7,3.7,0,0,1,1.1-3,3.4,3.4,0,0,1,2.3-.8,3.3,3.3,0,0,1,2.4,1,3.7,3.7,0,0,1,1,2.7,4.8,4.8,0,0,1-.4,2.2,3,3,0,0,1-1.2,1.2,3.6,3.6,0,0,1-1.8.4,3.3,3.3,0,0,1-2.5-1A3.9,3.9,0,0,1,91.1,20Zm1.3,0a3.1,3.1,0,0,0,.6,2.1,2,2,0,0,0,2.8.3l.3-.3a3.2,3.2,0,0,0,.6-2.1,3,3,0,0,0-.6-2,2,2,0,0,0-2.8-.3L93,18a3.1,3.1,0,0,0-.7,2Z" transform="translate(0 0)" style="fill: #d8dbdb"/>
    <path d="M99.3,23.6V16.4h1.1v1.1a3,3,0,0,1,.8-1l.8-.2a2.4,2.4,0,0,1,1.3.4l-.4,1.1-.9-.3-.7.2a1.3,1.3,0,0,0-.5.7,4.8,4.8,0,0,0-.2,1.4v3.8Z" transform="translate(0 0)" style="fill: #d8dbdb"/>
    <path d="M109,21.3l1.3.2a3.1,3.1,0,0,1-1.1,1.7,3.8,3.8,0,0,1-4.6-.4,3.8,3.8,0,0,1-.9-2.8,4,4,0,0,1,.9-2.8,3.2,3.2,0,0,1,2.4-1,3.1,3.1,0,0,1,2.4,1,3.9,3.9,0,0,1,.9,2.8v.3h-5.5a2.8,2.8,0,0,0,.7,1.8,2,2,0,0,0,1.5.6,1.9,1.9,0,0,0,1.2-.4A2.4,2.4,0,0,0,109,21.3Zm-4-2h4.1a2.5,2.5,0,0,0-.5-1.4,1.9,1.9,0,0,0-2.9-.1,2.2,2.2,0,0,0-.8,1.5Z" transform="translate(0 0)" style="fill: #d8dbdb"/>
  </g>
</svg>
