<svg id="Layer_1" data-name="Layer 1" xmlns="http://www.w3.org/2000/svg" width="100" height="100" viewBox="0 0 100 100">
  <defs>
    <style>
      .cls-1 {
        fill: #f8f7f9;
      }

      .cls-2 {
        fill: #ea4747;
      }
    </style>
  </defs>
  <title>calender</title>
  <rect class="cls-1" width="100" height="100"/>
  <g>
    <path class="cls-2" d="M66.2,29.7a1,1,0,0,1-2,0V19a1,1,0,0,1,2,0V29.7Z" transform="translate(0.3 -0.5)"/>
    <path class="cls-2" d="M36.3,29.7a1,1,0,0,1-2,0V19a1,1,0,1,1,2,0Z" transform="translate(0.3 -0.5)"/>
    <path class="cls-2" d="M27.1,43.4a1,1,0,0,1,0-2H73.4a1,1,0,1,1,0,2Z" transform="translate(0.3 -0.5)"/>
    <path class="cls-2" d="M43.5,72a1,1,0,1,1-2,0V53.8l-3.4,3.4a1,1,0,1,1-1.4-1.4l5.1-5.1a1,1,0,0,1,1.7.7V72Z" transform="translate(0.3 -0.5)"/>
    <path class="cls-2" d="M50.2,73a1,1,0,0,1,0-2h5.1a4.1,4.1,0,0,0,2.9-1.2h0a4.2,4.2,0,0,0,0-5.9h0a4.1,4.1,0,0,0-2.9-1.2H50.2a1,1,0,0,1-1-1h0V51.4a1,1,0,0,1,1-1H60.5a1,1,0,1,1,0,2H51.2v8.3h4.2a6.1,6.1,0,0,1,4.3,1.8h0a6.1,6.1,0,0,1,0,8.7h0A6.1,6.1,0,0,1,55.4,73H50.2Z" transform="translate(0.3 -0.5)"/>
    <path class="cls-2" d="M18.4,39.8a1,1,0,0,1,2,0v36A4.2,4.2,0,0,0,24.5,80H76a4.2,4.2,0,0,0,4.2-4.2v-36a1,1,0,0,1,2,0v36A6.2,6.2,0,0,1,76,82H24.5a6.2,6.2,0,0,1-6.1-6.1Z" transform="translate(0.3 -0.5)"/>
    <path class="cls-2" d="M35.3,23a1,1,0,0,1,0,2H24.5a4.1,4.1,0,0,0-2.9,1.2h-.1a4.1,4.1,0,0,0-1.2,2.9v4.6H80.1V29.1a4.1,4.1,0,0,0-1.2-2.9h0A4.1,4.1,0,0,0,76,25H69.2a1,1,0,1,1,0-2H76a6.1,6.1,0,0,1,4.3,1.7h.1a6.1,6.1,0,0,1,1.8,4.3v5.5h0a1,1,0,0,1-1,1H19.4a1,1,0,0,1-1-1V29.1a6.1,6.1,0,0,1,1.7-4.3h.1A6.1,6.1,0,0,1,24.5,23H35.3Zm29.9,0H39.3a1,1,0,0,0,0,2H65.2a1,1,0,1,0,0-2Z" transform="translate(0.3 -0.5)"/>
  </g>
</svg>
