<svg id="Layer_1" data-name="Layer 1" xmlns="http://www.w3.org/2000/svg" width="100" height="100" viewBox="0 0 100 100">
  <defs>
    <style>
      .cls-1 {
        fill: #fff;
      }

      .cls-2 {
        fill: #ea4747;
      }
    </style>
  </defs>
  <title>calendar</title>
  <rect class="cls-1" width="100" height="100"/>
  <g>
    <path class="cls-2" d="M66.5,29.2a1,1,0,0,1-2,0V18.5a1,1,0,0,1,2,0Z"/>
    <path class="cls-2" d="M36.6,29.2a1,1,0,0,1-2,0V18.5a1,1,0,0,1,2,0Z"/>
    <path class="cls-2" d="M27.4,42.9a1,1,0,0,1,0-2H73.7a1,1,0,0,1,0,2Z"/>
    <path class="cls-2" d="M43.8,71.5a1,1,0,0,1-2,0V53.3l-3.4,3.4a1,1,0,0,1-1.6-1.2l.2-.2,5.1-5.1a1,1,0,0,1,1.7.7Z"/>
    <path class="cls-2" d="M50.5,72.5a1,1,0,0,1,0-2h5.1a4.1,4.1,0,0,0,2.9-1.2h0a4.2,4.2,0,0,0,0-5.9h0a4.1,4.1,0,0,0-2.9-1.2H50.5a1,1,0,0,1-1-1h0V50.9a1,1,0,0,1,1-1H60.8a1,1,0,0,1,0,2H51.5v8.3h4.2A6.1,6.1,0,0,1,60,62h0a6.1,6.1,0,0,1,.1,8.6H60a6.1,6.1,0,0,1-4.3,1.8Z"/>
    <path class="cls-2" d="M18.7,39.3a1,1,0,0,1,2,0v36a4.2,4.2,0,0,0,4.1,4.2H76.3a4.2,4.2,0,0,0,4.2-4.2v-36a1,1,0,0,1,2,0v36a6.2,6.2,0,0,1-6.2,6.2H24.8a6.2,6.2,0,0,1-6.1-6.1Z"/>
    <path class="cls-2" d="M35.6,22.5a1,1,0,0,1,0,2H24.8a4.1,4.1,0,0,0-2.9,1.2h-.1a4.1,4.1,0,0,0-1.2,2.9v4.6H80.4V28.6a4.1,4.1,0,0,0-1.2-2.9h0a4.1,4.1,0,0,0-2.9-1.2H69.5a1,1,0,0,1,0-2h6.8a6.1,6.1,0,0,1,4.3,1.7h.1a6.1,6.1,0,0,1,1.8,4.3V34h0a1,1,0,0,1-1,1H19.7a1,1,0,0,1-1-1V28.6a6.1,6.1,0,0,1,1.7-4.3h.1a6.1,6.1,0,0,1,4.3-1.8Zm29.9,0H39.6a1,1,0,0,0,0,2H65.5a1,1,0,0,0,0-2Z"/>
  </g>
</svg>
