<?xml version="1.0" encoding="utf-8"?>
<!-- Generator: Adobe Illustrator 21.1.0, SVG Export Plug-In . SVG Version: 6.00 Build 0)  -->
<svg version="1.1" id="Layer_1" xmlns="http://www.w3.org/2000/svg" xmlns:xlink="http://www.w3.org/1999/xlink" x="0px" y="0px"
	 viewBox="0 0 92.6 88" style="enable-background:new 0 0 92.6 88;" xml:space="preserve">
<style type="text/css">
	.st0{fill:#C92973;}
	.st1{fill:#FFFFFF;}
</style>
<title>cities</title>
<rect x="28.8" y="18.7" class="st0" width="31.8" height="63"/>
<g>
	<rect x="33.8" y="23.7" class="st1" width="3.1" height="3.1"/>
	<rect x="40" y="23.7" class="st1" width="3.1" height="3.1"/>
	<rect x="46.3" y="23.7" class="st1" width="3.1" height="3.1"/>
	<rect x="52.5" y="23.7" class="st1" width="3.1" height="3.1"/>
	<rect x="33.8" y="30" class="st1" width="3.1" height="3.1"/>
	<rect x="40" y="30" class="st1" width="3.1" height="3.1"/>
	<rect x="46.3" y="30" class="st1" width="3.1" height="3.1"/>
	<rect x="52.5" y="30" class="st1" width="3.1" height="3.1"/>
	<rect x="33.8" y="36.2" class="st1" width="3.1" height="3.1"/>
	<rect x="40" y="36.2" class="st1" width="3.1" height="3.1"/>
	<rect x="46.3" y="36.2" class="st1" width="3.1" height="3.1"/>
	<rect x="52.5" y="36.2" class="st1" width="3.1" height="3.1"/>
	<rect x="33.8" y="42.4" class="st1" width="3.1" height="3.1"/>
	<rect x="40" y="42.4" class="st1" width="3.1" height="3.1"/>
	<rect x="46.3" y="42.4" class="st1" width="3.1" height="3.1"/>
	<rect x="52.5" y="42.4" class="st1" width="3.1" height="3.1"/>
	<rect x="33.8" y="48.7" class="st1" width="3.1" height="3.1"/>
	<rect x="40" y="48.7" class="st1" width="3.1" height="3.1"/>
	<rect x="46.3" y="48.7" class="st1" width="3.1" height="3.1"/>
	<rect x="52.5" y="48.7" class="st1" width="3.1" height="3.1"/>
	<rect x="33.8" y="54.9" class="st1" width="3.1" height="3.1"/>
	<rect x="40" y="54.9" class="st1" width="3.1" height="3.1"/>
	<rect x="46.3" y="54.9" class="st1" width="3.1" height="3.1"/>
	<rect x="52.5" y="54.9" class="st1" width="3.1" height="3.1"/>
	<rect x="33.8" y="61.2" class="st1" width="3.1" height="3.1"/>
	<rect x="40" y="61.2" class="st1" width="3.1" height="3.1"/>
	<rect x="46.3" y="61.2" class="st1" width="3.1" height="3.1"/>
	<rect x="52.5" y="61.2" class="st1" width="3.1" height="3.1"/>
	<rect x="33.8" y="67.4" class="st1" width="3.1" height="3.1"/>
	<rect x="40" y="67.4" class="st1" width="3.1" height="3.1"/>
	<rect x="46.3" y="67.4" class="st1" width="3.1" height="3.1"/>
	<rect x="52.5" y="67.4" class="st1" width="3.1" height="3.1"/>
	<rect x="33.8" y="73.6" class="st1" width="3.1" height="3.1"/>
	<rect x="40" y="73.6" class="st1" width="3.1" height="3.1"/>
	<rect x="46.3" y="73.6" class="st1" width="3.1" height="3.1"/>
	<rect x="52.5" y="73.6" class="st1" width="3.1" height="3.1"/>
</g>
<g>
	<path d="M62.2,83.3h-35V17.2h35V83.3z M30.3,80.2H59V20.3H30.3V80.2z"/>
	<path d="M57.5,20.3H31.9v-9.4h25.6V20.3z M35,17.2h19.4V14H35V17.2z"/>
	<path d="M52.8,14H36.6V4.7h16.2V14z M39.7,10.9h10V7.8h-10V10.9z"/>
	<rect x="43.1" width="3.1" height="6.2"/>
	<rect x="65.6" y="31.5" width="3.1" height="43.7"/>
	<rect x="71.8" y="31.5" width="3.1" height="43.7"/>
	<rect x="78" y="31.5" width="3.1" height="43.7"/>
	<path d="M87.6,83.3H59V23.4h28.6V83.3z M62.2,80.2h22.3V26.5H62.2V80.2z"/>
	<path d="M81.1,26.5H65.6v-9.3h15.5V26.5z M68.7,23.4h9.2v-3.1h-9.2V23.4z"/>
	<rect x="14.4" y="48.7" width="3.1" height="3.1"/>
	<rect x="20.7" y="48.7" width="3.1" height="3.1"/>
	<rect x="14.4" y="54.9" width="3.1" height="3.1"/>
	<rect x="20.7" y="54.9" width="3.1" height="3.1"/>
	<rect x="14.4" y="61.2" width="3.1" height="3.1"/>
	<rect x="20.7" y="61.2" width="3.1" height="3.1"/>
	<rect x="14.4" y="67.4" width="3.1" height="3.1"/>
	<rect x="20.7" y="67.4" width="3.1" height="3.1"/>
	<rect x="14.4" y="73.6" width="3.1" height="3.1"/>
	<rect x="20.7" y="73.6" width="3.1" height="3.1"/>
	<path d="M30.3,83.3H7.9V42.1h22.4V83.3z M11,80.2h16.2v-35H11V80.2z"/>
	<polygon points="92.6,88 89.5,88 89.5,83.3 6,83.3 6,88 2.9,88 2.9,80.2 92.6,80.2 	"/>
	<rect y="23.7" width="8.2" height="3.1"/>
	<rect x="59" y="1.6" width="8.2" height="3.1"/>
	<rect x="5.9" y="10.9" width="11.6" height="3.1"/>
	<rect x="20.8" y="10.9" width="4.6" height="3.1"/>
</g>
</svg>
