<svg id="Layer_1" data-name="Layer 1" xmlns="http://www.w3.org/2000/svg" width="100" height="100" viewBox="0 0 100 100">
  <defs>
    <style>
      .cls-1 {
        fill: #fff;
      }

      .cls-2 {
        fill: #ea4747;
      }
    </style>
  </defs>
  <title>fresh</title>
  <rect class="cls-1" width="100" height="100"/>
  <path class="cls-2" d="M73.4,24.7h-4a27.4,27.4,0,0,0,.6-4.8V18.3l-1.2.2a33.6,33.6,0,0,0-6.2,1.7,33.6,33.6,0,0,0-3.5-5.3l-.8-1-.8,1a27.4,27.4,0,0,0-2.7,4l-2.1-1.7-1.1-.8-.5,1.2a28.1,28.1,0,0,0-1,3,28.2,28.2,0,0,0-1-3l-.5-1.2-1.1.8-2.1,1.7a27.4,27.4,0,0,0-2.7-4l-.8-1-.8,1a33.6,33.6,0,0,0-3.8,5.4,33.6,33.6,0,0,0-6.1-1.8L30,18.3v1.3a27.4,27.4,0,0,0,.6,4.8h-4l.4,1.3a28.7,28.7,0,0,0,5.1,9.1h-3L44,66.7,40.5,86H59.4L55.9,66.7,70.8,35H67.9A28.7,28.7,0,0,0,73,25.9ZM61,23.4l.4-.2h.1l.4-.2H62l.5-.2h0a30.5,30.5,0,0,1,5.3-1.7,26.1,26.1,0,0,1-.5,3.6H60.7l-.2-.3h-.1l-.2-.2h-.1V24h-.2l.3-.2h0l.3-.2h.1l.3-.2Zm-2.8-6a32.1,32.1,0,0,1,2.4,3.8h-.2l-.5.3h-.1l-.5.3h0l-.5.3h0l-.4.3h-.1l-.4-.5h-.1l-.4-.4-.2-.2-.3-.3-.2-.2-.3-.3h-.1A26.3,26.3,0,0,1,58.2,17.4Zm-5.8,2.5,1.9,1.6.4.4.8.8.4.4L57,24.3h0l.3.4a21.2,21.2,0,0,1,2,2.5,11.8,11.8,0,0,1,1.2,2.5,15.2,15.2,0,0,1,.7,2.7c0,.3.1.6.1.9v.4h0V34h0v.4h0v.3H53.4a14.3,14.3,0,0,1-1.8-3.6C50.3,27.5,51.7,22.3,52.4,19.9Zm-2.5,13a17.1,17.1,0,0,0,.9,2H49L50,33ZM45.6,21.5h0l1.9-1.6c.8,2.4,2.1,7.5.8,11.4a14.3,14.3,0,0,1-1.8,3.6H38.7v-.3h0v-.4h0v-.3h0v-.4a2.3,2.3,0,0,1,.1-.7v-.2a15.1,15.1,0,0,1,.7-2.7,11.8,11.8,0,0,1,1.2-2.5l.2-.3,1.3-1.7.4-.5.9-1.4Zm-3.9-4.1a26.2,26.2,0,0,1,1.9,3.1h-.1l-.3.3L43,21l-.3.3-.2.2-.4.4H42l-.4.5h-.1l-.4-.3h0l-.5-.3h-.1l-.5-.3h-.1l-.5-.3h-.1A32.1,32.1,0,0,1,41.7,17.4Zm-4.3,5.2.5.2H38l.4.2h.1l.4.2H39l.3.2h.1l.4.2h0l.3.2h-.2l-.2.2h-.1l-.2.2h-.1l-.2.3H32.7a26.2,26.2,0,0,1-.5-3.6A30.5,30.5,0,0,1,37.4,22.6Zm-8,4h2.4l4.5.4H38v.7h-.1v.8h0v.8a16.7,16.7,0,0,0-.6,2.7h0a4.5,4.5,0,0,0-.1,1.1h0v1.7H35C32.1,32.6,30.2,28.6,29.4,26.6ZM56.8,83.9H43.1L46,67.7h2.9V75H51V67.6h2.9ZM54.2,65.5H52.1l3.1-12.4-2.1-.5L50,65.3,46.8,52.6l-2.1.5,3.1,12.4h-2L32.4,37.1h35ZM64.9,35H63.3V33.8h0v-.5h0a3.7,3.7,0,0,0-.1-1.1,17.3,17.3,0,0,0-.8-3.1v-.4h0v-.3h-.1v-.7H64l4.5-.4h2.4C69.7,28.6,67.8,32.6,64.9,35Z"/>
</svg>
