<svg id="Layer_1" data-name="Layer 1" xmlns="http://www.w3.org/2000/svg" width="65" height="65" viewBox="0 0 65 65">
  <title>fresh_flowers</title>
  <g id="Web_1920_1" data-name="Web 1920 1">
    <circle id="Ellipse_1" data-name="Ellipse 1" cx="32.5" cy="32.5" r="32.5" style="fill: #fff"/>
    <g id="flowers">
      <g id="Group_1" data-name="Group 1">
        <path id="Path_1" data-name="Path 1" d="M1016.7,406.7V400a.7.7,0,0,0-.7-.7,4.1,4.1,0,0,1-7.7.4.7.7,0,0,0-.7-.4,5.6,5.6,0,0,1-9.8,0,.7.7,0,0,0-.7.4,4.1,4.1,0,0,1-7.7-.4.7.7,0,0,0-.7.7v6.7a5.6,5.6,0,0,0,4.9,5.6v2.3h-4.2a.7.7,0,0,0-.6,1l13.3,28.6a.7.7,0,0,0,.9.3l.3-.3,13.3-28.6a.7.7,0,0,0-.3-.9h-4.5v-2.3A5.6,5.6,0,0,0,1016.7,406.7Zm-6.3,5.6v2.3h-6.9v-2.3a4.2,4.2,0,0,1,6.9,0Zm-11.8-11.5a4.2,4.2,0,0,1,3.5,4.1.7.7,0,0,0,1.4,0,4.2,4.2,0,0,1,3.5-4.1v5.9a4.2,4.2,0,1,1-8.4,0v-5.9Zm0,9.7a5.6,5.6,0,0,0,3.5,1.8v2.3H995v-2.3a5.6,5.6,0,0,0,3.5-1.8Zm-8.4-3.8v-5.9a4.2,4.2,0,0,1,3.5,4.1.7.7,0,0,0,1.4,0,4.2,4.2,0,0,1,2-3.6v5.4a5.6,5.6,0,0,0,.6,2.6,4.2,4.2,0,0,1-7.5-2.6Zm12.6,35.5L990.5,416h14.7l4.8,10.4Zm12.1-26.2-4,8.7-4-8.7Zm-3.8-5.1a4.2,4.2,0,0,1-3.3-1.6,5.6,5.6,0,0,0,.6-2.6v-5.4a4.2,4.2,0,0,1,2,3.6.7.7,0,0,0,1.4,0,4.2,4.2,0,0,1,3.5-4.1v5.9a4.2,4.2,0,0,1-4.2,4.2Z" transform="translate(-970.7 -389.3)" style="fill: #ff007f"/>
      </g>
    </g>
  </g>
</svg>
