<svg id="Layer_1" data-name="Layer 1" xmlns="http://www.w3.org/2000/svg" width="135" height="40" viewBox="0 0 135 40">
  <title>google_play</title>
  <path d="M130.2,40H4.7A4.7,4.7,0,0,1,0,35.3H0V4.7A4.7,4.7,0,0,1,4.7,0H130.2A4.8,4.8,0,0,1,135,4.7V35.3A4.8,4.8,0,0,1,130.2,40Z" transform="translate(0 0)"/>
  <path d="M134,35.3a3.8,3.8,0,0,1-3.8,3.8H4.7A3.8,3.8,0,0,1,.9,35.3V4.7A3.8,3.8,0,0,1,4.7.9H130.2A3.8,3.8,0,0,1,134,4.7h0Z" transform="translate(0 0)"/>
  <g>
    <path d="M57.8,19.7V18.5H62v3.7a7.5,7.5,0,0,1-2,1.2,6,6,0,0,1-2.1.4,5.7,5.7,0,0,1-2.7-.6,4.2,4.2,0,0,1-1.8-1.8,5.8,5.8,0,0,1-.6-2.7,6.2,6.2,0,0,1,.6-2.7,4.1,4.1,0,0,1,1.8-1.9,5.5,5.5,0,0,1,2.6-.6,5.2,5.2,0,0,1,2,.4,3.3,3.3,0,0,1,1.4,1,4.4,4.4,0,0,1,.8,1.6l-1.2.3a3.7,3.7,0,0,0-.6-1.2,2.3,2.3,0,0,0-1-.7l-1.4-.3a4.1,4.1,0,0,0-1.6.3,2.9,2.9,0,0,0-1.1.7,3.5,3.5,0,0,0-.6,1,5.2,5.2,0,0,0-.4,2,4.9,4.9,0,0,0,.5,2.2,3,3,0,0,0,1.3,1.3,4.2,4.2,0,0,0,1.9.4,4.4,4.4,0,0,0,1.7-.3l1.2-.7V19.7Z" transform="translate(0 0)" style="fill: #d8dbdb"/>
    <path d="M63.3,20a3.7,3.7,0,0,1,1.1-3,3.4,3.4,0,0,1,2.3-.8,3.3,3.3,0,0,1,2.4,1,3.7,3.7,0,0,1,1,2.7,4.8,4.8,0,0,1-.4,2.2,3,3,0,0,1-1.2,1.2,3.6,3.6,0,0,1-1.8.4,3.3,3.3,0,0,1-2.5-1A3.9,3.9,0,0,1,63.3,20Zm1.3,0a3.1,3.1,0,0,0,.6,2.1,2,2,0,0,0,2.8.3l.3-.3a3.2,3.2,0,0,0,.6-2.1,3,3,0,0,0-.6-2,2,2,0,0,0-2.8-.4l-.3.3A3.1,3.1,0,0,0,64.6,20Z" transform="translate(0 0)" style="fill: #d8dbdb"/>
    <path d="M71.1,20a3.7,3.7,0,0,1,1.1-3,3.4,3.4,0,0,1,2.3-.8,3.3,3.3,0,0,1,2.4,1,3.7,3.7,0,0,1,1,2.7,4.8,4.8,0,0,1-.4,2.2,3,3,0,0,1-1.2,1.2,3.6,3.6,0,0,1-1.8.4,3.3,3.3,0,0,1-2.5-1A3.9,3.9,0,0,1,71.1,20Zm1.3,0a3.1,3.1,0,0,0,.6,2.1,2,2,0,0,0,2.8.3l.3-.3a3.2,3.2,0,0,0,.6-2.1,3,3,0,0,0-.6-2,2,2,0,0,0-2.8-.3L73,18A3.1,3.1,0,0,0,72.4,20Z" transform="translate(0 0)" style="fill: #d8dbdb"/>
    <path d="M79.1,24.2l1.2.2a1.1,1.1,0,0,0,.4.8,2.1,2.1,0,0,0,1.3.3,2.2,2.2,0,0,0,1.3-.3,1.7,1.7,0,0,0,.6-1,7.9,7.9,0,0,0,.1-1.6,2.5,2.5,0,0,1-2,1,2.7,2.7,0,0,1-2.3-1.1,4.2,4.2,0,0,1-.8-2.6,4.8,4.8,0,0,1,.4-1.9,3,3,0,0,1,1.1-1.4,2.9,2.9,0,0,1,1.7-.5,2.6,2.6,0,0,1,2.1,1v-.9h1.1v6.3a5.9,5.9,0,0,1-.3,2.4A2.5,2.5,0,0,1,83.9,26a3.8,3.8,0,0,1-1.8.4,3.5,3.5,0,0,1-2.1-.6A2,2,0,0,1,79.1,24.2Zm1.1-4.3a3.2,3.2,0,0,0,.6,2.1,1.9,1.9,0,0,0,2.7.1h.1a3,3,0,0,0,.6-2,3,3,0,0,0-.6-2,1.8,1.8,0,0,0-2.8,0A3,3,0,0,0,80.2,19.9Z" transform="translate(0 0)" style="fill: #d8dbdb"/>
    <path d="M87.1,23.6v-10h1.2v10Z" transform="translate(0 0)" style="fill: #d8dbdb"/>
    <path d="M95.2,21.3l1.3.2a3.1,3.1,0,0,1-1.1,1.7,3.8,3.8,0,0,1-4.6-.4,3.8,3.8,0,0,1-.9-2.8,4,4,0,0,1,.9-2.8,3.2,3.2,0,0,1,2.4-1,3.1,3.1,0,0,1,2.4,1,3.9,3.9,0,0,1,.9,2.8v.3H91.1a2.8,2.8,0,0,0,.7,1.8,2,2,0,0,0,1.5.6,1.9,1.9,0,0,0,1.2-.4A2.4,2.4,0,0,0,95.2,21.3Zm-4-2h4.1a2.5,2.5,0,0,0-.5-1.4,1.9,1.9,0,0,0-2.9-.1A2.2,2.2,0,0,0,91.2,19.3Z" transform="translate(0 0)" style="fill: #d8dbdb"/>
    <path d="M102.1,23.6v-10h5.3a3,3,0,0,1,1.2.5,2.5,2.5,0,0,1,.8,1,3.3,3.3,0,0,1-.5,3.5,3.9,3.9,0,0,1-2.9.9h-2.6v4.1Zm1.3-5.3H106a2.8,2.8,0,0,0,1.8-.5,1.7,1.7,0,0,0,.5-1.3,1.8,1.8,0,0,0-.3-1.1,1.5,1.5,0,0,0-.8-.6h-3.8Z" transform="translate(0 0)" style="fill: #d8dbdb"/>
    <path d="M111.3,23.6v-10h1.2v10Z" transform="translate(0 0)" style="fill: #d8dbdb"/>
    <path d="M119.1,22.7l-1.3.8-1.4.2a2.6,2.6,0,0,1-1.8-.6,1.9,1.9,0,0,1-.6-1.5,2,2,0,0,1,.9-1.7l.9-.4,1.1-.2,2.2-.4v-.3a1.4,1.4,0,0,0-.3-1.1,2.1,2.1,0,0,0-1.4-.4,2.2,2.2,0,0,0-1.3.3,1.9,1.9,0,0,0-.6,1.1l-1.2-.2a3,3,0,0,1,.5-1.2,2.4,2.4,0,0,1,1.1-.7l1.6-.3,1.5.2a2,2,0,0,1,.9.5,1.9,1.9,0,0,1,.4.8,6.9,6.9,0,0,1,.1,1.1v1.6a17.3,17.3,0,0,0,.1,2.2,2.7,2.7,0,0,0,.3.9h-1.3ZM119,20l-2,.5-1.1.2-.5.4a1.1,1.1,0,0,0,.2,1.4,1.6,1.6,0,0,0,1.1.3,2.5,2.5,0,0,0,1.3-.3,1.9,1.9,0,0,0,.8-.9,3,3,0,0,0,.2-1.2Z" transform="translate(0 0)" style="fill: #d8dbdb"/>
    <path d="M122.1,26.4V25.3h1.4l.4-.4.4-.9v-.3l-2.8-7.3h1.3l1.5,4.2.5,1.7a16.5,16.5,0,0,1,.5-1.7l1.6-4.2h1.2l-2.8,7.4-.7,1.6a2.4,2.4,0,0,1-.8.9,1.8,1.8,0,0,1-1,.3Z" transform="translate(0 0)" style="fill: #d8dbdb"/>
  </g>
  <g>
    <path d="M16.9,6.6a2.7,2.7,0,0,0-2.1-.4L27.2,18.5l4-4Z" transform="translate(0 0)" style="fill: #d8dbdb"/>
    <path d="M13.3,7.2a2.7,2.7,0,0,0-.5,1.6v22a2.7,2.7,0,0,0,.5,1.6L25.9,19.8Z" transform="translate(0 0)" style="fill: #d8dbdb"/>
    <path d="M36.4,17.5l-3.6-2-4.4,4.4,4.4,4.4,3.6-2a2.7,2.7,0,0,0,0-4.7Z" transform="translate(0 0)" style="fill: #d8dbdb"/>
    <path d="M27.2,21.1,14.9,33.4h.6a2.7,2.7,0,0,0,1.5-.4l14.3-8Z" transform="translate(0 0)" style="fill: #d8dbdb"/>
  </g>
</svg>
