<svg id="Layer_1" data-name="Layer 1" xmlns="http://www.w3.org/2000/svg" width="100" height="100" viewBox="0 0 100 100">
  <defs>
    <style>
      .cls-1 {
        fill: #f96232;
      }

      .cls-2 {
        fill: #242d3c;
      }
    </style>
  </defs>
  <title>lifesaver</title>
  <g>
    <g>
      <path class="cls-1" d="M16.1,16.1A47.9,47.9,0,0,0,5.6,31.6l18.5,7.7A28.1,28.1,0,0,1,39.3,24.1L31.6,5.7A47.8,47.8,0,0,0,16.1,16.1Z" transform="translate(0)"/>
      <path class="cls-1" d="M83.9,16.1A47.9,47.9,0,0,0,68.4,5.6L60.7,24.1A28.1,28.1,0,0,1,75.9,39.3l18.5-7.7A47.9,47.9,0,0,0,83.9,16.1Z" transform="translate(0)"/>
      <path class="cls-1" d="M94.3,68.4,75.9,60.7a27.7,27.7,0,0,1-6.1,9.1,28,28,0,0,1-9.1,6.1l7.7,18.5a48.1,48.1,0,0,0,26-26Z" transform="translate(0)"/>
      <path class="cls-1" d="M16.1,83.9A47.8,47.8,0,0,0,31.6,94.4l7.7-18.5A28,28,0,0,1,24.1,60.7L5.6,68.4A47.8,47.8,0,0,0,16.1,83.9Z" transform="translate(0)"/>
    </g>
    <g>
      <path class="cls-2" d="M50,100h0A50,50,0,0,1,14.6,14.6,50,50,0,1,1,85.4,85.4,49.7,49.7,0,0,1,50,100ZM50,4A46,46,0,0,0,17.5,82.5,45.7,45.7,0,0,0,50,96h0A46,46,0,0,0,82.5,17.5,45.7,45.7,0,0,0,50,4Zm0,76a30,30,0,1,1,21.2-8.8A29.8,29.8,0,0,1,50,80Zm0-56a26,26,0,1,0,18.4,7.6A25.8,25.8,0,0,0,50,24Z" transform="translate(0)"/>
      <rect class="cls-2" x="11.9" y="10.9" width="4" height="6.04" transform="translate(-5.8 13.9) rotate(-45)"/>
      <rect class="cls-2" x="84.1" y="83.1" width="4" height="6.04" transform="translate(-35.7 86) rotate(-45)"/>
      <rect class="cls-2" x="10.9" y="84.1" width="6" height="4" transform="translate(-56.8 35.1) rotate(-45)"/>
      <rect class="cls-2" x="83.1" y="11.9" width="6" height="4" transform="translate(15.4 65) rotate(-45)"/>
    </g>
  </g>
</svg>
