<svg id="Layer_1" data-name="Layer 1" xmlns="http://www.w3.org/2000/svg" width="190" height="50" viewBox="0 0 190 50">
  <defs>
    <style>
      .cls-1 {
        fill: #e94858;
      }

      .cls-2 {
        fill: #fff;
      }

      .cls-3 {
        fill: #e5e4e5;
        stroke: #e5e4e5;
        stroke-miterlimit: 10;
        stroke-width: 0.75px;
      }
    </style>
  </defs>
  <title>logo_footer</title>
  <rect class="cls-1" width="50" height="50" rx="7" ry="7"/>
  <g>
    <path class="cls-2" d="M24.9,17.7a7.3,7.3,0,0,0,0,14.6,7.3,7.3,0,1,0,0-14.6Zm0,13.3a6,6,0,1,1,6-6,6,6,0,0,1-6,6Z" transform="translate(0.1 0)"/>
    <path class="cls-2" d="M24.9,7.5a8.3,8.3,0,0,0-6.1,2.6h-.1A8.7,8.7,0,0,0,10,18.8h0A9.1,9.1,0,0,0,7.4,25,9.1,9.1,0,0,0,10,31.2h0a8.7,8.7,0,0,0,8.7,8.7h.1a8.3,8.3,0,0,0,6.1,2.6h0a8.4,8.4,0,0,0,6.2-2.6h0a8.7,8.7,0,0,0,6.2-2.5,8.2,8.2,0,0,0,2.5-6.2h0a8.7,8.7,0,0,0,0-12.4h0a8.2,8.2,0,0,0-2.5-6.2,8.6,8.6,0,0,0-6.1-2.5h-.1a8.4,8.4,0,0,0-6.2-2.6Zm-5.6,3.9.3-.4a7.5,7.5,0,0,1,5.3-2.2,7.6,7.6,0,0,1,5.4,2.3l.4.3h.4a7.4,7.4,0,0,1,5.3,2.1,7.6,7.6,0,0,1,2.2,5.4v.4l.3.4a7.3,7.3,0,0,1,0,10.6l-.3.3v.5a7.7,7.7,0,0,1-2.2,5.4,7.4,7.4,0,0,1-5.3,2.1h-.5l-.4.4a7.5,7.5,0,0,1-5.3,2.2h0a7.6,7.6,0,0,1-5.4-2.3l-.3-.3h-.5a7.3,7.3,0,0,1-7.4-7.5v-.4l-.4-.4a7.5,7.5,0,0,1,0-10.6l.4-.3v-.5a7.2,7.2,0,0,1,2.2-5.4,7.4,7.4,0,0,1,5.3-2.1Z" transform="translate(0.1 0)"/>
    <path class="cls-2" d="M18.1,12.4l-2,1a5,5,0,0,0-1.6,1.1,9.5,9.5,0,0,0-1.2,1.6l-.9,2,2.1-.4a5,5,0,0,1,1.7-.2h1.2V16.2a10,10,0,0,1,.2-1.6l.5-2.2Zm-3.9,4.3h0a5,5,0,0,1,1-1.4,3,3,0,0,1,1.3-.9h.1a11,11,0,0,0-.2,1.8v.3h-.2l-1.9.2Z" transform="translate(0.1 0)"/>
    <path class="cls-2" d="M30,12.9l-.9.3a7.2,7.2,0,0,0-2.5,1.6l-1.4,1.4h.9A8.8,8.8,0,0,1,30.2,18l.8.6V16.2a5.3,5.3,0,0,0-.6-2.4l-.4-.9Zm0,3.8h-.1a8.5,8.5,0,0,0-2.6-1.1h0a6,6,0,0,1,2.1-1.4h.2a4.5,4.5,0,0,1,.4,2v.5Z" transform="translate(0.1 0)"/>
    <path class="cls-2" d="M31.8,12.4l.5,2.2a10,10,0,0,1,.2,1.6v1.3h1.2a4.4,4.4,0,0,1,1.6.2l2.2.4-1-2a9.1,9.1,0,0,0-1.1-1.6,6.4,6.4,0,0,0-1.6-1.1l-2-1Zm1.6,4.1v-.3a5.5,5.5,0,0,0-.2-1.8v-.2h.1a2.8,2.8,0,0,1,1.4.9,5,5,0,0,1,1,1.4h-.2l-1.8-.2Z" transform="translate(0.1 0)"/>
    <path class="cls-2" d="M33.3,19h-2l.6.7a8.8,8.8,0,0,1,1.7,4.1v1l1.7-1.7A6,6,0,0,0,36.8,21l.3-1-.9-.4a7.2,7.2,0,0,0-2.9-.6Zm1.1,3.7h-.1a7.7,7.7,0,0,0-1-2.5v-.2h.2a5.3,5.3,0,0,1,2.4.6h.1a5.7,5.7,0,0,1-1.2,1.8l-.3.3Z" transform="translate(0.1 0)"/>
    <path class="cls-2" d="M20,12.8l-.5.9a7.2,7.2,0,0,0-.6,2.9v2l.8-.6a8.8,8.8,0,0,1,4-1.7h1L23,14.5a5.7,5.7,0,0,0-2.1-1.3l-.9-.4Zm-.1,3.9h0a7,7,0,0,1,.5-2.5h.1a4.2,4.2,0,0,1,1.8,1.1l.4.4h-.2a10.9,10.9,0,0,0-2.5,1Z" transform="translate(0.1 0)"/>
    <path class="cls-2" d="M24.9,10.2l-1.9.3-2.1.8,1.9,1.1a6.9,6.9,0,0,1,1.3,1.1l.8.8.9-.8,1.3-1.1L29,11.2l-2.1-.7a6.9,6.9,0,0,0-2-.3Zm0,2.8v-.2l-1.5-1.2h0a3.4,3.4,0,0,1,1.6-.4,5.1,5.1,0,0,1,1.7.3h0l-1.5,1.2-.2.2Z" transform="translate(0.1 0)"/>
    <path class="cls-2" d="M24.9,35.7l-.8.8-1.3,1.1-1.9,1.2,2.1.7,1.9.3a6.9,6.9,0,0,0,2-.3l2.1-.8-1.9-1.1-1.3-1.1-.9-.8Zm0,3.1-1.6-.2h0l1.4-1.2.2-.2.2.2,1.5,1.2h0a5.1,5.1,0,0,1-1.7.3Z" transform="translate(0.1 0)"/>
    <path class="cls-2" d="M33.7,25.3v.9a8.8,8.8,0,0,1-1.7,4.1l-.6.7h2.4a5.6,5.6,0,0,0,2.5-.5l.9-.4-.4-.9a6,6,0,0,0-1.6-2.5l-1.4-1.4Zm-.5,4.8h.1a8.2,8.2,0,0,0,1-2.6h.2a5.7,5.7,0,0,1,1.3,2.1h0a5.4,5.4,0,0,1-2.1.5Z" transform="translate(0.1 0)"/>
    <path class="cls-2" d="M37.5,31.9l-2.2.4a4.4,4.4,0,0,1-1.6.2H32.5v1.3a10,10,0,0,1-.2,1.6l-.5,2.2,2-1a6.4,6.4,0,0,0,1.6-1.1,5.7,5.7,0,0,0,1.1-1.6l1-2Zm-4.3,3.9h0a6.5,6.5,0,0,0,.2-1.9v-.3h.3l1.8-.2h.2a5,5,0,0,1-1,1.4,3,3,0,0,1-1.3.9Z" transform="translate(0.1 0)"/>
    <path class="cls-2" d="M38.7,21l-1.2,1.8a14.7,14.7,0,0,1-1,1.3l-.9.9.9.9a7.3,7.3,0,0,1,1,1.3L38.7,29l.7-2.1a6.2,6.2,0,0,0,0-3.8L38.7,21Zm-.3,5.8h-.1a4.4,4.4,0,0,0-1.2-1.5v-.4a5.3,5.3,0,0,0,1.2-1.4v0a4.4,4.4,0,0,1,0,3.2v.2Z" transform="translate(0.1 0)"/>
    <path class="cls-2" d="M18.6,19H16.2a5.3,5.3,0,0,0-2.5.5l-.9.4.3.9a7.2,7.2,0,0,0,1.6,2.5l1.4,1.4.2-.9A8.8,8.8,0,0,1,18,19.7l.6-.7Zm-3.1,3.7h-.1A6,6,0,0,1,14,20.5h.1a5.4,5.4,0,0,1,2.1-.5h.5v.2a9.5,9.5,0,0,0-1.1,2.5Z" transform="translate(0.1 0)"/>
    <path class="cls-2" d="M11.2,21l-.7,2.1a4.7,4.7,0,0,0,0,3.8l.7,2.1,1.2-1.8a4.5,4.5,0,0,1,1-1.3l.9-.9-.9-.9a6.4,6.4,0,0,1-1-1.3L11.2,21Zm.3,5.8h-.1a6.1,6.1,0,0,1-.3-1.7,5,5,0,0,1,.3-1.6v-.2l.2.2a7.6,7.6,0,0,0,1.1,1.4l.2.2-.2.2a7.6,7.6,0,0,0-1.1,1.4v.2Z" transform="translate(0.1 0)"/>
    <path class="cls-2" d="M31,31.4l-.8.6a8.8,8.8,0,0,1-4.1,1.7h-.9l1.7,1.7A5.7,5.7,0,0,0,29,36.8l.9.4.4-.9a5.9,5.9,0,0,0,.7-2.9v-2ZM29.4,36h-.1a4.2,4.2,0,0,1-1.8-1.1l-.3-.4h.1a8.5,8.5,0,0,0,2.6-1.1H30a7,7,0,0,1-.5,2.5Z" transform="translate(0.1 0)"/>
    <path class="cls-2" d="M12.3,31.9l1,2a9.5,9.5,0,0,0,1.2,1.6,5,5,0,0,0,1.6,1.1l2,1-.5-2.2a10,10,0,0,1-.2-1.6V32.5H16.2a5,5,0,0,1-1.7-.2l-2.2-.4Zm4.4,3.9h-.2a4.2,4.2,0,0,1-1.4-.9,8.5,8.5,0,0,1-.9-1.4h.1l1.9.2h.2v.3a11,11,0,0,0,.2,1.8v.2Z" transform="translate(0.1 0)"/>
    <path class="cls-2" d="M18.9,31.4v2.4a6.9,6.9,0,0,0,.5,2.4l.4.9,1-.3a8.2,8.2,0,0,0,2.5-1.6l1.4-1.4h-1a8.8,8.8,0,0,1-4-1.7l-.8-.6Zm1.5,4.5h-.1a5.2,5.2,0,0,1-.4-2.1v-.5H20a8,8,0,0,0,2.5,1.1h.1a6.4,6.4,0,0,1-2.2,1.4Z" transform="translate(0.1 0)"/>
    <path class="cls-2" d="M16.1,25.2l-1.6,1.7A6,6,0,0,0,13.1,29l-.4,1,1,.4a7.2,7.2,0,0,0,2.9.6h1.9l-.5-.7a8.8,8.8,0,0,1-1.7-4.1l-.2-1Zm.6,4.9h-.2a5,5,0,0,1-2.4-.6H14a5.4,5.4,0,0,1,1.1-1.8l.4-.3h0a11.2,11.2,0,0,0,1.1,2.5v.2Z" transform="translate(0.1 0)"/>
  </g>
  <g>
    <path class="cls-3" d="M68.2,33.6V16.7h4.9a6.1,6.1,0,0,1,4.1,1.2,3.7,3.7,0,0,1,1.5,3.3,3.7,3.7,0,0,1-.7,2.3,4.6,4.6,0,0,1-2,1.3,4.8,4.8,0,0,1,2.5,1.4,4.4,4.4,0,0,1,.9,2.7A4.2,4.2,0,0,1,78,32.4a6.2,6.2,0,0,1-4,1.2Zm1.4-9.3h3.9a4.1,4.1,0,0,0,2.8-.8,2.7,2.7,0,0,0,1-2.4,3,3,0,0,0-1-2.4,5.8,5.8,0,0,0-3.2-.8H69.6Zm0,1.2v7H74a4.5,4.5,0,0,0,3-1A3,3,0,0,0,78,29a3.5,3.5,0,0,0-.9-2.5,3.7,3.7,0,0,0-2.8-1Z" transform="translate(0.1 0)"/>
    <path class="cls-3" d="M139.7,30.4a1.9,1.9,0,0,0-.7-1.5,7.2,7.2,0,0,0-2.6-1.1,7.3,7.3,0,0,1-3.3-1.3,2.4,2.4,0,0,1-1.1-2.2,3.2,3.2,0,0,1,1.2-2.5,6.2,6.2,0,0,1,6.6.1,3.4,3.4,0,0,1,1.2,2.6h-1.4a2.2,2.2,0,0,0-.8-1.8,3.6,3.6,0,0,0-2.4-.8,3.7,3.7,0,0,0-2.3.7,1.8,1.8,0,0,0-.7,1.5,1.7,1.7,0,0,0,.6,1.4,5.4,5.4,0,0,0,2.6,1A9.9,9.9,0,0,1,140,28a3,3,0,0,1,1.1,2.4,2.9,2.9,0,0,1-1.3,2.5,4.8,4.8,0,0,1-3.3,1,5.7,5.7,0,0,1-3.6-1.1,3.2,3.2,0,0,1-1.3-2.6h1.3a2.5,2.5,0,0,0,1.2,2,4.3,4.3,0,0,0,2.4.6,3.6,3.6,0,0,0,2.4-.7A1.9,1.9,0,0,0,139.7,30.4Z" transform="translate(0.1 0)"/>
    <path class="cls-3" d="M89.5,20.9A6.5,6.5,0,1,0,96,27.4,6.5,6.5,0,0,0,89.5,20.9Zm0,11.8a5.3,5.3,0,1,1,5.3-5.3A5.3,5.3,0,0,1,89.5,32.7Z" transform="translate(0.1 0)"/>
    <path class="cls-3" d="M109.7,21.1h-1.4v8.2a3.4,3.4,0,1,1-6.8,0V21.1h-1.4v8a4.8,4.8,0,0,0,4.8,4.8,5.2,5.2,0,0,0,3.4-1.4v1.1h1.4Z" transform="translate(0.1 0)"/>
    <path class="cls-3" d="M125.8,23.6a6.4,6.4,0,0,0-5.3-2.7,6.5,6.5,0,0,0,0,13,6.6,6.6,0,0,0,5.3-2.7v7.3h1.4V21.1h-1.4Zm-5.3,9.1a5.3,5.3,0,1,1,0-10.6,5.3,5.3,0,0,1,0,10.6Z" transform="translate(0.1 0)"/>
    <path class="cls-3" d="M177.7,21.1h-1.4V38.5h1.4V31.2a6.6,6.6,0,0,0,5.3,2.7,6.5,6.5,0,0,0,0-13,6.4,6.4,0,0,0-5.3,2.7Zm0,6.3a5.3,5.3,0,1,1,5.3,5.3A5.3,5.3,0,0,1,177.7,27.4Z" transform="translate(0.1 0)"/>
    <path class="cls-3" d="M165.7,20.9a6.5,6.5,0,1,0,6.5,6.5A6.5,6.5,0,0,0,165.7,20.9Zm0,11.8a5.3,5.3,0,1,1,5.3-5.3A5.3,5.3,0,0,1,165.7,32.7Z" transform="translate(0.1 0)"/>
    <path class="cls-3" d="M155.1,33.6h-1.4V25.4a3.4,3.4,0,1,0-6.8,0v8.2h-1.4V15.5h1.4v6.8a4.8,4.8,0,0,1,8.2,3.4Z" transform="translate(0.1 0)"/>
  </g>
</svg>
