<svg id="Layer_1" data-name="Layer 1" xmlns="http://www.w3.org/2000/svg" width="199.6" height="45.8" viewBox="0 0 199.6 45.8">
  <defs>
    <style>
      .cls-1, .cls-2 {
        fill: #fff;
        stroke: #fff;
        stroke-miterlimit: 10;
      }

      .cls-1 {
        stroke-width: 0.25px;
      }
    </style>
  </defs>
  <title>logo-white</title>
  <g>
    <path class="cls-1" d="M22.8,16a9.4,9.4,0,1,0,9.4,9.4A9.5,9.5,0,0,0,22.8,16Zm0,17.3a7.8,7.8,0,1,1,7.8-7.8A7.8,7.8,0,0,1,22.8,33.3Z" transform="translate(0.1 -2.6)"/>
    <path class="cls-1" d="M42.2,17.5h0A11.2,11.2,0,0,0,30.9,6.1h-.1a11.2,11.2,0,0,0-16.1,0h0a11.3,11.3,0,0,0-8,3.3,11.2,11.2,0,0,0-3.3,8.1h0a11.2,11.2,0,0,0,0,16h0A11.2,11.2,0,0,0,14.6,44.9h.1a11.2,11.2,0,0,0,8,3.4h0a11.2,11.2,0,0,0,8-3.4h0A11.2,11.2,0,0,0,42.2,33.5h0a11.2,11.2,0,0,0,0-16ZM41,32.4l-.5.4v.6a9.6,9.6,0,0,1-2.8,6.9,9.7,9.7,0,0,1-6.9,2.8h-.6l-.4.5a9.6,9.6,0,0,1-6.9,2.9h0a9.8,9.8,0,0,1-7-3l-.5-.4h-.6A9.7,9.7,0,0,1,5,33.5v-.6l-.5-.4a9.7,9.7,0,0,1,0-13.8l.5-.4v-.6a9.6,9.6,0,0,1,2.8-6.9,9.7,9.7,0,0,1,6.9-2.8h.6l.4-.5a9.6,9.6,0,0,1,6.9-2.9,9.8,9.8,0,0,1,7,3l.5.4h.6a9.7,9.7,0,0,1,9.7,9.8v.6l.5.4a9.7,9.7,0,0,1,0,13.8Z" transform="translate(0.1 -2.6)"/>
    <path class="cls-1" d="M13.8,9.1l-2.6,1.3a7.3,7.3,0,0,0-3.5,3.5L6.4,16.5l2.8-.6,2.1-.2H13V14.1a9.9,9.9,0,0,1,.2-2.1ZM12,11.7a11.2,11.2,0,0,0-.3,2.4v.3h-.3L9,14.7H8.7v-.2A6.5,6.5,0,0,1,10,12.7a6.4,6.4,0,0,1,1.7-1.2H12v.2Z" transform="translate(0.1 -2.6)"/>
    <path class="cls-1" d="M23.1,14l1.2.2a11.4,11.4,0,0,1,5.3,2.2l1,.8V14.1a7.8,7.8,0,0,0-.7-3.2l-.5-1.2-1.2.5a9,9,0,0,0-3.3,2.1Zm2.8-1a7.7,7.7,0,0,1,2.8-1.8h.2a6.5,6.5,0,0,1,.6,2.7v.6h-.2a12.6,12.6,0,0,0-3.3-1.4h0Z" transform="translate(0.1 -2.6)"/>
    <path class="cls-1" d="M37.9,13.9a7.3,7.3,0,0,0-3.5-3.5L31.7,9.1l.6,2.8a9.8,9.8,0,0,1,.2,2.1v1.6h1.6l2.1.2,2.8.6Zm-1.2.8h-.1l-2.4-.3h-.3v-.3a11.1,11.1,0,0,0-.3-2.4v-.2h.2a6.5,6.5,0,0,1,1.8,1.2,6.4,6.4,0,0,1,1.2,1.8v.2Z" transform="translate(0.1 -2.6)"/>
    <path class="cls-1" d="M38.6,19l-1.2-.5a9,9,0,0,0-3.8-.8H31.1l.8,1A11.4,11.4,0,0,1,34,23.9l.2,1.2L36.4,23a7.8,7.8,0,0,0,1.8-2.8Zm-1.6.7a6.6,6.6,0,0,1-1.5,2.3l-.5.5v-.2a12.6,12.6,0,0,0-1.4-3.3v-.2h.2a7.8,7.8,0,0,1,3.2.7H37Z" transform="translate(0.1 -2.6)"/>
    <path class="cls-1" d="M22.5,14l-2.2-2.2a7.8,7.8,0,0,0-2.8-1.8l-1.2-.5-.5,1.2a9,9,0,0,0-.8,3.8v2.6l1-.8a11.4,11.4,0,0,1,5.3-2.2Zm-2.8-.8a12.6,12.6,0,0,0-3.3,1.4h-.2v-.2a7.8,7.8,0,0,1,.7-3.2h.2a6.6,6.6,0,0,1,2.3,1.5l.4.5Z" transform="translate(0.1 -2.6)"/>
    <path class="cls-1" d="M28,7.6l-2.8-.9a7.1,7.1,0,0,0-5,0l-2.7.9L20,9.2a9.8,9.8,0,0,1,1.7,1.3l1.1,1.1,1.1-1.1a9.8,9.8,0,0,1,1.7-1.3ZM25,8.1A11.2,11.2,0,0,0,23,9.6l-.2.2-.2-.2a11.2,11.2,0,0,0-1.9-1.5h0a5.8,5.8,0,0,1,4.3,0H25Z" transform="translate(0.1 -2.6)"/>
    <path class="cls-1" d="M25.6,41.8l-1.7-1.3-1.1-1.1-1.1,1.1L20,41.8l-2.5,1.6,2.8.9a7.3,7.3,0,0,0,5,0l2.7-.9Zm-.7,1.3a6.5,6.5,0,0,1-2.2.4,6.6,6.6,0,0,1-2.1-.4h-.1a11.5,11.5,0,0,0,1.9-1.5l.2-.2.2.2a11.2,11.2,0,0,0,1.9,1.5h0Z" transform="translate(0.1 -2.6)"/>
    <path class="cls-1" d="M38.1,30.9A9,9,0,0,0,36,27.6l-1.8-1.8L34,27.1a11.3,11.3,0,0,1-2.2,5.3l-.8,1h3.1a7.8,7.8,0,0,0,3.2-.7l1.2-.5Zm-1.2.6a6.6,6.6,0,0,1-2.7.6h-.6v-.2A12.6,12.6,0,0,0,35,28.6v-.2h.1A7.8,7.8,0,0,1,37,31.3h0Z" transform="translate(0.1 -2.6)"/>
    <path class="cls-1" d="M37.9,37l1.3-2.6-2.8.6-2.1.2H32.6v1.6a9.8,9.8,0,0,1-.2,2.1l-.6,2.8,2.6-1.3A7.3,7.3,0,0,0,37.9,37Zm-4.1,2.4h-.2v-.2a11.1,11.1,0,0,0,.3-2.5v-.4h.3l2.4-.3h.2v.2a6.5,6.5,0,0,1-1.3,1.8A6.4,6.4,0,0,1,33.8,39.4Z" transform="translate(0.1 -2.6)"/>
    <path class="cls-1" d="M42,25.5a7.6,7.6,0,0,0-.4-2.5l-.9-2.7-1.6,2.4a9.8,9.8,0,0,1-1.3,1.7l-1.1,1.1,1.1,1.1a9.7,9.7,0,0,1,1.3,1.7l1.6,2.5.9-2.8A7.7,7.7,0,0,0,42,25.5Zm-1.6,2.1v.2h-.1a11.2,11.2,0,0,0-1.5-1.9l-.3-.2.2-.2a11,11,0,0,0,1.5-1.9v0a6.4,6.4,0,0,1,.4,2.1A6.5,6.5,0,0,1,40.4,27.6Z" transform="translate(0.1 -2.6)"/>
    <path class="cls-1" d="M13.7,18.6l.8-1H11.4a7.7,7.7,0,0,0-3.2.7L7,18.9l.5,1.2a9,9,0,0,0,2.1,3.3l1.8,1.8.2-1.2A11.3,11.3,0,0,1,13.7,18.6Zm-3.2,3.7v.2h-.1a7.8,7.8,0,0,1-1.7-2.8h.1a6.5,6.5,0,0,1,2.7-.6H12V19A12.6,12.6,0,0,0,10.5,22.3Z" transform="translate(0.1 -2.6)"/>
    <path class="cls-1" d="M8.9,25.5,7.8,24.4a9.8,9.8,0,0,1-1.3-1.7L4.9,20.2,3.9,23a7.3,7.3,0,0,0,0,5l.9,2.7,1.6-2.4a9.9,9.9,0,0,1,1.3-1.7Zm-2,.2a11,11,0,0,0-1.5,1.9v0a6.1,6.1,0,0,1,0-4.3v-.2l.2.2a11.3,11.3,0,0,0,1.5,1.9l.2.2Z" transform="translate(0.1 -2.6)"/>
    <path class="cls-1" d="M30.6,36.4V33.8l-1,.8a11.4,11.4,0,0,1-5.3,2.2l-1.2.2,2.2,2.2A7.8,7.8,0,0,0,28,40.9l1.2.5.5-1.2A9,9,0,0,0,30.6,36.4Zm-1.3.1a7.8,7.8,0,0,1-.7,3.2h-.2a6.6,6.6,0,0,1-2.3-1.5l-.5-.5h.2a12.6,12.6,0,0,0,3.3-1.4h.2Z" transform="translate(0.1 -2.6)"/>
    <path class="cls-1" d="M9.1,39.1a7.7,7.7,0,0,0,2.1,1.5l2.6,1.3L13.2,39a9.8,9.8,0,0,1-.2-2.1V35.3H11.4L9.2,35l-2.8-.6L7.7,37A7.7,7.7,0,0,0,9.1,39.1Zm-.2-2.8,2.5.3h.4v.3a11.1,11.1,0,0,0,.3,2.4v.2h-.2A6.4,6.4,0,0,1,10,38.2a6.5,6.5,0,0,1-1.2-1.8v-.2Z" transform="translate(0.1 -2.6)"/>
    <path class="cls-1" d="M22.4,36.9l-1.2-.2a11.4,11.4,0,0,1-5.3-2.2l-1-.8v3.1a7.8,7.8,0,0,0,.7,3.2l.5,1.2,1.2-.5a9,9,0,0,0,3.3-2.1Zm-2.8,1a7.7,7.7,0,0,1-2.8,1.8h-.2a6.5,6.5,0,0,1-.6-2.7v-.6h.2a12.6,12.6,0,0,0,3.3,1.4h.1Z" transform="translate(0.1 -2.6)"/>
    <path class="cls-1" d="M6.9,32l1.2.5a9,9,0,0,0,3.8.8h2.6l-.8-1a11.4,11.4,0,0,1-2.2-5.3l-.2-1.2L9.1,28a7.8,7.8,0,0,0-1.8,2.8Zm1.6-.7A6.6,6.6,0,0,1,10,28.9l.5-.5v.2a12.7,12.7,0,0,0,1.4,3.3v.2h-.2a7.8,7.8,0,0,1-3.2-.7H8.5Z" transform="translate(0.1 -2.6)"/>
  </g>
  <path class="cls-2" d="M60.3,34.1V14.8h5.6a7.6,7.6,0,0,1,4.7,1.3,4.5,4.5,0,0,1,1.7,3.8,4.1,4.1,0,0,1-.8,2.6A4.3,4.3,0,0,1,69.1,24,4.7,4.7,0,0,1,72,25.7a4.7,4.7,0,0,1,1.1,3.1,4.9,4.9,0,0,1-1.7,4,6.8,6.8,0,0,1-4.5,1.4Zm1.6-10.7h4.4a5.1,5.1,0,0,0,3.2-.9,3.3,3.3,0,0,0,1.1-2.7,3.2,3.2,0,0,0-1.2-2.8,5.8,5.8,0,0,0-3.6-.9H61.8Zm0,1.4v7.9h5.1a5,5,0,0,0,3.4-1.1,3.7,3.7,0,0,0,1.2-2.9A3.9,3.9,0,0,0,70.4,26a4.4,4.4,0,0,0-3.2-1.1Z" transform="translate(0.1 -2.6)"/>
  <path class="cls-2" d="M142,30.5a2.3,2.3,0,0,0-.8-1.8,6.7,6.7,0,0,0-3-1.2,10,10,0,0,1-3.8-1.5,3,3,0,0,1-1.2-2.6,3.5,3.5,0,0,1,1.4-2.8,5.6,5.6,0,0,1,3.7-1.1,5.8,5.8,0,0,1,3.8,1.2,3.6,3.6,0,0,1,1.4,3H142a2.7,2.7,0,0,0-1-2.1,4,4,0,0,0-2.7-.9,3.9,3.9,0,0,0-2.6.7,2.2,2.2,0,0,0-.9,1.7,2.1,2.1,0,0,0,.7,1.6,7.3,7.3,0,0,0,3,1.1,9.8,9.8,0,0,1,3.8,1.6,3.2,3.2,0,0,1,1.3,2.7,3.5,3.5,0,0,1-1.5,2.9,7.3,7.3,0,0,1-7.9-.1,3.5,3.5,0,0,1-1.4-3h1.5a2.6,2.6,0,0,0,1.3,2.2,5.3,5.3,0,0,0,2.8.7,4.4,4.4,0,0,0,2.7-.8A2.2,2.2,0,0,0,142,30.5Z" transform="translate(0.1 -2.6)"/>
  <path class="cls-2" d="M84.6,19.5A7.5,7.5,0,1,0,92.1,27,7.5,7.5,0,0,0,84.6,19.5Zm0,13.5A6.1,6.1,0,1,1,90.7,27,6.1,6.1,0,0,1,84.6,33.1Z" transform="translate(0.1 -2.6)"/>
  <path class="cls-2" d="M107.7,19.8h-1.6v9.3a3.9,3.9,0,1,1-7.8,0V19.8H96.7v9.1a5.5,5.5,0,0,0,9.4,3.9v1.4h1.6Z" transform="translate(0.1 -2.6)"/>
  <path class="cls-2" d="M126.1,22.6a7.5,7.5,0,1,0,0,8.7v8.4h1.6V19.8h-1.6Zm-6,10.4a6.1,6.1,0,1,1,6.1-6.1A6.1,6.1,0,0,1,120.1,33.1Z" transform="translate(0.1 -2.6)"/>
  <path class="cls-2" d="M185.5,19.8h-1.6V39.7h1.6V31.3a7.5,7.5,0,1,0,0-8.7Zm0,7.2a6.1,6.1,0,1,1,6.1,6.1A6.1,6.1,0,0,1,185.5,27Z" transform="translate(0.1 -2.6)"/>
  <path class="cls-2" d="M171.7,19.5a7.5,7.5,0,1,0,7.5,7.5A7.5,7.5,0,0,0,171.7,19.5Zm0,13.5a6.1,6.1,0,1,1,6.1-6.1A6.1,6.1,0,0,1,171.7,33.1Z" transform="translate(0.1 -2.6)"/>
  <path class="cls-2" d="M159.7,34.1h-1.6V24.8a3.9,3.9,0,0,0-7.8,0v9.4h-1.6V13.4h1.6v7.7a5.5,5.5,0,0,1,9.4,3.9Z" transform="translate(0.1 -2.6)"/>
</svg>
