<?xml version="1.0" encoding="utf-8"?>
<!-- Generator: Adobe Illustrator 22.0.1, SVG Export Plug-In . SVG Version: 6.00 Build 0)  -->
<svg version="1.1" id="Layer_1" xmlns="http://www.w3.org/2000/svg" xmlns:xlink="http://www.w3.org/1999/xlink" x="0px" y="0px"
	 viewBox="0 0 190 50" style="enable-background:new 0 0 190 50;" xml:space="preserve">
<style type="text/css">
	.st0{fill:#E94858;}
	.st1{fill:#FAFAFA;}
	.st2{fill:#FAFAFA;stroke:#FAFAFA;stroke-width:0.75;stroke-miterlimit:10;}
</style>
<title>logo_footer</title>
<path class="st0" d="M7,0h36c3.9,0,7,3.1,7,7v36c0,3.9-3.1,7-7,7H7c-3.9,0-7-3.1-7-7V7C0,3.1,3.1,0,7,0z"/>
<g>
	<path class="st1" d="M25,17.7c-4,0-7.3,3.3-7.3,7.3s3.3,7.3,7.3,7.3s7.3-3.3,7.3-7.3S29,17.7,25,17.7z M25,31c-3.3,0-6-2.7-6-6
		s2.7-6,6-6s6,2.7,6,6S28.3,31,25,31z"/>
	<path class="st1" d="M25,7.5c-2.3,0-4.5,0.9-6.1,2.6h-0.1c-4.8,0-8.7,3.9-8.7,8.7l0,0c-1.6,1.7-2.6,3.9-2.6,6.2s1,4.5,2.6,6.2l0,0
		c0,4.8,3.9,8.7,8.7,8.7l0,0h0.1c1.6,1.7,3.8,2.6,6.1,2.6l0,0c2.3,0,4.6-0.9,6.2-2.6l0,0c2.3,0,4.5-0.9,6.2-2.5s2.6-3.9,2.5-6.2l0,0
		c3.4-3.4,3.5-8.9,0.1-12.3l-0.1-0.1l0,0c0.1-2.3-0.8-4.6-2.5-6.2c-1.6-1.6-3.8-2.5-6.1-2.5h-0.1C29.6,8.4,27.3,7.5,25,7.5z
		 M19.4,11.4l0.3-0.4C21.1,9.6,23,8.8,25,8.8s4,0.8,5.4,2.3l0.4,0.3h0.4c2,0,3.9,0.7,5.3,2.1s2.2,3.4,2.2,5.4v0.4l0.3,0.4
		c2.9,2.8,3.1,7.4,0.3,10.3c-0.1,0.1-0.2,0.2-0.3,0.3l-0.3,0.3v0.5c0,2-0.8,4-2.2,5.4s-3.3,2.1-5.3,2.1h-0.5L30.3,39
		c-1.4,1.4-3.3,2.2-5.3,2.2l0,0c-2,0-4-0.8-5.4-2.3l-0.3-0.3h-0.5c-4,0.1-7.3-3.2-7.4-7.2c0-0.1,0-0.2,0-0.3v-0.4L11,30.3
		c-2.9-2.9-2.9-7.7,0-10.6l0.4-0.3v-0.5c-0.1-2,0.7-4,2.2-5.4c1.4-1.4,3.3-2.1,5.3-2.1H19.4z"/>
	<path class="st1" d="M18.2,12.4l-2,1c-0.6,0.3-1.1,0.6-1.6,1.1s-0.9,1-1.2,1.6l-0.9,2l2.1-0.4c0.6-0.2,1.1-0.2,1.7-0.2h1.2v-1.3
		c0-0.5,0.1-1.1,0.2-1.6C17.7,14.6,18.2,12.4,18.2,12.4z M14.3,16.7L14.3,16.7c0.2-0.5,0.6-1,1-1.4c0.3-0.4,0.8-0.7,1.3-0.9h0.1
		c-0.1,0.6-0.2,1.2-0.2,1.8v0.3h-0.2L14.3,16.7L14.3,16.7z"/>
	<path class="st1" d="M30.1,12.9l-0.9,0.3c-0.9,0.4-1.8,0.9-2.5,1.6l-1.4,1.4h0.9c1.5,0.2,2.9,0.9,4.1,1.8l0.8,0.6v-2.4
		c0-0.8-0.2-1.7-0.6-2.4C30.5,13.8,30.1,12.9,30.1,12.9z M30.1,16.7H30c-0.8-0.5-1.7-0.9-2.6-1.1l0,0c0.6-0.6,1.3-1.1,2.1-1.4h0.2
		c0.3,0.6,0.4,1.3,0.4,2V16.7z"/>
	<path class="st1" d="M31.9,12.4l0.5,2.2c0.1,0.5,0.2,1.1,0.2,1.6v1.3h1.2c0.5,0,1.1,0,1.6,0.2l2.2,0.4l-1-2
		c-0.3-0.6-0.7-1.1-1.1-1.6c-0.5-0.4-1-0.8-1.6-1.1C33.9,13.4,31.9,12.4,31.9,12.4z M33.5,16.5v-0.3c0-0.6,0-1.2-0.2-1.8v-0.2h0.1
		c0.5,0.2,1,0.5,1.4,0.9s0.8,0.9,1,1.4h-0.2l-1.8-0.2L33.5,16.5z"/>
	<path class="st1" d="M33.4,19h-2l0.6,0.7c0.9,1.2,1.5,2.6,1.7,4.1v1l1.7-1.7c0.6-0.6,1.2-1.3,1.5-2.1l0.3-1l-0.9-0.4
		C35.4,19.2,34.4,19,33.4,19z M34.5,22.7L34.5,22.7c-0.3-0.9-0.6-1.7-1.1-2.5V20h0.2c0.8,0,1.7,0.2,2.4,0.6h0.1
		c-0.3,0.7-0.7,1.3-1.2,1.8l-0.3,0.3L34.5,22.7z"/>
	<path class="st1" d="M20.1,12.8l-0.5,0.9c-0.4,0.9-0.6,1.9-0.6,2.9v2l0.8-0.6c1.2-0.9,2.5-1.5,4-1.7h1l-1.7-1.8
		c-0.6-0.6-1.3-1-2.1-1.3L20.1,12.8z M20,16.7L20,16.7c0-0.9,0.2-1.7,0.5-2.5h0.1c0.7,0.2,1.3,0.6,1.8,1.1l0.4,0.4h-0.2
		C21.7,15.9,20.9,16.3,20,16.7L20,16.7z"/>
	<path class="st1" d="M25,10.2l-1.9,0.3L21,11.3l1.9,1.1c0.5,0.3,0.9,0.7,1.3,1.1l0.8,0.8l0.9-0.8l1.3-1.1l1.9-1.2L27,10.5
		C26.4,10.3,25.7,10.2,25,10.2z M25,13v-0.2l-1.5-1.2l0,0c0.5-0.3,1-0.4,1.6-0.4s1.2,0.1,1.7,0.3l0,0l-1.5,1.2l-0.2,0.2L25,13z"/>
	<path class="st1" d="M25,35.7l-0.8,0.8l-1.3,1.1L21,38.8l2.1,0.7l1.9,0.3c0.7,0,1.4-0.1,2-0.3l2.1-0.8l-1.9-1.1l-1.3-1.1
		C25.9,36.5,25,35.7,25,35.7z M25,38.8l-1.6-0.2l0,0l1.4-1.2l0.2-0.2l0.2,0.2l1.5,1.2l0,0C26.2,38.8,25.6,38.9,25,38.8L25,38.8z"/>
	<path class="st1" d="M33.8,25.3v0.9c-0.2,1.5-0.8,2.9-1.7,4.1L31.5,31h2.4c0.9,0,1.7-0.1,2.5-0.5l0.9-0.4l-0.4-0.9
		c-0.3-1-0.9-1.8-1.6-2.5L33.8,25.3L33.8,25.3z M33.3,30.1L33.3,30.1c0.6-0.8,0.9-1.7,1.1-2.6h0.2c0.6,0.6,1,1.3,1.3,2.1l0,0
		c-0.7,0.3-1.4,0.5-2.1,0.5H33.3z"/>
	<path class="st1" d="M37.6,31.9l-2.2,0.4c-0.5,0.2-1.1,0.2-1.6,0.2h-1.2v1.3c0,0.5-0.1,1.1-0.2,1.6l-0.5,2.2l2-1
		c0.6-0.3,1.1-0.7,1.6-1.1c0.5-0.5,0.8-1,1.1-1.6C36.6,33.9,37.6,31.9,37.6,31.9z M33.3,35.8L33.3,35.8c0.2-0.6,0.2-1.3,0.2-1.9
		v-0.3h0.3l1.8-0.2h0.2c-0.2,0.5-0.6,1-1,1.4c-0.3,0.4-0.8,0.7-1.3,0.9L33.3,35.8z"/>
	<path class="st1" d="M38.8,21l-1.2,1.8c-0.3,0.5-0.6,0.9-1,1.3L35.7,25l0.9,0.9c0.4,0.4,0.7,0.8,1,1.3l1.2,1.8l0.7-2.1
		c0.4-1.2,0.4-2.6,0-3.8L38.8,21z M38.5,26.8L38.5,26.8c-0.4-0.6-0.8-1.1-1.3-1.5v-0.4c0.5-0.4,0.9-0.9,1.2-1.4l0,0
		C38.8,24.5,38.8,25.7,38.5,26.8l-0.1,0.1L38.5,26.8z"/>
	<path class="st1" d="M18.7,19h-2.4c-0.9,0-1.7,0.1-2.5,0.5l-0.9,0.4l0.3,0.9c0.4,0.9,0.9,1.8,1.6,2.5l1.4,1.4l0.2-0.9
		c0.2-1.5,0.8-2.9,1.7-4.1L18.7,19z M15.6,22.7h-0.1c-0.6-0.6-1.1-1.4-1.4-2.2h0.1c0.7-0.3,1.4-0.5,2.1-0.5h0.5v0.2
		c-0.5,0.8-0.9,1.6-1.1,2.5H15.6z"/>
	<path class="st1" d="M11.3,21l-0.7,2.1c-0.5,1.2-0.5,2.6,0,3.8l0.7,2.1l1.2-1.8c0.3-0.5,0.6-0.9,1-1.3l0.9-0.9l-0.9-0.9
		c-0.4-0.4-0.7-0.8-1-1.3L11.3,21z M11.6,26.8h-0.1c-0.2-0.5-0.3-1.1-0.3-1.7c0-0.5,0.1-1.1,0.3-1.6v-0.2l0.2,0.2
		c0.3,0.5,0.7,1,1.1,1.4l0.2,0.2l-0.2,0.2c-0.4,0.4-0.8,0.9-1.1,1.4v0.2L11.6,26.8z"/>
	<path class="st1" d="M31.1,31.4L30.3,32c-1.2,0.9-2.6,1.5-4.1,1.7h-0.9l1.7,1.7c0.6,0.6,1.3,1.1,2.1,1.4l0.9,0.4l0.4-0.9
		c0.5-0.9,0.7-1.9,0.7-2.9V31.4z M29.5,36h-0.1c-0.7-0.2-1.3-0.6-1.8-1.1l-0.3-0.4h0.1c0.9-0.2,1.8-0.6,2.6-1.1h0.1
		c0,0.9-0.2,1.7-0.5,2.5L29.5,36z"/>
	<path class="st1" d="M12.4,31.9l1,2c0.3,0.6,0.7,1.1,1.2,1.6s1,0.8,1.6,1.1l2,1l-0.5-2.2c-0.1-0.5-0.2-1.1-0.2-1.6v-1.3h-1.2
		c-0.6,0-1.1,0-1.7-0.2C14.6,32.3,12.4,31.9,12.4,31.9z M16.8,35.8h-0.2c-0.5-0.2-1-0.5-1.4-0.9c-0.3-0.4-0.6-0.9-0.9-1.4h0.1
		l1.9,0.2h0.2V34C16.5,34.6,16.6,35.2,16.8,35.8L16.7,36L16.8,35.8z"/>
	<path class="st1" d="M19,31.4v2.4c0,0.8,0.2,1.6,0.5,2.4l0.4,0.9l1-0.3c0.9-0.4,1.8-0.9,2.5-1.6l1.4-1.4h-1c-1.5-0.2-2.8-0.8-4-1.7
		L19,31.5V31.4z M20.5,35.9h-0.1c-0.3-0.7-0.4-1.4-0.4-2.1v-0.5h0.1c0.8,0.5,1.6,0.9,2.5,1.1h0.1C22.1,35,21.3,35.5,20.5,35.9
		L20.5,35.9z"/>
	<path class="st1" d="M16.2,25.2l-1.6,1.7c-0.6,0.6-1.1,1.3-1.4,2.1l-0.4,1l1,0.4c0.9,0.4,1.9,0.6,2.9,0.6h1.9l-0.5-0.7
		c-0.9-1.2-1.5-2.6-1.7-4.1L16.2,25.2z M16.8,30.1h-0.2c-0.8,0-1.7-0.2-2.4-0.6h-0.1c0.2-0.7,0.6-1.3,1.1-1.8l0.4-0.3l0,0
		c0.3,0.9,0.6,1.7,1.1,2.5v0.2L16.8,30.1z"/>
</g>
<g>
	<path class="st2" d="M68.3,33.6V16.7h4.9c1.5-0.1,2.9,0.3,4.1,1.2c1,0.8,1.6,2,1.5,3.3c0,0.8-0.2,1.6-0.7,2.3
		c-0.5,0.6-1.2,1.1-2,1.3c1,0.2,1.8,0.7,2.5,1.4c0.6,0.8,0.9,1.7,0.9,2.7c0.1,1.3-0.4,2.6-1.4,3.5c-1.2,0.9-2.6,1.3-4,1.2L68.3,33.6
		z M69.7,24.3h3.9c1,0.1,2-0.2,2.8-0.8c0.7-0.6,1.1-1.5,1-2.4c0-0.9-0.3-1.8-1-2.4c-1-0.6-2.1-0.8-3.2-0.8h-3.5
		C69.7,17.9,69.7,24.3,69.7,24.3z M69.7,25.5v7h4.4c1.1,0,2.2-0.3,3-1c0.7-0.6,1.1-1.6,1-2.5c0-0.9-0.3-1.8-0.9-2.5
		c-0.8-0.7-1.8-1.1-2.8-1H69.7z"/>
	<path class="st2" d="M139.8,30.4c0-0.6-0.2-1.1-0.7-1.5c-0.8-0.5-1.7-0.9-2.6-1.1c-1.2-0.2-2.3-0.6-3.3-1.3
		c-0.7-0.5-1.2-1.3-1.1-2.2c0-1,0.4-1.9,1.2-2.5c2-1.2,4.6-1.2,6.6,0.1c0.8,0.6,1.2,1.6,1.2,2.6h-1.4c0-0.7-0.3-1.4-0.8-1.8
		c-0.7-0.5-1.5-0.8-2.4-0.8c-0.8,0-1.6,0.2-2.3,0.7c-0.5,0.4-0.7,0.9-0.7,1.5c0,0.5,0.2,1.1,0.6,1.4c0.8,0.6,1.7,0.9,2.6,1
		c1.2,0.3,2.4,0.8,3.4,1.5c0.7,0.6,1.1,1.5,1.1,2.4c0,1-0.5,1.9-1.3,2.5c-0.9,0.7-2.1,1.1-3.3,1c-1.3,0.1-2.6-0.3-3.6-1.1
		c-0.8-0.6-1.3-1.6-1.3-2.6h1.3c0,0.8,0.5,1.6,1.2,2s1.6,0.6,2.4,0.6c0.9,0.1,1.7-0.2,2.4-0.7C139.5,31.7,139.9,31.1,139.8,30.4z"/>
	<path class="st2" d="M89.6,20.9c-3.6,0-6.5,2.9-6.5,6.5s2.9,6.5,6.5,6.5s6.5-2.9,6.5-6.5S93.2,20.9,89.6,20.9z M89.6,32.7
		c-2.9,0-5.3-2.4-5.3-5.3s2.4-5.3,5.3-5.3s5.3,2.4,5.3,5.3S92.5,32.7,89.6,32.7L89.6,32.7z"/>
	<path class="st2" d="M109.8,21.1h-1.4v8.2c0,1.9-1.5,3.4-3.4,3.4s-3.4-1.5-3.4-3.4v-8.2h-1.4v8c0,2.7,2.1,4.8,4.8,4.8l0,0
		c1.3,0,2.5-0.5,3.4-1.4v1.1h1.4V21.1z"/>
	<path class="st2" d="M125.9,23.6c-1.2-1.7-3.2-2.7-5.3-2.7c-3.6,0-6.5,2.9-6.5,6.5s2.9,6.5,6.5,6.5c2.1,0,4.1-1,5.3-2.7v7.3h1.4
		V21.1h-1.4V23.6z M120.6,32.7c-2.9,0-5.3-2.4-5.3-5.3s2.4-5.3,5.3-5.3l0,0c2.9,0,5.3,2.4,5.3,5.3S123.5,32.7,120.6,32.7z"/>
	<path class="st2" d="M177.8,21.1h-1.4v17.4h1.4v-7.3c1.2,1.7,3.2,2.7,5.3,2.7c3.6,0,6.5-2.9,6.5-6.5s-2.9-6.5-6.5-6.5
		c-2.1,0-4.1,1-5.3,2.7V21.1z M177.8,27.4c0-2.9,2.4-5.3,5.3-5.3s5.3,2.4,5.3,5.3s-2.4,5.3-5.3,5.3S177.8,30.3,177.8,27.4
		L177.8,27.4z"/>
	<path class="st2" d="M165.8,20.9c-3.6,0-6.5,2.9-6.5,6.5s2.9,6.5,6.5,6.5s6.5-2.9,6.5-6.5S169.4,20.9,165.8,20.9z M165.8,32.7
		c-2.9,0-5.3-2.4-5.3-5.3s2.4-5.3,5.3-5.3s5.3,2.4,5.3,5.3S168.7,32.7,165.8,32.7L165.8,32.7z"/>
	<path class="st2" d="M155.2,33.6h-1.4v-8.2c0-1.9-1.5-3.4-3.4-3.4s-3.4,1.5-3.4,3.4v8.2h-1.4V15.5h1.4v6.8c1.9-1.9,4.9-1.9,6.8,0
		c0.9,0.9,1.4,2.1,1.4,3.4L155.2,33.6L155.2,33.6z"/>
</g>
</svg>
