<?xml version="1.0" encoding="utf-8"?>
<!-- Generator: Adobe Illustrator 22.0.1, SVG Export Plug-In . SVG Version: 6.00 Build 0)  -->
<svg version="1.1" id="Layer_1" xmlns="http://www.w3.org/2000/svg" xmlns:xlink="http://www.w3.org/1999/xlink" x="0px" y="0px"
	 viewBox="0 0 215 50" style="enable-background:new 0 0 215 50;" xml:space="preserve">
<style type="text/css">
	.st0{fill:#E5E4E5;}
	.st1{fill:#E94858;}
	.st2{fill:#FFFFFF;}
</style>
<path class="st0" d="M77.5,35.2h-9V14.4h9c3.7,0,6,2.2,6,5.6c0,1.6-0.8,3.3-2.6,4.2C83.1,25,84,27,84,29.1
	C84,32.6,81.5,35.2,77.5,35.2z M71,23.1h6.5c1.6,0,3.3-0.8,3.3-3.1c0-2.2-1.4-3.1-3.4-3.1H71V23.1z M77.6,25.6H71v7.2
	c1.8,0,6.6,0,6.6,0c2.2,0,3.8-1.3,3.8-3.6C81.5,26.6,79.9,25.6,77.6,25.6z"/>
<path class="st0" d="M102.9,27.5c0,4.4-3.4,8-7.8,8c-4.4,0-7.8-3.6-7.8-8c0-4.5,3.4-8.2,7.8-8.2C99.5,19.4,102.9,23,102.9,27.5z
	 M100.3,27.5c0-3.2-2.3-5.8-5.2-5.8c-2.9,0-5.2,2.6-5.2,5.8c0,3.2,2.3,5.7,5.2,5.7C98,33.2,100.3,30.7,100.3,27.5z"/>
<path class="st0" d="M119.8,35.2h-2.5v-1.7c-1,1.3-2.6,2-4.5,2c-3.8,0-5.9-2.7-5.9-6.5v-9.3h2.5v9.4c0,2.5,1.4,4.1,3.8,4.1
	c2.3,0,4-1.7,4-4v-9.5h2.5V35.2z"/>
<path class="st0" d="M139.6,42.1H137v-9.2c-1.1,1.5-3,2.7-5.2,2.7c-4.4,0-7.7-3.6-7.7-8.1c0-4.4,3.3-8.1,7.7-8.1
	c2.3,0,4.3,1.3,5.3,2.9v-2.5h2.5V42.1z M131.8,21.7c-2.9,0-5.2,2.6-5.2,5.7c0,3.2,2.3,5.8,5.2,5.8c2.8,0,5.2-2.6,5.2-5.8
	C137,24.3,134.6,21.7,131.8,21.7z"/>
<path class="st0" d="M150.3,35.6c-3.8,0-6.5-2-6.9-5.3h2.6c0.3,1.8,2.1,2.9,4.3,2.9c2.4,0,3.9-1.2,3.9-2.5c0-1.1-0.4-1.9-4.2-2.4
	c-3.8-0.5-6-1.4-6-4.4c0-2.2,1.9-4.6,6.1-4.6c3.6,0,6,1.8,6.3,4.8h-2.6c-0.4-1.6-1.8-2.5-3.7-2.5c-2,0-3.5,1-3.5,2.2
	c0,1.1,0.9,1.5,3.9,2c3.4,0.5,6.2,1.2,6.2,4.7C156.6,33.7,154,35.6,150.3,35.6z"/>
<path class="st0" d="M173.7,35.2h-2.5v-9.4c0-2.4-1.3-4.1-3.8-4.1c-2.3,0-4,1.7-4,4v9.4h-2.6V12.9h2.6v8.4c1-1.2,2.6-1.9,4.4-1.9
	c3.8,0,5.9,2.7,5.9,6.5V35.2z"/>
<path class="st0" d="M193.4,27.5c0,4.4-3.4,8-7.8,8c-4.4,0-7.8-3.6-7.8-8c0-4.5,3.4-8.2,7.8-8.2C190,19.4,193.4,23,193.4,27.5z
	 M190.8,27.5c0-3.2-2.3-5.8-5.2-5.8c-2.8,0-5.2,2.6-5.2,5.8c0,3.2,2.3,5.7,5.2,5.7C188.5,33.2,190.8,30.7,190.8,27.5z"/>
<path class="st0" d="M205.5,35.6c-2.2,0-4.1-1.2-5.2-2.7v9.2h-2.6V19.8h2.5v2.5c1.1-1.6,3.1-2.9,5.3-2.9c4.4,0,7.7,3.6,7.7,8.1
	C213.2,32,209.9,35.6,205.5,35.6z M205.5,21.7c-2.8,0-5.2,2.6-5.2,5.7c0,3.2,2.4,5.8,5.2,5.8c2.9,0,5.2-2.6,5.2-5.8
	C210.6,24.3,208.3,21.7,205.5,21.7z"/>
<path class="st1" d="M44,49H6c-2.8,0-5-2.2-5-5V6c0-2.8,2.2-5,5-5h38c2.8,0,5,2.2,5,5v38C49,46.8,46.8,49,44,49z"/>
<g>
	<path class="st2" d="M25,17.1c-4.3,0-7.9,3.5-7.9,7.9s3.5,7.9,7.9,7.9c4.3,0,7.9-3.5,7.9-7.9S29.3,17.1,25,17.1z M25,31.5
		c-3.6,0-6.5-2.9-6.5-6.5c0-3.6,2.9-6.5,6.5-6.5c3.6,0,6.5,2.9,6.5,6.5C31.5,28.6,28.6,31.5,25,31.5z"/>
	<path class="st2" d="M41.2,18.3L41.2,18.3c0-2.6-1-4.9-2.7-6.7c-1.8-1.8-4.1-2.7-6.6-2.7l-0.1,0C29.9,7,27.5,6,25,6
		c-2.5,0-4.9,1-6.7,2.8l0,0c-2.6,0-4.9,1-6.7,2.7c-1.8,1.8-2.8,4.2-2.7,6.7l0,0C7,20.1,6,22.5,6,25c0,2.5,1,4.9,2.8,6.7l0,0
		c0,2.5,1,4.9,2.7,6.7c1.8,1.8,4.1,2.7,6.6,2.7l0.1,0C20.1,43,22.5,44,25,44h0c2.5,0,4.9-1,6.7-2.8l0,0c2.6,0,5-1,6.7-2.7
		c1.8-1.8,2.8-4.2,2.7-6.7l0,0C43,29.9,44,27.5,44,25C44,22.5,43,20.1,41.2,18.3z M40.2,30.8l-0.4,0.4l0,0.5c0,2.2-0.8,4.2-2.4,5.8
		c-1.5,1.5-3.6,2.4-5.8,2.4l-0.5,0l-0.4,0.4c-1.5,1.6-3.6,2.4-5.8,2.4h0c-2.2,0-4.2-0.9-5.8-2.5l-0.4-0.3h-0.5
		c-2.2,0-4.2-0.8-5.7-2.4c-1.5-1.5-2.4-3.6-2.4-5.8l0-0.5l-0.4-0.4c-1.6-1.5-2.4-3.6-2.4-5.8c0-2.2,0.9-4.2,2.4-5.8l0.4-0.4l0-0.5
		c0-2.2,0.8-4.2,2.4-5.8c1.5-1.5,3.6-2.4,5.8-2.4l0.5,0l0.4-0.4c1.5-1.6,3.6-2.4,5.8-2.4c2.2,0,4.2,0.9,5.8,2.5l0.4,0.3h0.5
		c2.2,0,4.2,0.8,5.7,2.4c1.5,1.5,2.4,3.6,2.4,5.8l0,0.5l0.4,0.4c1.6,1.5,2.4,3.6,2.4,5.8C42.6,27.2,41.8,29.2,40.2,30.8z"/>
	<path class="st2" d="M17.5,11.3l-2.2,1.1c-0.7,0.3-1.3,0.7-1.7,1.2c-0.5,0.5-0.9,1.1-1.2,1.7l-1.1,2.2l2.4-0.5
		c0.6-0.1,1.2-0.2,1.8-0.2h1.3v-1.3c0-0.6,0.1-1.2,0.2-1.8L17.5,11.3z M16,13.5c-0.1,0.7-0.2,1.3-0.2,2v0.3h-0.3
		c-0.7,0-1.3,0.1-2,0.2l-0.2,0l0-0.2c0.3-0.6,0.6-1.1,1-1.5c0.4-0.4,0.9-0.7,1.5-1l0.2-0.1L16,13.5L16,13.5z"/>
	<path class="st2" d="M25.3,15.5l1,0.1c1.6,0.2,3.1,0.9,4.4,1.8l0.8,0.6v-2.6c0-0.9-0.2-1.8-0.6-2.7l-0.4-1l-1,0.4
		c-1,0.4-1.9,1-2.7,1.7L25.3,15.5z M27.6,14.6c0.7-0.6,1.4-1.1,2.3-1.5l0.1,0l0.1,0.1c0.3,0.7,0.5,1.5,0.5,2.2V16l-0.1-0.1
		c-0.9-0.5-1.8-0.9-2.8-1.1l-0.2,0L27.6,14.6z"/>
	<path class="st2" d="M37.6,15.4c-0.3-0.7-0.7-1.3-1.2-1.7c-0.5-0.5-1-0.9-1.7-1.2l-2.2-1.1l0.5,2.4c0.1,0.6,0.2,1.2,0.2,1.8v1.3
		h1.3c0.6,0,1.2,0.1,1.8,0.2l2.4,0.5L37.6,15.4z M36.6,16L36.6,16c-0.7-0.2-1.4-0.2-2-0.2h-0.3v-0.3c0-0.7-0.1-1.3-0.2-2l0-0.2
		l0.2,0c0.6,0.3,1.1,0.6,1.5,1c0.4,0.4,0.7,0.9,1,1.5l0.1,0.2H36.6z"/>
	<path class="st2" d="M38.2,19.6l-1-0.5c-1-0.5-2.1-0.7-3.2-0.7h-2.2l0.6,0.8c1,1.3,1.6,2.8,1.8,4.4l0.1,1l1.8-1.8
		c0.6-0.6,1.1-1.4,1.5-2.3L38.2,19.6z M36.9,20.2c-0.3,0.8-0.7,1.4-1.3,2l-0.4,0.4l0-0.2c-0.2-1-0.6-1.9-1.1-2.8L34,19.5l0.2,0
		c0.9,0,1.8,0.2,2.7,0.6L36.9,20.2L36.9,20.2z"/>
	<path class="st2" d="M24.7,15.5l-1.8-1.8c-0.7-0.6-1.4-1.1-2.3-1.5l-1-0.4l-0.5,1c-0.5,1-0.7,2.1-0.7,3.2v2.2l0.8-0.6
		c1.3-1,2.8-1.6,4.4-1.8L24.7,15.5z M22.4,14.8c-1,0.2-1.9,0.6-2.8,1.1L19.5,16l0-0.2c0-0.9,0.2-1.8,0.6-2.7l0-0.1l0.1,0
		c0.7,0.3,1.4,0.7,1.9,1.2l0.4,0.4L22.4,14.8z"/>
	<path class="st2" d="M29.4,10.1l-2.3-0.8c-1.5-0.5-2.7-0.5-4.2,0l-2.3,0.8l2,1.3c0.5,0.3,1,0.7,1.4,1.1l0.9,0.9l0.9-0.9
		c0.4-0.4,0.9-0.8,1.4-1.1L29.4,10.1z M26.8,10.5c-0.6,0.4-1.2,0.8-1.6,1.3L25,12l-0.2-0.2c-0.5-0.5-1-0.9-1.6-1.3l-0.2-0.1l0.1-0.1
		c1.4-0.5,2.3-0.5,3.6,0l0.2,0.1L26.8,10.5z"/>
	<path class="st2" d="M27.3,38.6c-0.5-0.3-1-0.7-1.4-1.1L25,36.6l-0.9,0.9c-0.4,0.4-0.9,0.8-1.4,1.1l-2,1.3l2.3,0.8
		c1.5,0.5,2.7,0.5,4.2,0l2.3-0.8L27.3,38.6z M26.8,39.7C26.1,39.9,25.6,40,25,40c-0.6,0-1.1-0.1-1.8-0.3l-0.2-0.1l0.1-0.1
		c0.6-0.4,1.1-0.8,1.6-1.3L25,38l0.2,0.2c0.5,0.5,1,0.9,1.6,1.3l0.2,0.1L26.8,39.7z"/>
	<path class="st2" d="M37.8,29.5c-0.4-1-1-1.9-1.7-2.7l-1.5-1.5l-0.1,1c-0.2,1.6-0.9,3.1-1.8,4.4l-0.6,0.8l2.6,0
		c0.9,0,1.8-0.2,2.7-0.6l1-0.4L37.8,29.5z M36.8,30c-0.7,0.3-1.5,0.5-2.3,0.5H34l0.1-0.1c0.5-0.9,0.9-1.8,1.1-2.8l0-0.2l0.1,0.1
		c0.6,0.7,1.1,1.4,1.5,2.3L36.8,30L36.8,30z"/>
	<path class="st2" d="M37.6,34.6l1.1-2.2L36.3,33c-0.6,0.1-1.2,0.2-1.8,0.2h-1.3v1.3c0,0.6-0.1,1.2-0.2,1.8l-0.5,2.4l2.2-1.1
		c0.7-0.3,1.3-0.7,1.7-1.2C36.9,35.9,37.3,35.3,37.6,34.6z M34.2,36.6L34,36.7l0-0.2c0.2-0.7,0.2-1.4,0.2-2v-0.3h0.3
		c0.7,0,1.3-0.1,2-0.2l0.2,0l0,0.2c-0.3,0.6-0.6,1.1-1,1.5C35.2,36,34.8,36.4,34.2,36.6z"/>
	<path class="st2" d="M41.1,25c0-0.7-0.1-1.4-0.4-2.1l-0.8-2.3l-1.3,2c-0.3,0.5-0.7,1-1.1,1.4L36.6,25l0.9,1
		c0.4,0.4,0.8,0.9,1.1,1.4l1.3,2l0.8-2.3C41,26.4,41.1,25.7,41.1,25z M39.7,26.8l-0.1,0.2l-0.1-0.1c-0.4-0.6-0.8-1.2-1.3-1.6L38,25
		l0.2-0.2c0.5-0.5,0.9-1,1.3-1.6l0.1-0.2l0.1,0.2c0.2,0.6,0.3,1.2,0.3,1.8C40,25.6,39.9,26.1,39.7,26.8z"/>
	<path class="st2" d="M17.4,19.3l0.6-0.8l-2.6,0c-0.9,0-1.8,0.2-2.7,0.6l-1,0.4l0.4,1c0.4,1,1,1.9,1.7,2.7l1.5,1.5l0.1-1
		C15.8,22.1,16.5,20.6,17.4,19.3z M14.8,22.4l0,0.2l-0.1-0.1c-0.6-0.7-1.1-1.4-1.5-2.3l0-0.1l0.1-0.1c0.7-0.3,1.5-0.5,2.3-0.5H16
		l-0.1,0.1C15.4,20.5,15,21.4,14.8,22.4z"/>
	<path class="st2" d="M13.4,25l-0.9-0.9c-0.4-0.4-0.8-0.9-1.1-1.4l-1.3-2l-0.8,2.3C9,23.6,8.9,24.3,8.9,25c0,0.7,0.1,1.4,0.4,2.1
		l0.8,2.3l1.3-2c0.3-0.5,0.7-1,1.1-1.4L13.4,25z M11.7,25.2c-0.5,0.5-0.9,1-1.3,1.6l-0.1,0.2l-0.1-0.1C10.1,26.1,10,25.6,10,25
		c0-0.6,0.1-1.1,0.3-1.8l0.1-0.2l0.1,0.2c0.4,0.6,0.8,1.1,1.3,1.6L12,25L11.7,25.2z"/>
	<path class="st2" d="M31.6,34.1v-2.2l-0.8,0.6c-1.3,1-2.8,1.6-4.4,1.8l-1,0.1l1.8,1.8c0.7,0.6,1.4,1.1,2.3,1.5l1,0.4l0.5-1
		C31.3,36.2,31.6,35.2,31.6,34.1z M30.5,34.1c0,0.9-0.2,1.8-0.6,2.7l0,0.1l-0.1,0c-0.8-0.3-1.4-0.7-2-1.3l-0.4-0.4l0.2,0
		c1-0.2,1.9-0.6,2.8-1.1l0.1-0.1L30.5,34.1z"/>
	<path class="st2" d="M13.6,36.4c0.5,0.5,1.1,0.9,1.7,1.2l2.2,1.1L17,36.3c-0.1-0.6-0.2-1.2-0.2-1.8v-1.3h-1.3
		c-0.6,0-1.2-0.1-1.8-0.2l-2.4-0.5l1.1,2.2C12.8,35.3,13.2,35.9,13.6,36.4z M13.4,34c0.7,0.2,1.4,0.2,2,0.2h0.3v0.3
		c0,0.7,0.1,1.3,0.2,2l0,0.2l-0.2-0.1c-0.6-0.3-1.1-0.6-1.5-1c-0.4-0.4-0.7-0.9-1-1.5L13.3,34L13.4,34z"/>
	<path class="st2" d="M24.7,34.5l-1-0.1c-1.6-0.2-3.1-0.9-4.4-1.8l-0.8-0.6l0,2.6c0,0.9,0.2,1.8,0.6,2.7l0.4,1l1-0.4
		c1-0.4,1.9-1,2.7-1.7L24.7,34.5z M22.4,35.4c-0.7,0.6-1.4,1.1-2.3,1.5l-0.1,0L20,36.8c-0.3-0.7-0.5-1.5-0.5-2.3V34l0.1,0.1
		c0.9,0.5,1.8,0.9,2.8,1.1l0.2,0L22.4,35.4z"/>
	<path class="st2" d="M11.8,30.4l1,0.5c1,0.5,2.1,0.7,3.1,0.7h2.2l-0.6-0.8c-1-1.3-1.6-2.8-1.8-4.4l-0.1-1l-1.8,1.8
		c-0.6,0.7-1.1,1.4-1.5,2.3L11.8,30.4z M13.1,29.8c0.3-0.8,0.7-1.4,1.3-2l0.4-0.4l0,0.2c0.2,1,0.6,1.9,1.1,2.8l0.1,0.1l-0.2,0
		c-0.9,0-1.8-0.2-2.7-0.6L13.1,29.8L13.1,29.8z"/>
</g>
</svg>
