<svg id="Layer_1" data-name="Layer 1" xmlns="http://www.w3.org/2000/svg" viewBox="0 0 189.97501 50"><defs><style>.cls-1{fill:#fff;}.cls-2{stroke:#000;stroke-miterlimit:10;stroke-width:0.75px;}</style></defs><title>logo_dark</title><path d="M7,0H43a6.95692,6.95692,0,0,1,7,7V43a6.95692,6.95692,0,0,1-7,7H7a6.95692,6.95692,0,0,1-7-7V7A6.95692,6.95692,0,0,1,7,0Z"/><path class="cls-1" d="M25,17.7A7.3,7.3,0,1,0,32.3,25,7.34095,7.34095,0,0,0,25,17.7ZM25,31a6,6,0,1,1,6-6A6.01764,6.01764,0,0,1,25,31Z"/><path class="cls-1" d="M25,7.5a8.31742,8.31742,0,0,0-6.1,2.6h-.1a8.70625,8.70625,0,0,0-8.7,8.7h0A9.1433,9.1433,0,0,0,7.5,25a9.1433,9.1433,0,0,0,2.6,6.2h0a8.70625,8.70625,0,0,0,8.7,8.7h.1A8.31742,8.31742,0,0,0,25,42.5h0a8.54005,8.54005,0,0,0,6.2-2.6h0a9.04036,9.04036,0,0,0,6.2-2.5,8.07584,8.07584,0,0,0,2.5-6.2h0A8.69181,8.69181,0,0,0,40,18.9l-.1-.1h0a8.07584,8.07584,0,0,0-2.5-6.2,8.62452,8.62452,0,0,0-6.1-2.5h-.1A8.54005,8.54005,0,0,0,25,7.5Zm-5.6,3.9.3-.4A7.49254,7.49254,0,0,1,25,8.8a7.41245,7.41245,0,0,1,5.4,2.3l.4.3h.4a7.40043,7.40043,0,0,1,5.3,2.1,7.72736,7.72736,0,0,1,2.2,5.4v.4l.3.4A7.27756,7.27756,0,0,1,39.3,30l-.3.3-.3.3v.5a7.72736,7.72736,0,0,1-2.2,5.4,7.40043,7.40043,0,0,1-5.3,2.1h-.5l-.4.4A7.49254,7.49254,0,0,1,25,41.2h0a7.41245,7.41245,0,0,1-5.4-2.3l-.3-.3h-.5a7.34073,7.34073,0,0,1-7.4-7.2v-.7l-.4-.4a7.545,7.545,0,0,1,0-10.6l.4-.3v-.5a6.955,6.955,0,0,1,2.2-5.4,7.40043,7.40043,0,0,1,5.3-2.1Z"/><path class="cls-1" d="M18.2,12.4l-2,1a5.71516,5.71516,0,0,0-1.6,1.1,6.10051,6.10051,0,0,0-1.2,1.6l-.9,2,2.1-.4a4.95375,4.95375,0,0,1,1.7-.2h1.2V16.2a8.75243,8.75243,0,0,1,.2-1.6Zm-3.9,4.3h0a4.50757,4.50757,0,0,1,1-1.4,3.04509,3.04509,0,0,1,1.3-.9h.1a11.019,11.019,0,0,0-.2,1.8v.3h-.2l-2,.2Z"/><path class="cls-1" d="M30.1,12.9l-.9.3a8.21384,8.21384,0,0,0-2.5,1.6l-1.4,1.4h.9A8.91877,8.91877,0,0,1,30.3,18l.8.6V16.2a5.025,5.025,0,0,0-.6-2.4Zm0,3.8H30a8.48581,8.48581,0,0,0-2.6-1.1h0a5.95667,5.95667,0,0,1,2.1-1.4h.2a4.47709,4.47709,0,0,1,.4,2Z"/><path class="cls-1" d="M31.9,12.4l.5,2.2a8.75243,8.75243,0,0,1,.2,1.6v1.3h1.2a4.4037,4.4037,0,0,1,1.6.2l2.2.4-1-2a9.06224,9.06224,0,0,0-1.1-1.6,9.06253,9.06253,0,0,0-1.6-1.1Zm1.6,4.1v-.3a5.53712,5.53712,0,0,0-.2-1.8v-.2h.1a4.19454,4.19454,0,0,1,1.4.9,4.50757,4.50757,0,0,1,1,1.4h-.2l-1.8-.2Z"/><path class="cls-1" d="M33.4,19h-2l.6.7a8.76583,8.76583,0,0,1,1.7,4.1v1l1.7-1.7A6.22788,6.22788,0,0,0,36.9,21l.3-1-.9-.4A7.17319,7.17319,0,0,0,33.4,19Zm1.1,3.7h0a11.17593,11.17593,0,0,0-1.1-2.5V20h.2a5.025,5.025,0,0,1,2.4.6h.1a5.67462,5.67462,0,0,1-1.2,1.8l-.3.3Z"/><path class="cls-1" d="M20.1,12.8l-.5.9a7.17319,7.17319,0,0,0-.6,2.9v2l.8-.6a8.41076,8.41076,0,0,1,4-1.7h1l-1.7-1.8A5.71015,5.71015,0,0,0,21,13.2ZM20,16.7h0a6.96285,6.96285,0,0,1,.5-2.5h.1a4.18468,4.18468,0,0,1,1.8,1.1l.4.4h-.2a13.88681,13.88681,0,0,0-2.6,1Z"/><path class="cls-1" d="M25,10.2l-1.9.3-2.1.8,1.9,1.1a6.8853,6.8853,0,0,1,1.3,1.1l.8.8.9-.8,1.3-1.1,1.9-1.2L27,10.5A6.44772,6.44772,0,0,0,25,10.2ZM25,13v-.2l-1.5-1.2h0a2.93438,2.93438,0,0,1,1.6-.4,4.67118,4.67118,0,0,1,1.7.3h0l-1.5,1.2-.2.2Z"/><path class="cls-1" d="M25,35.7l-.8.8-1.3,1.1L21,38.8l2.1.7,1.9.3a6.44772,6.44772,0,0,0,2-.3l2.1-.8-1.9-1.1-1.3-1.1Zm0,3.1-1.6-.2h0l1.4-1.2.2-.2.2.2,1.5,1.2h0a3.21,3.21,0,0,1-1.7.2Z"/><path class="cls-1" d="M33.8,25.3v.9a8.76583,8.76583,0,0,1-1.7,4.1l-.6.7h2.4a5.33794,5.33794,0,0,0,2.5-.5l.9-.4-.4-.9a5.98253,5.98253,0,0,0-1.6-2.5l-1.5-1.4Zm-.5,4.8h0a6.59636,6.59636,0,0,0,1.1-2.6h.2a5.71015,5.71015,0,0,1,1.3,2.1h0a5.3742,5.3742,0,0,1-2.1.5Z"/><path class="cls-1" d="M37.6,31.9l-2.2.4a4.4037,4.4037,0,0,1-1.6.2H32.6v1.3a8.75243,8.75243,0,0,1-.2,1.6l-.5,2.2,2-1a9.06224,9.06224,0,0,0,1.6-1.1,5.71491,5.71491,0,0,0,1.1-1.6Zm-4.3,3.9h0a6.15383,6.15383,0,0,0,.2-1.9v-.3h.3l1.8-.2h.2a4.50757,4.50757,0,0,1-1,1.4,3.04509,3.04509,0,0,1-1.3.9Z"/><path class="cls-1" d="M38.8,21l-1.2,1.8a6.42,6.42,0,0,1-1,1.3l-.9.9.9.9a6.42,6.42,0,0,1,1,1.3L38.8,29l.7-2.1a6.16652,6.16652,0,0,0,0-3.8Zm-.3,5.8h0a6.39043,6.39043,0,0,0-1.3-1.5v-.4a5.26258,5.26258,0,0,0,1.2-1.4h0a5.30066,5.30066,0,0,1,.1,3.3l-.1.1Z"/><path class="cls-1" d="M18.7,19H16.3a5.33794,5.33794,0,0,0-2.5.5l-.9.4.3.9a8.21384,8.21384,0,0,0,1.6,2.5l1.4,1.4.2-.9a8.76583,8.76583,0,0,1,1.7-4.1Zm-3.1,3.7h-.1a6.35558,6.35558,0,0,1-1.4-2.2h.1a5.3742,5.3742,0,0,1,2.1-.5h.5v.2a7.956,7.956,0,0,0-1.1,2.5Z"/><path class="cls-1" d="M11.3,21l-.7,2.1a5.00083,5.00083,0,0,0,0,3.8l.7,2.1,1.2-1.8a6.42,6.42,0,0,1,1-1.3l.9-.9-.9-.9a6.42,6.42,0,0,1-1-1.3Zm.3,5.8h-.1a4.67118,4.67118,0,0,1-.3-1.7,4.52922,4.52922,0,0,1,.3-1.6v-.2l.2.2a7.55132,7.55132,0,0,0,1.1,1.4l.2.2-.2.2a7.55132,7.55132,0,0,0-1.1,1.4v.2Z"/><path class="cls-1" d="M31.1,31.4l-.8.6a8.76583,8.76583,0,0,1-4.1,1.7h-.9L27,35.4a5.95667,5.95667,0,0,0,2.1,1.4l.9.4.4-.9a5.918,5.918,0,0,0,.7-2.9ZM29.5,36h-.1a4.18468,4.18468,0,0,1-1.8-1.1l-.3-.4h.1A8.48581,8.48581,0,0,0,30,33.4h.1a6.96285,6.96285,0,0,1-.5,2.5Z"/><path class="cls-1" d="M12.4,31.9l1,2a6.10051,6.10051,0,0,0,1.2,1.6,5.71516,5.71516,0,0,0,1.6,1.1l2,1-.5-2.2a8.75243,8.75243,0,0,1-.2-1.6V32.5H16.3a4.95375,4.95375,0,0,1-1.7-.2Zm4.4,3.9h-.2a4.19454,4.19454,0,0,1-1.4-.9c-.3-.4-.6-.9-.9-1.4h.1l1.9.2h.2V34a5.66253,5.66253,0,0,0,.3,1.8l-.1.2Z"/><path class="cls-1" d="M19,31.4v2.4a6.87387,6.87387,0,0,0,.5,2.4l.4.9,1-.3a8.21384,8.21384,0,0,0,2.5-1.6l1.4-1.4h-1a8.41076,8.41076,0,0,1-4-1.7l-.8-.6Zm1.5,4.5h-.1a5.22237,5.22237,0,0,1-.4-2.1v-.5h.1a7.956,7.956,0,0,0,2.5,1.1h.1a8.55413,8.55413,0,0,1-2.2,1.5Z"/><path class="cls-1" d="M16.2,25.2l-1.6,1.7A5.95667,5.95667,0,0,0,13.2,29l-.4,1,1,.4a7.17319,7.17319,0,0,0,2.9.6h1.9l-.5-.7a8.76583,8.76583,0,0,1-1.7-4.1Zm.6,4.9h-.2a5.025,5.025,0,0,1-2.4-.6h-.1a4.18468,4.18468,0,0,1,1.1-1.8l.4-.3h0a11.17593,11.17593,0,0,0,1.1,2.5v.2Z"/><path class="cls-2" d="M68.3,33.6V16.7h4.9a6.02264,6.02264,0,0,1,4.1,1.2,3.85147,3.85147,0,0,1,1.5,3.3,3.891,3.891,0,0,1-.7,2.3,3.895,3.895,0,0,1-2,1.3,4.80464,4.80464,0,0,1,2.5,1.4,4.38772,4.38772,0,0,1,.9,2.7,4.268,4.268,0,0,1-1.4,3.5,5.91454,5.91454,0,0,1-4,1.2Zm1.4-9.3h3.9a4.01923,4.01923,0,0,0,2.8-.8,2.799,2.799,0,0,0,1-2.4,3.1017,3.1017,0,0,0-1-2.4,6.09424,6.09424,0,0,0-3.2-.8H69.7Zm0,1.2v7h4.4a4.53343,4.53343,0,0,0,3-1,2.98926,2.98926,0,0,0,1-2.5,3.84049,3.84049,0,0,0-.9-2.5,3.74315,3.74315,0,0,0-2.8-1Z"/><path class="cls-2" d="M139.8,30.4a1.79921,1.79921,0,0,0-.7-1.5,8.48587,8.48587,0,0,0-2.6-1.1,7.8879,7.8879,0,0,1-3.3-1.3,2.42244,2.42244,0,0,1-1.1-2.2,3.03388,3.03388,0,0,1,1.2-2.5,6.2786,6.2786,0,0,1,6.6.1,3.2249,3.2249,0,0,1,1.2,2.6h-1.4a2.34175,2.34175,0,0,0-.8-1.8,4.06878,4.06878,0,0,0-2.4-.8,3.891,3.891,0,0,0-2.3.7,1.94574,1.94574,0,0,0-.1,2.9,5.2384,5.2384,0,0,0,2.6,1,10.38888,10.38888,0,0,1,3.4,1.5,3.19434,3.19434,0,0,1,1.1,2.4,3.12708,3.12708,0,0,1-1.3,2.5,4.80765,4.80765,0,0,1-3.3,1,5.15814,5.15814,0,0,1-3.6-1.1,3.31683,3.31683,0,0,1-1.3-2.6H133a2.40075,2.40075,0,0,0,1.2,2,5.02488,5.02488,0,0,0,2.4.6,3.41473,3.41473,0,0,0,2.4-.7A1.88024,1.88024,0,0,0,139.8,30.4Z"/><path class="cls-2" d="M89.6,20.9a6.5,6.5,0,1,0,6.5,6.5A6.487,6.487,0,0,0,89.6,20.9Zm0,11.8a5.3,5.3,0,1,1,5.3-5.3,5.3351,5.3351,0,0,1-5.3,5.3Z"/><path class="cls-2" d="M109.8,21.1h-1.4v8.2a3.4,3.4,0,1,1-6.8,0V21.1h-1.4v8a4.7386,4.7386,0,0,0,4.8,4.8h0a4.762,4.762,0,0,0,3.4-1.4v1.1h1.4Z"/><path class="cls-2" d="M125.9,23.6a6.50005,6.50005,0,1,0,0,7.6v7.3h1.4V21.1h-1.4Zm-5.3,9.1a5.3,5.3,0,1,1,0-10.6h0a5.3,5.3,0,1,1,0,10.6Z"/><path class="cls-2" d="M177.8,21.1h-1.4V38.5h1.4V31.2a6.50005,6.50005,0,1,0,0-7.6Zm0,6.3a5.3,5.3,0,1,1,5.3,5.3,5.3351,5.3351,0,0,1-5.3-5.3Z"/><path class="cls-2" d="M165.8,20.9a6.5,6.5,0,1,0,6.5,6.5A6.487,6.487,0,0,0,165.8,20.9Zm0,11.8a5.3,5.3,0,1,1,5.3-5.3,5.33511,5.33511,0,0,1-5.3,5.3Z"/><path class="cls-2" d="M155.2,33.6h-1.4V25.4a3.4,3.4,0,1,0-6.8,0v8.2h-1.4V15.5H147v6.8a4.8,4.8,0,0,1,8.2,3.4v7.9Z"/></svg>