<?xml version="1.0" encoding="utf-8"?>
<!-- Generator: Adobe Illustrator 22.0.1, SVG Export Plug-In . SVG Version: 6.00 Build 0)  -->
<svg version="1.1" id="Layer_1" xmlns="http://www.w3.org/2000/svg" xmlns:xlink="http://www.w3.org/1999/xlink" x="0px" y="0px"
	 viewBox="0 0 215 50" style="enable-background:new 0 0 215 50;" xml:space="preserve">
<style type="text/css">
	.st0{fill:#333333;}
</style>
<g>
	<path class="st0" d="M25.9,15.1c-5.5,0-9.9,4.5-9.9,9.9s4.5,9.9,9.9,9.9c5.5,0,9.9-4.5,9.9-9.9S31.4,15.1,25.9,15.1z M25.9,33.2
		c-4.5,0-8.2-3.7-8.2-8.2c0-4.5,3.7-8.2,8.2-8.2c4.5,0,8.2,3.7,8.2,8.2C34.1,29.5,30.4,33.2,25.9,33.2z"/>
	<path class="st0" d="M46.3,16.5L46.3,16.5c0-3.2-1.2-6.2-3.5-8.5c-2.2-2.2-5.2-3.5-8.4-3.5l-0.1,0C32.1,2.3,29.1,1,25.9,1
		c-3.2,0-6.2,1.3-8.5,3.6l0,0c-3.2,0-6.2,1.2-8.5,3.5c-2.3,2.3-3.5,5.3-3.5,8.5l0,0c-2.3,2.3-3.6,5.3-3.6,8.5c0,3.2,1.3,6.2,3.6,8.5
		l0,0c0,3.2,1.2,6.2,3.5,8.5c2.2,2.2,5.2,3.5,8.4,3.5l0.1,0c2.3,2.3,5.3,3.6,8.5,3.6h0c3.2,0,6.2-1.3,8.5-3.6l0,0
		c3.2,0,6.3-1.2,8.5-3.5c2.3-2.3,3.5-5.3,3.5-8.5l0,0c2.3-2.3,3.6-5.3,3.6-8.5C49.9,21.8,48.6,18.8,46.3,16.5z M45.1,32.3l-0.5,0.5
		l0,0.7c0,2.8-1,5.4-3,7.3c-1.9,1.9-4.5,3-7.3,3l-0.7,0l-0.5,0.5c-1.9,2-4.5,3.1-7.3,3.1h0c-2.8,0-5.3-1.1-7.4-3.2l-0.5-0.4h-0.6
		c-2.7,0-5.3-1.1-7.2-3c-1.9-1.9-3-4.5-3-7.3l0-0.7l-0.5-0.5c-2-1.9-3.1-4.5-3.1-7.3c0-2.8,1.1-5.3,3.1-7.3l0.5-0.5l0-0.7
		c0-2.8,1-5.4,3-7.3c1.9-1.9,4.5-3,7.3-3l0.7,0l0.5-0.5c1.9-2,4.5-3.1,7.3-3.1c2.8,0,5.3,1.1,7.4,3.2l0.5,0.4h0.6
		c2.7,0,5.3,1.1,7.2,3c1.9,1.9,3,4.5,3,7.3l0,0.7l0.5,0.5c2,1.9,3.1,4.5,3.1,7.3C48.1,27.8,47,30.3,45.1,32.3z"/>
	<path class="st0" d="M16.4,7.7l-2.7,1.4c-0.9,0.4-1.6,0.9-2.2,1.5c-0.6,0.6-1.1,1.3-1.5,2.2l-1.3,2.7l3-0.7
		c0.8-0.2,1.5-0.3,2.2-0.3h1.7V13c0-0.7,0.1-1.5,0.3-2.2L16.4,7.7z M14.5,10.5c-0.2,0.9-0.3,1.7-0.3,2.5v0.4h-0.4
		c-0.8,0-1.7,0.1-2.5,0.3l-0.2,0.1l0.1-0.2c0.4-0.8,0.8-1.4,1.3-1.9c0.5-0.5,1.1-0.9,1.8-1.3l0.2-0.1L14.5,10.5L14.5,10.5z"/>
	<path class="st0" d="M26.2,12.9l1.3,0.2c2,0.3,3.9,1.1,5.6,2.3l1.1,0.8V13c0-1.2-0.2-2.3-0.7-3.4l-0.6-1.2l-1.3,0.5
		c-1.3,0.5-2.5,1.2-3.4,2.2L26.2,12.9z M29.1,11.9c0.8-0.8,1.8-1.4,2.9-1.8l0.1,0l0.1,0.1c0.4,0.9,0.6,1.9,0.6,2.8v0.7l-0.2-0.1
		c-1.1-0.6-2.3-1.1-3.5-1.5L29,12.1L29.1,11.9z"/>
	<path class="st0" d="M41.8,12.8c-0.4-0.9-0.9-1.6-1.5-2.2C39.6,10,38.9,9.5,38,9.1l-2.7-1.4l0.7,3c0.2,0.8,0.3,1.5,0.3,2.2v1.7h1.7
		c0.7,0,1.5,0.1,2.2,0.3l3,0.7L41.8,12.8z M40.5,13.6L40.5,13.6c-0.9-0.2-1.8-0.3-2.6-0.3h-0.4V13c0-0.8-0.1-1.7-0.3-2.5l-0.1-0.2
		l0.2,0c0.8,0.4,1.4,0.8,1.9,1.3c0.5,0.5,0.9,1.1,1.3,1.8l0.1,0.2H40.5z"/>
	<path class="st0" d="M42.6,18.2l-1.3-0.6c-1.3-0.6-2.6-0.9-4-0.9h-2.7l0.8,1.1c1.2,1.6,2,3.5,2.3,5.6l0.2,1.3l2.3-2.3
		c0.8-0.8,1.4-1.8,1.9-2.9L42.6,18.2z M40.9,19c-0.4,1-0.9,1.8-1.6,2.5l-0.5,0.5l-0.1-0.2c-0.3-1.2-0.8-2.4-1.4-3.5L37.2,18l0.2,0
		c1.2,0,2.3,0.3,3.4,0.7l0.1,0L40.9,19z"/>
	<path class="st0" d="M25.5,12.9l-2.3-2.3c-0.8-0.8-1.8-1.4-2.9-1.9L19,8.3l-0.6,1.2c-0.6,1.3-0.9,2.6-0.9,4v2.7l1.1-0.8
		c1.6-1.2,3.5-2,5.6-2.3L25.5,12.9z M22.6,12.1c-1.2,0.3-2.4,0.8-3.5,1.4l-0.2,0.1l0-0.2c0-1.2,0.3-2.3,0.8-3.4l0-0.1l0.1,0
		c0.9,0.4,1.8,0.9,2.4,1.6l0.5,0.5L22.6,12.1z"/>
	<path class="st0" d="M31.4,6.1l-2.9-1c-1.9-0.6-3.4-0.6-5.3,0l-2.9,1l2.6,1.6c0.7,0.4,1.2,0.9,1.8,1.4l1.2,1.2l1.2-1.2
		c0.5-0.5,1.1-1,1.8-1.4L31.4,6.1z M28.2,6.6c-0.8,0.5-1.5,1-2,1.6l-0.3,0.3l-0.3-0.3c-0.6-0.6-1.3-1.1-2-1.6l-0.2-0.1l0.2-0.1
		c1.7-0.6,2.9-0.6,4.5,0l0.2,0.1L28.2,6.6z"/>
	<path class="st0" d="M28.8,42.2c-0.7-0.4-1.2-0.9-1.8-1.4l-1.2-1.2l-1.2,1.2c-0.5,0.5-1.1,1-1.8,1.4l-2.6,1.6l2.9,1
		c1.9,0.6,3.5,0.6,5.3,0l2.9-1L28.8,42.2z M28.1,43.6c-0.8,0.3-1.6,0.4-2.3,0.4c-0.7,0-1.4-0.1-2.2-0.4l-0.2-0.1l0.2-0.1
		c0.8-0.5,1.5-1,2-1.6l0.3-0.3l0.3,0.3c0.6,0.6,1.3,1.1,2,1.6l0.2,0.1L28.1,43.6z"/>
	<path class="st0" d="M42,30.7c-0.5-1.3-1.2-2.5-2.2-3.4l-1.9-1.9l-0.2,1.3c-0.3,2-1.1,3.9-2.3,5.6l-0.8,1.1l3.3,0
		c1.2,0,2.3-0.2,3.4-0.7l1.3-0.6L42,30.7z M40.8,31.3c-0.9,0.4-1.9,0.6-2.9,0.6h-0.7l0.1-0.2c0.6-1.1,1.1-2.3,1.4-3.5l0.1-0.2
		l0.1,0.1c0.8,0.8,1.4,1.8,1.8,2.9L40.8,31.3L40.8,31.3z"/>
	<path class="st0" d="M41.8,37.2l1.4-2.7l-3,0.7c-0.8,0.2-1.5,0.3-2.2,0.3h-1.7V37c0,0.7-0.1,1.5-0.3,2.2l-0.7,3l2.7-1.4
		c0.9-0.4,1.6-0.9,2.2-1.5C40.8,38.7,41.3,38,41.8,37.2z M37.4,39.7l-0.2,0.1l0-0.2c0.2-0.9,0.3-1.8,0.3-2.6v-0.4h0.4
		c0.8,0,1.7-0.1,2.5-0.3l0.2-0.1l-0.1,0.2c-0.4,0.8-0.8,1.4-1.3,1.9C38.8,38.9,38.2,39.4,37.4,39.7z"/>
	<path class="st0" d="M46.2,25c0-0.9-0.2-1.7-0.5-2.6l-1-2.9L43.1,22c-0.4,0.7-0.9,1.2-1.4,1.8L40.5,25l1.2,1.2
		c0.5,0.5,1,1.1,1.4,1.8l1.6,2.6l1-2.9C46,26.7,46.2,25.9,46.2,25z M44.5,27.2l-0.1,0.2l-0.2-0.2c-0.5-0.8-1-1.5-1.6-2L42.4,25
		l0.3-0.3c0.6-0.6,1.1-1.3,1.6-2l0.1-0.2l0.1,0.2c0.3,0.8,0.4,1.5,0.4,2.2C44.9,25.7,44.7,26.4,44.5,27.2z"/>
	<path class="st0" d="M16.3,17.8l0.8-1.1l-3.3,0c-1.2,0-2.3,0.2-3.4,0.7L9.2,18l0.5,1.3c0.5,1.3,1.2,2.5,2.2,3.4l1.9,1.9l0.2-1.3
		C14.3,21.3,15.1,19.4,16.3,17.8z M13,21.7l-0.1,0.2l-0.1-0.1c-0.8-0.8-1.4-1.8-1.8-2.9l0-0.1l0.1-0.1c0.9-0.4,1.9-0.6,2.9-0.6h0.7
		l-0.1,0.2C13.8,19.3,13.3,20.5,13,21.7z"/>
	<path class="st0" d="M11.3,25l-1.2-1.2c-0.5-0.5-1-1.1-1.4-1.8L7,19.5l-1,2.9c-0.3,0.9-0.5,1.8-0.5,2.6c0,0.9,0.2,1.7,0.5,2.6
		l1,2.9L8.7,28c0.4-0.7,0.9-1.2,1.4-1.8L11.3,25z M9.1,25.3c-0.6,0.6-1.1,1.2-1.6,2l-0.1,0.2l-0.1-0.2C7,26.4,6.9,25.7,6.9,25
		c0-0.7,0.1-1.4,0.4-2.2l0.1-0.2l0.2,0.2c0.5,0.7,1,1.4,1.6,2L9.4,25L9.1,25.3z"/>
	<path class="st0" d="M34.2,36.5v-2.7l-1.1,0.8c-1.6,1.2-3.5,2-5.6,2.3l-1.3,0.2l2.3,2.3c0.8,0.8,1.8,1.4,2.9,1.9l1.3,0.5l0.6-1.2
		C33.9,39.2,34.2,37.9,34.2,36.5z M32.8,36.6c0,1.2-0.3,2.3-0.8,3.4l0,0.1l-0.1,0c-1-0.4-1.8-0.9-2.5-1.6L29,37.9l0.2,0
		c1.2-0.3,2.4-0.8,3.5-1.4l0.2-0.1L32.8,36.6z"/>
	<path class="st0" d="M11.5,39.4c0.6,0.6,1.3,1.1,2.2,1.5l2.7,1.3l-0.7-3c-0.2-0.8-0.3-1.5-0.3-2.2v-1.7h-1.7
		c-0.7,0-1.5-0.1-2.2-0.3l-3-0.7l1.4,2.8C10.4,38,10.9,38.8,11.5,39.4z M11.3,36.4c0.9,0.2,1.8,0.3,2.6,0.3h0.4V37
		c0,0.8,0.1,1.7,0.3,2.5l0.1,0.2l-0.3-0.1c-0.7-0.4-1.3-0.8-1.8-1.3c-0.5-0.5-0.9-1.1-1.3-1.8L11,36.3L11.3,36.4z"/>
	<path class="st0" d="M25.5,37.1l-1.3-0.2c-2-0.3-3.9-1.1-5.6-2.3l-1.1-0.8l0,3.3c0,1.2,0.2,2.3,0.7,3.4l0.6,1.2l1.3-0.5
		c1.3-0.5,2.5-1.2,3.4-2.2L25.5,37.1z M22.6,38.1c-0.8,0.8-1.8,1.4-2.9,1.8l-0.1,0l-0.1-0.1c-0.4-0.9-0.6-1.9-0.6-2.9v-0.7l0.2,0.1
		c1.1,0.6,2.3,1.1,3.5,1.4l0.2,0.1L22.6,38.1z"/>
	<path class="st0" d="M9.2,31.8l1.2,0.6c1.3,0.6,2.6,0.9,4,0.9h2.7l-0.8-1.1c-1.2-1.6-2-3.5-2.3-5.6l-0.2-1.3l-2.3,2.3
		c-0.8,0.8-1.5,1.8-1.9,2.9L9.2,31.8z M10.9,31c0.4-1,0.9-1.8,1.6-2.5l0.5-0.5l0.1,0.2c0.3,1.2,0.8,2.4,1.4,3.5l0.1,0.2l-0.2,0
		c-1.2,0-2.3-0.3-3.4-0.8l-0.1,0L10.9,31z"/>
</g>
<path d="M77.5,35.2h-9V14.4h9c3.7,0,6,2.2,6,5.6c0,1.6-0.8,3.3-2.6,4.2C83.1,25,84,27,84,29.1C84,32.6,81.5,35.2,77.5,35.2z
	 M71,23.1h6.5c1.6,0,3.3-0.8,3.3-3.1c0-2.2-1.4-3.1-3.4-3.1H71V23.1z M77.6,25.6H71v7.2c1.8,0,6.6,0,6.6,0c2.2,0,3.8-1.3,3.8-3.6
	C81.5,26.6,79.9,25.6,77.6,25.6z"/>
<path d="M102.9,27.5c0,4.4-3.4,8-7.8,8c-4.4,0-7.8-3.6-7.8-8c0-4.5,3.4-8.2,7.8-8.2C99.5,19.4,102.9,23,102.9,27.5z M100.3,27.5
	c0-3.2-2.3-5.8-5.2-5.8c-2.9,0-5.2,2.6-5.2,5.8c0,3.2,2.3,5.7,5.2,5.7C98,33.2,100.3,30.7,100.3,27.5z"/>
<path d="M119.8,35.2h-2.5v-1.7c-1,1.3-2.6,2-4.5,2c-3.8,0-5.9-2.7-5.9-6.5v-9.3h2.5v9.4c0,2.5,1.4,4.1,3.8,4.1c2.3,0,4-1.7,4-4v-9.5
	h2.5V35.2z"/>
<path d="M139.6,42.1H137v-9.2c-1.1,1.5-3,2.7-5.2,2.7c-4.4,0-7.7-3.6-7.7-8.1c0-4.4,3.3-8.1,7.7-8.1c2.3,0,4.3,1.3,5.3,2.9v-2.5h2.5
	V42.1z M131.8,21.7c-2.9,0-5.2,2.6-5.2,5.7c0,3.2,2.3,5.8,5.2,5.8c2.8,0,5.2-2.6,5.2-5.8C137,24.3,134.6,21.7,131.8,21.7z"/>
<path d="M150.3,35.6c-3.8,0-6.5-2-6.9-5.3h2.6c0.3,1.8,2.1,2.9,4.3,2.9c2.4,0,3.9-1.2,3.9-2.5c0-1.1-0.4-1.9-4.2-2.4
	c-3.8-0.5-6-1.4-6-4.4c0-2.2,1.9-4.6,6.1-4.6c3.6,0,6,1.8,6.3,4.8h-2.6c-0.4-1.6-1.8-2.5-3.7-2.5c-2,0-3.5,1-3.5,2.2
	c0,1.1,0.9,1.5,3.9,2c3.4,0.5,6.2,1.2,6.2,4.7C156.6,33.7,154,35.6,150.3,35.6z"/>
<path d="M173.7,35.2h-2.5v-9.4c0-2.4-1.3-4.1-3.8-4.1c-2.3,0-4,1.7-4,4v9.4h-2.6V12.9h2.6v8.4c1-1.2,2.6-1.9,4.4-1.9
	c3.8,0,5.9,2.7,5.9,6.5V35.2z"/>
<path d="M193.4,27.5c0,4.4-3.4,8-7.8,8c-4.4,0-7.8-3.6-7.8-8c0-4.5,3.4-8.2,7.8-8.2C190,19.4,193.4,23,193.4,27.5z M190.8,27.5
	c0-3.2-2.3-5.8-5.2-5.8c-2.8,0-5.2,2.6-5.2,5.8c0,3.2,2.3,5.7,5.2,5.7C188.5,33.2,190.8,30.7,190.8,27.5z"/>
<path d="M205.5,35.6c-2.2,0-4.1-1.2-5.2-2.7v9.2h-2.6V19.8h2.5v2.5c1.1-1.6,3.1-2.9,5.3-2.9c4.4,0,7.7,3.6,7.7,8.1
	C213.2,32,209.9,35.6,205.5,35.6z M205.5,21.7c-2.8,0-5.2,2.6-5.2,5.7c0,3.2,2.4,5.8,5.2,5.8c2.9,0,5.2-2.6,5.2-5.8
	C210.6,24.3,208.3,21.7,205.5,21.7z"/>
</svg>
