<svg id="Layer_1" data-name="Layer 1" xmlns="http://www.w3.org/2000/svg" width="99.2" height="99.2" viewBox="0 0 99.2 99.2">
  <defs>
    <style>
      .cls-1 {
        fill: #6dd0e3;
      }

      .cls-2 {
        fill: #ffa163;
      }

      .cls-3 {
        fill: #e88441;
      }

      .cls-4 {
        fill: #ffdc7b;
      }

      .cls-5 {
        fill: #f0ae59;
      }
    </style>
  </defs>
  <title>lotus</title>
  <ellipse class="cls-1" cx="49.6" cy="72.5" rx="31.8" ry="2.7"/>
  <g>
    <path class="cls-2" d="M47.9,56.1S44,38.2,28.6,30.7c0,0-4.8,18.7,2.5,26.3S47.9,56.1,47.9,56.1Z" transform="translate(0 -0.4)"/>
    <path class="cls-2" d="M51.4,56.1s3.9-18,19.2-25.4c0,0,4.8,18.7-2.5,26.3S51.4,56.1,51.4,56.1Z" transform="translate(0 -0.4)"/>
  </g>
  <g>
    <path class="cls-3" d="M57.1,56.1s3-13.9,14.2-22.3c-.3-1.9-.6-3.1-.6-3.1C55.3,38.2,51.4,56.1,51.4,56.1s6.2,5.5,12.4,3.6A18.5,18.5,0,0,1,57.1,56.1Z" transform="translate(0 -0.4)"/>
    <path class="cls-3" d="M35.2,57c-5.8-6-3.9-19.1-2.9-24.2a30.4,30.4,0,0,0-3.6-2.1S23.8,49.4,31.1,57a9.6,9.6,0,0,0,9.1,2.9A9.9,9.9,0,0,1,35.2,57Z" transform="translate(0 -0.4)"/>
  </g>
  <path class="cls-4" d="M49.6,69.8s-7.8-1.7-13.2-14.5S16.7,38.8,16.7,38.8s1.9,9.1,2.6,15.7C20.1,63.3,27.8,76.3,49.6,69.8Z" transform="translate(0 -0.4)"/>
  <path class="cls-5" d="M23.3,54.5c-.5-4.8-1.7-11.1-2.3-14a29.6,29.6,0,0,0-4.4-1.6s1.9,9.1,2.6,15.7,6.5,18.1,21.6,17C28.7,70.6,24,61.3,23.3,54.5Z" transform="translate(0 -0.4)"/>
  <path class="cls-4" d="M49.6,69.8s7.8-1.7,13.2-14.5S82.6,38.8,82.6,38.8,80.6,47.9,80,54.5C79.1,63.3,71.4,76.3,49.6,69.8Z" transform="translate(0 -0.4)"/>
  <path class="cls-5" d="M53.8,69.8S61.6,68.1,67,55.3c3.5-8.1,10.5-12.6,15.2-14.8l.4-1.7S68.3,42.6,62.8,55.3,49.6,69.8,49.6,69.8a35.7,35.7,0,0,0,12.8,1.6A40.8,40.8,0,0,1,53.8,69.8Z" transform="translate(0 -0.4)"/>
  <path class="cls-4" d="M61.5,57.2C59.4,70,49.6,69.8,49.6,69.8s-9.8.2-11.9-12.6S49.6,24.4,49.6,24.4,63.8,43.7,61.5,57.2Z" transform="translate(0 -0.4)"/>
  <path class="cls-5" d="M42,57.2c-1.7-10.1,5.9-23.5,9.7-29.6-1.3-2-2.2-3.2-2.2-3.2S35.5,43.7,37.7,57.2,49.6,69.8,49.6,69.8a9.2,9.2,0,0,0,2.2-.3C48.8,68.8,43.5,66.2,42,57.2Z" transform="translate(0 -0.4)"/>
  <path d="M82.2,37.3a35.3,35.3,0,0,0-8.6,3.8,59.2,59.2,0,0,0-1.6-10.9,1.5,1.5,0,0,0-2.1-1,33.6,33.6,0,0,0-10.9,8.5,87.4,87.4,0,0,0-8.2-14.3,1.5,1.5,0,0,0-2.5,0,88.4,88.4,0,0,0-6.9,11.6l-1.3,2.8a33.6,33.6,0,0,0-10.9-8.5,1.5,1.5,0,0,0-2.1,1s-.3,1.1-.6,2.8a1.5,1.5,0,0,0,3,.6V33a31.6,31.6,0,0,1,9.1,8,41.1,41.1,0,0,0-2.7,10.4,29.4,29.4,0,0,0-7.5-8.2c0-.6,0-1.1,0-1.7a1.5,1.5,0,0,0-3-.3A35.3,35.3,0,0,0,17,37.3a1.5,1.5,0,0,0-1.9,1.8c0,.1,1.9,9.1,2.6,15.5a20.6,20.6,0,0,0,8.5,14.9l-4.8.6c-2.8.4-5.2,1-5.2,2.8s2.3,2.3,5.1,2.8,5.9.7,10.2,1h.1a1.5,1.5,0,0,0,.1-3c-3.8-.2-6.4-.5-8.3-.7,2-.3,4.8-.5,8.6-.7a24.6,24.6,0,0,0,6.9.9,38.4,38.4,0,0,0,9.8-1.4h2a38.3,38.3,0,0,0,9.8,1.4,24.7,24.7,0,0,0,6.9-.9c3.8.2,6.5.5,8.5.7a233.6,233.6,0,0,1-26.3,1.2H39.7a1.5,1.5,0,1,0-.1,3h10c8.5,0,16.6-.3,22.6-.8a66,66,0,0,0,7-.9c1.4-.3,3.7-.7,3.7-2.5s-2.4-2.4-5.2-2.8l-4.8-.6a20.7,20.7,0,0,0,8.5-14.1,1.5,1.5,0,1,0-3-.4c-.4,2.6-2.3,11.3-11.7,14.2a24.8,24.8,0,0,1-11.2.5c4.3-2.5,6.2-6.7,7.1-10.4.6-1.1,1.1-2.2,1.6-3.3A25.6,25.6,0,0,1,73,45.2a35,35,0,0,1,7.5-4.1c-.3,1.6-.7,3.8-1.1,6a1.5,1.5,0,0,0,3,.5c.8-4.5,1.6-8.5,1.6-8.5a1.5,1.5,0,0,0-1.9-1.8ZM32.5,69.2c-7.8-2.4-11.2-9.2-11.8-14.8s-1.5-10-2.1-13.2a34.9,34.9,0,0,1,7.5,4.1A25.6,25.6,0,0,1,35,55.9c.5,1.2,1,2.3,1.6,3.3.9,3.7,2.8,7.9,7.1,10.4A24.8,24.8,0,0,1,32.5,69.2Zm17.1-.8h-.1A9.7,9.7,0,0,1,45.2,67c-3.2-1.8-5.2-5.2-6-10-1.7-10.4,7.1-24.9,10.4-29.9C52.9,32.1,61.7,46.6,60,57S50.1,68.3,49.7,68.3ZM63.1,51.5A41.9,41.9,0,0,0,60.4,41a31.6,31.6,0,0,1,9.1-8,55.7,55.7,0,0,1,1.1,10.2A29.4,29.4,0,0,0,63.1,51.5Z" transform="translate(0 -0.4)"/>
  <path d="M49.6,9.1a1.5,1.5,0,0,0,1.5-1.5V1.9a1.5,1.5,0,0,0-3,0V7.6A1.5,1.5,0,0,0,49.6,9.1Z" transform="translate(0 -0.4)"/>
  <path d="M49.6,90.9a1.5,1.5,0,0,0-1.5,1.5v5.7a1.5,1.5,0,0,0,3,0V92.4A1.5,1.5,0,0,0,49.6,90.9Z" transform="translate(0 -0.4)"/>
  <path d="M27.1,14a1.5,1.5,0,0,0,1.3.8l.8-.2a1.5,1.5,0,0,0,.6-2.1L26.9,7.6a1.5,1.5,0,1,0-2.6,1.5Z" transform="translate(0 -0.4)"/>
  <path d="M72.1,86a1.5,1.5,0,0,0-2.6,1.5l2.8,4.9a1.5,1.5,0,0,0,1.3.8l.8-.2a1.5,1.5,0,0,0,.6-2.1Z" transform="translate(0 -0.4)"/>
  <path d="M13.6,27.5,8.7,24.6a1.5,1.5,0,0,0-1.5,2.6l4.9,2.8.8.2a1.5,1.5,0,0,0,.8-2.8Z" transform="translate(0 -0.4)"/>
  <path d="M92,72.7l-4.9-2.8a1.5,1.5,0,1,0-1.5,2.6l4.9,2.8.8.2a1.5,1.5,0,0,0,.8-2.8Z" transform="translate(0 -0.4)"/>
  <path d="M8.7,50a1.5,1.5,0,0,0-1.5-1.5H1.5a1.5,1.5,0,0,0,0,3H7.2A1.5,1.5,0,0,0,8.7,50Z" transform="translate(0 -0.4)"/>
  <path d="M97.7,48.5H92a1.5,1.5,0,1,0,0,3h5.7a1.5,1.5,0,1,0,0-3Z" transform="translate(0 -0.4)"/>
  <path d="M12.1,69.9,7.2,72.7A1.5,1.5,0,0,0,8,75.6l.8-.2,4.9-2.8a1.5,1.5,0,0,0-1.5-2.6Z" transform="translate(0 -0.4)"/>
  <path d="M86.4,30.3l.8-.2L92,27.3a1.5,1.5,0,1,0-1.5-2.6l-4.9,2.8a1.5,1.5,0,0,0,.8,2.8Z" transform="translate(0 -0.4)"/>
  <path d="M29.2,85.4a1.5,1.5,0,0,0-2.1.6l-2.8,4.9a1.5,1.5,0,0,0,.6,2.1l.8.2a1.5,1.5,0,0,0,1.3-.8l2.8-4.9A1.5,1.5,0,0,0,29.2,85.4Z" transform="translate(0 -0.4)"/>
  <path d="M70.1,14.6l.8.2a1.5,1.5,0,0,0,1.3-.8L75,9.1a1.5,1.5,0,0,0-2.6-1.5l-2.8,4.9A1.5,1.5,0,0,0,70.1,14.6Z" transform="translate(0 -0.4)"/>
</svg>
