<?xml version="1.0" encoding="utf-8"?>
<!-- Generator: Adobe Illustrator 22.0.1, SVG Export Plug-In . SVG Version: 6.00 Build 0)  -->
<svg version="1.1" id="Capa_1" xmlns="http://www.w3.org/2000/svg" xmlns:xlink="http://www.w3.org/1999/xlink" x="0px" y="0px"
	 viewBox="0 0 28 28" style="enable-background:new 0 0 28 28;" xml:space="preserve">
<g>
	<g>
		<g>
			<path d="M23.7,2.6h-0.3V2.1c0-0.9-0.8-1.7-1.7-1.7c-0.9,0-1.7,0.8-1.7,1.7v0.5H8V2.1c0-0.9-0.8-1.7-1.7-1.7S4.6,1.2,4.6,2.1v0.5
				H4.3c-1.5,0-2.7,1.2-2.7,2.7v19.5c0,1.5,1.2,2.7,2.7,2.7h19.5c1.5,0,2.7-1.2,2.7-2.7V5.3C26.4,3.8,25.2,2.6,23.7,2.6z M21.8,1.4
				c0.4,0,0.7,0.3,0.7,0.7v2c0,0.4-0.3,0.7-0.7,0.7c-0.4,0-0.7-0.3-0.7-0.7v-1v-1C21,1.7,21.4,1.4,21.8,1.4z M5.5,3.1v-1
				c0-0.4,0.3-0.8,0.7-0.8C6.7,1.4,7,1.7,7,2.1v2c0,0.4-0.3,0.7-0.7,0.7c-0.4,0-0.7-0.3-0.7-0.7V3.1z M25.5,24.7
				c0,0.9-0.8,1.7-1.7,1.7H4.3c-0.9,0-1.7-0.8-1.7-1.7V9h22.9L25.5,24.7L25.5,24.7z M25.5,8.1H2.6V5.3c0-0.9,0.8-1.7,1.7-1.7h0.3
				v0.5c0,0.9,0.8,1.7,1.7,1.7S8,5,8,4.1V3.6h12.1v0.5c0,0.9,0.8,1.7,1.7,1.7c0.9,0,1.7-0.8,1.7-1.7V3.6h0.3c0.9,0,1.7,0.8,1.7,1.7
				V8.1z"/>
		</g>
	</g>
	<g>
		<g>
			<path d="M7.2,13.2H4.9c-0.3,0-0.5,0.2-0.5,0.5c0,0.3,0.2,0.5,0.5,0.5h2.3c0.3,0,0.5-0.2,0.5-0.5C7.7,13.4,7.5,13.2,7.2,13.2z"/>
		</g>
	</g>
	<g>
		<g>
			<path d="M11.1,13.2H8.8c-0.3,0-0.5,0.2-0.5,0.5c0,0.3,0.2,0.5,0.5,0.5h2.3c0.3,0,0.5-0.2,0.5-0.5C11.6,13.4,11.4,13.2,11.1,13.2z
				"/>
		</g>
	</g>
	<g>
		<g>
			<path d="M15,13.2h-2.3c-0.3,0-0.5,0.2-0.5,0.5c0,0.3,0.2,0.5,0.5,0.5H15c0.3,0,0.5-0.2,0.5-0.5C15.5,13.4,15.3,13.2,15,13.2z"/>
		</g>
	</g>
	<g>
		<g>
			<path d="M18.8,13.2h-2.3c-0.3,0-0.5,0.2-0.5,0.5c0,0.3,0.2,0.5,0.5,0.5h2.3c0.3,0,0.5-0.2,0.5-0.5C19.3,13.4,19.1,13.2,18.8,13.2
				z"/>
		</g>
	</g>
	<g>
		<g>
			<path d="M22.7,13.2h-2.3c-0.3,0-0.5,0.2-0.5,0.5c0,0.3,0.2,0.5,0.5,0.5h2.3c0.3,0,0.5-0.2,0.5-0.5C23.2,13.4,23,13.2,22.7,13.2z"
				/>
		</g>
	</g>
	<g>
		<g>
			<path d="M7.4,15.9H5c-0.3,0-0.5,0.2-0.5,0.5c0,0.3,0.2,0.5,0.5,0.5h2.3c0.3,0,0.5-0.2,0.5-0.5C7.8,16.1,7.6,15.9,7.4,15.9z"/>
		</g>
	</g>
	<g>
		<g>
			<path d="M11.2,15.9H8.9c-0.3,0-0.5,0.2-0.5,0.5c0,0.3,0.2,0.5,0.5,0.5h2.3c0.3,0,0.5-0.2,0.5-0.5C11.7,16.1,11.5,15.9,11.2,15.9z
				"/>
		</g>
	</g>
	<g>
		<g>
			<path d="M15.1,15.9h-2.3c-0.3,0-0.5,0.2-0.5,0.5c0,0.3,0.2,0.5,0.5,0.5h2.3c0.3,0,0.5-0.2,0.5-0.5C15.6,16.1,15.4,15.9,15.1,15.9
				z"/>
		</g>
	</g>
	<g>
		<g>
			<path d="M19,15.9h-2.3c-0.3,0-0.5,0.2-0.5,0.5c0,0.3,0.2,0.5,0.5,0.5H19c0.3,0,0.5-0.2,0.5-0.5C19.4,16.1,19.2,15.9,19,15.9z"/>
		</g>
	</g>
	<g>
		<g>
			<path d="M22.8,15.9h-2.3c-0.3,0-0.5,0.2-0.5,0.5c0,0.3,0.2,0.5,0.5,0.5h2.3c0.3,0,0.5-0.2,0.5-0.5C23.3,16.1,23.1,15.9,22.8,15.9
				z"/>
		</g>
	</g>
	<g>
		<g>
			<path d="M7,21.1H4.6c-0.3,0-0.5,0.2-0.5,0.5c0,0.3,0.2,0.5,0.5,0.5H7c0.3,0,0.5-0.2,0.5-0.5C7.5,21.3,7.3,21.1,7,21.1z"/>
		</g>
	</g>
	<g>
		<g>
			<path d="M10.9,21.1H8.5c-0.3,0-0.5,0.2-0.5,0.5c0,0.3,0.2,0.5,0.5,0.5h2.3c0.3,0,0.5-0.2,0.5-0.5C11.3,21.3,11.1,21.1,10.9,21.1z
				"/>
		</g>
	</g>
	<g>
		<g>
			<path d="M14.7,21.1h-2.3c-0.3,0-0.5,0.2-0.5,0.5c0,0.3,0.2,0.5,0.5,0.5h2.3c0.3,0,0.5-0.2,0.5-0.5C15.2,21.3,15,21.1,14.7,21.1z"
				/>
		</g>
	</g>
	<g>
		<g>
			<path d="M7,18.5H4.6c-0.3,0-0.5,0.2-0.5,0.5s0.2,0.5,0.5,0.5H7c0.3,0,0.5-0.2,0.5-0.5S7.3,18.5,7,18.5z"/>
		</g>
	</g>
	<g>
		<g>
			<path d="M10.9,18.5H8.5c-0.3,0-0.5,0.2-0.5,0.5s0.2,0.5,0.5,0.5h2.3c0.3,0,0.5-0.2,0.5-0.5C11.3,18.7,11.1,18.5,10.9,18.5z"/>
		</g>
	</g>
	<g>
		<g>
			<path d="M14.7,18.5h-2.3c-0.3,0-0.5,0.2-0.5,0.5s0.2,0.5,0.5,0.5h2.3c0.3,0,0.5-0.2,0.5-0.5S15,18.5,14.7,18.5z"/>
		</g>
	</g>
	<g>
		<g>
			<path d="M18.6,18.5h-2.3c-0.3,0-0.5,0.2-0.5,0.5s0.2,0.5,0.5,0.5h2.3c0.3,0,0.5-0.2,0.5-0.5S18.9,18.5,18.6,18.5z"/>
		</g>
	</g>
	<g>
		<g>
			<path d="M22.5,18.5h-2.3c-0.3,0-0.5,0.2-0.5,0.5s0.2,0.5,0.5,0.5h2.3c0.3,0,0.5-0.2,0.5-0.5C22.9,18.7,22.7,18.5,22.5,18.5z"/>
		</g>
	</g>
</g>
</svg>
