<?xml version="1.0" encoding="utf-8"?>
<!-- Generator: Adobe Illustrator 22.0.1, SVG Export Plug-In . SVG Version: 6.00 Build 0)  -->
<svg version="1.1" id="Layer_1" xmlns="http://www.w3.org/2000/svg" xmlns:xlink="http://www.w3.org/1999/xlink" x="0px" y="0px"
	 viewBox="0 0 1441.2 902.3" style="enable-background:new 0 0 1441.2 902.3;" xml:space="preserve">
<style type="text/css">
	.st0{opacity:6.000000e-02;}
	.st1{fill:#D0D0D0;}
	.st2{fill:#E3E3E3;}
	.st3{fill:#D1D1D1;}
	.st4{fill:#D3D3D3;}
	.st5{fill:#D9D9D9;}
	.st6{fill:#CECECE;}
	.st7{fill:#EAEAEA;}
	.st8{fill:#F4F4F4;}
	.st9{fill:#D7D7D7;}
	.st10{fill:#F1F1F1;}
	.st11{fill:#F0F0F0;}
	.st12{fill:#EDEDED;}
	.st13{fill:#E4E4E4;}
	.st14{fill:#D5D5D5;}
	.st15{fill:#CFCFCF;}
	.st16{fill:#DFDFDF;}
	.st17{fill:#ECECEC;}
	.st18{fill:#EBEBEB;}
	.st19{fill:#989898;}
	.st20{fill:#E6E6E6;}
	.st21{fill:#C7C7C7;}
	.st22{fill:#D8D8D8;}
	.st23{fill:#EEEEEE;}
	.st24{fill:#E7E7E7;}
	.st25{fill:#E5E5E5;}
	.st26{fill:#C6C6C6;}
	.st27{fill:none;stroke:#F2F2F2;stroke-miterlimit:10;}
	.st28{fill:#B5B5B5;}
	.st29{fill:#797979;}
	.st30{fill:#D2D2D2;}
	.st31{fill:#8C8C8C;}
	.st32{fill:#686868;}
	.st33{fill:#E9E9E9;}
	.st34{fill:#ACACAC;}
	.st35{fill:#BABABA;}
	.st36{fill:#A4A4A4;}
	.st37{fill:#E8E8E8;}
	.st38{fill:#9D9D9D;}
	.st39{fill:#A8A8A8;}
	.st40{fill:#707070;}
	.st41{fill:#A9A9A9;}
	.st42{fill:#8E8E8E;}
	.st43{fill:#959595;}
	.st44{fill:#6B6B6B;}
	.st45{fill:#E1E1E1;}
	.st46{fill:#ABABAB;}
	.st47{fill:#A3A3A3;}
	.st48{fill:#B6B6B6;}
	.st49{fill:#AEAEAE;}
	.st50{fill:#9C9C9C;}
	.st51{fill:#BBBBBB;}
	.st52{fill:#B7B7B7;}
	.st53{fill:#7C7C7C;}
	.st54{fill:#BFBFBF;}
	.st55{fill:#BDBDBD;}
	.st56{fill:#656565;}
	.st57{fill:#9E9E9E;}
	.st58{fill:#6A6A6A;}
	.st59{fill:#939393;}
	.st60{fill:#D4D4D4;}
	.st61{fill:#DCDCDC;}
	.st62{fill:#C1C1C1;}
	.st63{fill:#B2B2B2;}
	.st64{fill:#818181;}
	.st65{fill:#DBDBDB;}
	.st66{fill:#E2E2E2;}
	.st67{fill:#737373;}
	.st68{fill:#8F8F8F;}
	.st69{fill:#B9B9B9;}
	.st70{fill:#B8B8B8;}
	.st71{fill:#AFAFAF;}
	.st72{fill:#DADADA;}
	.st73{fill:#C2C2C2;}
	.st74{fill:#7F7F7F;}
	.st75{fill:#CDCDCD;}
	.st76{fill:#6D6D6D;}
	.st77{fill:#8B8B8B;}
	.st78{fill:#8A8A8A;}
	.st79{fill:#B1B1B1;}
	.st80{fill:#B4B4B4;}
	.st81{fill:#9A9A9A;}
</style>
<g id="Feature_Page_-_Horizontal_3_">
	<g>
		<defs>
			<rect id="SVGID_1_" x="-0.7" y="1.2" width="1440" height="900"/>
		</defs>
		<use xlink:href="#SVGID_1_"  style="overflow:visible;fill:#F2F2F2;"/>
		<clipPath id="SVGID_2_">
			<use xlink:href="#SVGID_1_"  style="overflow:visible;"/>
		</clipPath>
	</g>
	<g class="st0">
		<polygon class="st1" points="1185.2,1.2 1269.9,83 1354.6,1.2 		"/>
		<polygon class="st2" points="1439.3,83 1354.6,1.2 1269.9,83 		"/>
		<polygon class="st3" points="1269.9,83 1185.2,1.2 1100.5,83 		"/>
		<polygon class="st4" points="1015.8,1.2 1100.5,83 1185.2,1.2 		"/>
		<polygon class="st5" points="1354.6,1.2 1439.3,83 1439.3,1.2 		"/>
		<polygon class="st6" points="1100.5,83 1015.8,1.2 931.1,83 		"/>
		<polygon class="st7" points="931.1,83 846.4,1.2 761.7,83 		"/>
		<polygon class="st8" points="677,1.2 761.7,83 846.4,1.2 		"/>
		<polygon class="st9" points="846.4,1.2 931.1,83 1015.8,1.2 		"/>
		<polygon class="st8" points="761.7,83 677,1.2 592.3,83 		"/>
		<polygon class="st10" points="592.3,83 507.6,1.2 422.9,83 		"/>
		<polygon class="st11" points="338.1,1.2 422.9,83 507.6,1.2 		"/>
		<polygon class="st12" points="507.6,1.2 592.3,83 677,1.2 		"/>
		<polygon class="st13" points="422.9,83 338.1,1.2 253.4,83 		"/>
		<polygon class="st14" points="253.4,83 168.7,1.2 84,83 		"/>
		<polygon class="st5" points="84,83 -0.7,1.2 -0.7,83 		"/>
		<polygon class="st15" points="-0.7,1.2 84,83 168.7,1.2 		"/>
		<polygon class="st16" points="168.7,1.2 253.4,83 338.1,1.2 		"/>
		<polygon class="st17" points="1354.6,164.8 1269.9,83 1185.2,164.8 		"/>
		<polygon class="st18" points="1185.2,164.8 1100.5,83 1015.8,164.8 		"/>
		<polygon class="st13" points="931.1,83 1015.8,164.8 1100.5,83 		"/>
		<polygon class="st19" points="1100.5,83 1185.2,164.8 1269.9,83 		"/>
		<polygon class="st9" points="1439.3,164.8 1439.3,83 1354.6,164.8 		"/>
		<polygon class="st20" points="1269.9,83 1354.6,164.8 1439.3,83 		"/>
		<polygon class="st18" points="1015.8,164.8 931.1,83 846.4,164.8 		"/>
		<polygon class="st21" points="846.4,164.8 761.7,83 677,164.8 		"/>
		<polygon class="st21" points="592.3,83 677,164.8 761.7,83 		"/>
		<polygon class="st22" points="761.7,83 846.4,164.8 931.1,83 		"/>
		<polygon class="st8" points="677,164.8 592.3,83 507.6,164.8 		"/>
		<polygon class="st9" points="507.6,164.8 422.9,83 338.1,164.8 		"/>
		<polygon class="st14" points="253.4,83 338.1,164.8 422.9,83 		"/>
		<polygon class="st23" points="422.9,83 507.6,164.8 592.3,83 		"/>
		<polygon class="st21" points="338.1,164.8 253.4,83 168.7,164.8 		"/>
		<polygon class="st24" points="168.7,164.8 84,83 -0.7,164.8 		"/>
		<polygon class="st25" points="-0.7,83 -0.7,164.8 84,83 		"/>
		<polygon class="st26" points="84,83 168.7,164.8 253.4,83 		"/>
		<polygon class="st27" points="1269.9,246.6 1185.2,164.8 1100.5,246.6 		"/>
		<polygon class="st10" points="1100.5,246.6 1015.8,164.8 931.1,246.6 		"/>
		<polygon class="st17" points="846.4,164.8 931.1,246.6 1015.8,164.8 		"/>
		<polygon class="st27" points="1015.8,164.8 1100.5,246.6 1185.2,164.8 		"/>
		<polygon class="st18" points="1269.9,246.6 1185.2,164.8 1100.5,246.6 		"/>
		<polygon class="st21" points="1015.8,164.8 1100.5,246.6 1185.2,164.8 		"/>
		<polygon class="st28" points="1439.3,246.6 1354.6,164.8 1269.9,246.6 		"/>
		<polygon class="st29" points="1185.2,164.8 1269.9,246.6 1354.6,164.8 		"/>
		<polygon class="st30" points="1354.6,164.8 1439.3,246.6 1439.3,164.8 		"/>
		<polygon class="st12" points="931.1,246.6 846.4,164.8 761.7,246.6 		"/>
		<polygon class="st31" points="761.7,246.6 677,164.8 592.3,246.6 		"/>
		<polygon class="st32" points="507.6,164.8 592.3,246.6 677,164.8 		"/>
		<polygon class="st33" points="677,164.8 761.7,246.6 846.4,164.8 		"/>
		<polygon class="st21" points="592.3,246.6 507.6,164.8 422.9,246.6 		"/>
		<polygon class="st8" points="422.9,246.6 338.1,164.8 253.4,246.6 		"/>
		<polygon class="st12" points="168.7,164.8 253.4,246.6 338.1,164.8 		"/>
		<polygon class="st12" points="338.1,164.8 422.9,246.6 507.6,164.8 		"/>
		<polygon class="st34" points="253.4,246.6 168.7,164.8 84,246.6 		"/>
		<polygon class="st1" points="84,246.6 -0.7,164.8 -0.7,246.6 		"/>
		<polygon class="st12" points="-0.7,164.8 84,246.6 168.7,164.8 		"/>
		<polygon class="st20" points="1354.6,328.4 1269.9,246.6 1185.2,328.4 		"/>
		<polygon class="st10" points="1100.5,246.6 1185.2,328.4 1269.9,246.6 		"/>
		<polygon class="st35" points="1439.3,328.4 1439.3,246.6 1354.6,328.4 		"/>
		<polygon class="st2" points="1269.9,246.6 1354.6,328.4 1439.3,246.6 		"/>
		<polygon class="st36" points="1185.2,328.4 1100.5,246.6 1015.8,328.4 		"/>
		<polygon class="st12" points="1015.8,328.4 931.1,246.6 846.4,328.4 		"/>
		<polygon class="st16" points="761.7,246.6 846.4,328.4 931.1,246.6 		"/>
		<polygon class="st10" points="931.1,246.6 1015.8,328.4 1100.5,246.6 		"/>
		<polygon class="st9" points="846.4,328.4 761.7,246.6 677,328.4 		"/>
		<polygon class="st11" points="677,328.4 592.3,246.6 507.6,328.4 		"/>
		<polygon class="st18" points="422.9,246.6 507.6,328.4 592.3,246.6 		"/>
		<polygon class="st25" points="592.3,246.6 677,328.4 761.7,246.6 		"/>
		<polygon class="st37" points="507.6,328.4 422.9,246.6 338.1,328.4 		"/>
		<polygon class="st34" points="338.1,328.4 253.4,246.6 168.7,328.4 		"/>
		<polygon class="st12" points="84,246.6 168.7,328.4 253.4,246.6 		"/>
		<polygon class="st20" points="253.4,246.6 338.1,328.4 422.9,246.6 		"/>
		<polygon class="st38" points="168.7,328.4 84,246.6 -0.7,328.4 		"/>
		<polygon class="st39" points="-0.7,246.6 -0.7,328.4 84,246.6 		"/>
		<polygon class="st40" points="1015.8,328.4 1100.5,410.3 1185.2,328.4 		"/>
		<polygon class="st41" points="1269.9,410.3 1185.2,328.4 1100.5,410.3 		"/>
		<polygon class="st2" points="1439.3,410.3 1354.6,328.4 1269.9,410.3 		"/>
		<polygon class="st42" points="1185.2,328.4 1269.9,410.3 1354.6,328.4 		"/>
		<polygon class="st43" points="1354.6,328.4 1439.3,410.3 1439.3,328.4 		"/>
		<polygon class="st44" points="1100.5,410.3 1015.8,328.4 931.1,410.3 		"/>
		<polygon class="st13" points="931.1,410.3 846.4,328.4 761.7,410.3 		"/>
		<polygon class="st4" points="677,328.4 761.7,410.3 846.4,328.4 		"/>
		<polygon class="st16" points="846.4,328.4 931.1,410.3 1015.8,328.4 		"/>
		<polygon class="st45" points="761.7,410.3 677,328.4 592.3,410.3 		"/>
		<polygon class="st1" points="592.3,410.3 507.6,328.4 422.9,410.3 		"/>
		<polygon class="st39" points="338.1,328.4 422.9,410.3 507.6,328.4 		"/>
		<polygon class="st13" points="507.6,328.4 592.3,410.3 677,328.4 		"/>
		<polygon class="st38" points="422.9,410.3 338.1,328.4 253.4,410.3 		"/>
		<polygon class="st46" points="253.4,410.3 168.7,328.4 84,410.3 		"/>
		<polygon class="st47" points="-0.7,328.4 84,410.3 168.7,328.4 		"/>
		<polygon class="st48" points="168.7,328.4 253.4,410.3 338.1,328.4 		"/>
		<polygon class="st49" points="84,410.3 -0.7,328.4 -0.7,410.3 		"/>
		<polygon class="st25" points="1354.6,492.1 1269.9,410.3 1185.2,492.1 		"/>
		<polygon class="st4" points="1100.5,410.3 1185.2,492.1 1269.9,410.3 		"/>
		<polygon class="st50" points="1439.3,492.1 1439.3,410.3 1354.6,492.1 		"/>
		<polygon class="st41" points="1269.9,410.3 1354.6,492.1 1439.3,410.3 		"/>
		<polygon class="st22" points="1185.2,492.1 1100.5,410.3 1015.8,492.1 		"/>
		<polygon class="st28" points="931.1,410.3 1015.8,492.1 1100.5,410.3 		"/>
		<polygon class="st51" points="1015.8,492.1 931.1,410.3 846.4,492.1 		"/>
		<polygon class="st32" points="846.4,492.1 761.7,410.3 677,492.1 		"/>
		<polygon class="st31" points="592.3,410.3 677,492.1 761.7,410.3 		"/>
		<polygon class="st13" points="761.7,410.3 846.4,492.1 931.1,410.3 		"/>
		<polygon class="st21" points="677,492.1 592.3,410.3 507.6,492.1 		"/>
		<polygon class="st5" points="507.6,492.1 422.9,410.3 338.1,492.1 		"/>
		<polygon class="st52" points="253.4,410.3 338.1,492.1 422.9,410.3 		"/>
		<polygon class="st20" points="422.9,410.3 507.6,492.1 592.3,410.3 		"/>
		<polygon class="st53" points="338.1,492.1 253.4,410.3 168.7,492.1 		"/>
		<polygon class="st54" points="168.7,492.1 84,410.3 -0.7,492.1 		"/>
		<polygon class="st4" points="-0.7,410.3 -0.7,492.1 84,410.3 		"/>
		<polygon class="st29" points="84,410.3 168.7,492.1 253.4,410.3 		"/>
		<polygon class="st33" points="1015.8,492.1 1100.5,573.9 1185.2,492.1 		"/>
		<polygon class="st9" points="846.4,492.1 931.1,573.9 1015.8,492.1 		"/>
		<polygon class="st27" points="1269.9,573.9 1185.2,492.1 1100.5,573.9 		"/>
		<polygon class="st55" points="1269.9,573.9 1185.2,492.1 1100.5,573.9 		"/>
		<polygon class="st56" points="1439.3,573.9 1354.6,492.1 1269.9,573.9 		"/>
		<polygon class="st57" points="1185.2,492.1 1269.9,573.9 1354.6,492.1 		"/>
		<polygon class="st58" points="1354.6,492.1 1439.3,573.9 1439.3,492.1 		"/>
		<polygon class="st59" points="1100.5,573.9 1015.8,492.1 931.1,573.9 		"/>
		<polygon class="st60" points="931.1,573.9 846.4,492.1 761.7,573.9 		"/>
		<polygon class="st54" points="761.7,573.9 677,492.1 592.3,573.9 		"/>
		<polygon class="st54" points="507.6,492.1 592.3,573.9 677,492.1 		"/>
		<polygon class="st15" points="677,492.1 761.7,573.9 846.4,492.1 		"/>
		<polygon class="st37" points="592.3,573.9 507.6,492.1 422.9,573.9 		"/>
		<polygon class="st1" points="422.9,573.9 338.1,492.1 253.4,573.9 		"/>
		<polygon class="st61" points="168.7,492.1 253.4,573.9 338.1,492.1 		"/>
		<polygon class="st23" points="338.1,492.1 422.9,573.9 507.6,492.1 		"/>
		<polygon class="st22" points="253.4,573.9 168.7,492.1 84,573.9 		"/>
		<polygon class="st46" points="84,573.9 -0.7,492.1 -0.7,573.9 		"/>
		<polygon class="st1" points="-0.7,492.1 84,573.9 168.7,492.1 		"/>
		<polygon class="st62" points="1354.6,655.7 1269.9,573.9 1185.2,655.7 		"/>
		<polygon class="st34" points="1100.5,573.9 1185.2,655.7 1269.9,573.9 		"/>
		<polygon class="st3" points="1439.3,655.7 1439.3,573.9 1354.6,655.7 		"/>
		<polygon class="st63" points="1269.9,573.9 1354.6,655.7 1439.3,573.9 		"/>
		<polygon class="st64" points="1185.2,655.7 1100.5,573.9 1015.8,655.7 		"/>
		<polygon class="st33" points="931.1,573.9 1015.8,655.7 1100.5,573.9 		"/>
		<polygon class="st51" points="1015.8,655.7 931.1,573.9 846.4,655.7 		"/>
		<polygon class="st65" points="761.7,573.9 846.4,655.7 931.1,573.9 		"/>
		<polygon class="st7" points="846.4,655.7 761.7,573.9 677,655.7 		"/>
		<polygon class="st66" points="677,655.7 592.3,573.9 507.6,655.7 		"/>
		<polygon class="st46" points="422.9,573.9 507.6,655.7 592.3,573.9 		"/>
		<polygon class="st8" points="592.3,573.9 677,655.7 761.7,573.9 		"/>
		<polygon class="st53" points="507.6,655.7 422.9,573.9 338.1,655.7 		"/>
		<polygon class="st67" points="338.1,655.7 253.4,573.9 168.7,655.7 		"/>
		<polygon class="st7" points="84,573.9 168.7,655.7 253.4,573.9 		"/>
		<polygon class="st66" points="253.4,573.9 338.1,655.7 422.9,573.9 		"/>
		<polygon class="st68" points="168.7,655.7 84,573.9 -0.7,655.7 		"/>
		<polygon class="st38" points="-0.7,573.9 -0.7,655.7 84,573.9 		"/>
		<polygon class="st69" points="1015.8,655.7 1100.5,737.5 1185.2,655.7 		"/>
		<polygon class="st66" points="846.4,655.7 931.1,737.5 1015.8,655.7 		"/>
		<polygon class="st19" points="1269.9,737.5 1185.2,655.7 1100.5,737.5 		"/>
		<polygon class="st19" points="1269.9,737.5 1185.2,655.7 1100.5,737.5 		"/>
		<polygon class="st70" points="1439.3,737.5 1354.6,655.7 1269.9,737.5 		"/>
		<polygon class="st38" points="1185.2,655.7 1269.9,737.5 1354.6,655.7 		"/>
		<polygon class="st71" points="1354.6,655.7 1439.3,737.5 1439.3,655.7 		"/>
		<polygon class="st71" points="1354.6,655.7 1439.3,737.5 1439.3,655.7 		"/>
		<polygon class="st72" points="1100.5,737.5 1015.8,655.7 931.1,737.5 		"/>
		<polygon class="st73" points="931.1,737.5 846.4,655.7 761.7,737.5 		"/>
		<polygon class="st71" points="677,655.7 761.7,737.5 846.4,655.7 		"/>
		<polygon class="st7" points="761.7,737.5 677,655.7 592.3,737.5 		"/>
		<polygon class="st3" points="592.3,737.5 507.6,655.7 422.9,737.5 		"/>
		<polygon class="st54" points="338.1,655.7 422.9,737.5 507.6,655.7 		"/>
		<polygon class="st74" points="507.6,655.7 592.3,737.5 677,655.7 		"/>
		<polygon class="st32" points="422.9,737.5 338.1,655.7 253.4,737.5 		"/>
		<polygon class="st4" points="253.4,737.5 168.7,655.7 84,737.5 		"/>
		<polygon class="st4" points="-0.7,655.7 84,737.5 168.7,655.7 		"/>
		<polygon class="st53" points="168.7,655.7 253.4,737.5 338.1,655.7 		"/>
		<polygon class="st75" points="84,737.5 -0.7,655.7 -0.7,737.5 		"/>
		<g>
			<polygon class="st47" points="1354.6,819.3 1269.9,737.5 1185.2,819.3 			"/>
			<polygon class="st15" points="1100.5,737.5 1185.2,819.3 1269.9,737.5 			"/>
			<polygon class="st76" points="1439.3,819.3 1439.3,737.5 1354.6,819.3 			"/>
			<polygon class="st19" points="1269.9,737.5 1354.6,819.3 1439.3,737.5 			"/>
			<polygon class="st63" points="1185.2,819.3 1100.5,737.5 1015.8,819.3 			"/>
			<polygon class="st77" points="931.1,737.5 1015.8,819.3 1100.5,737.5 			"/>
			<polygon class="st78" points="1015.8,819.3 931.1,737.5 846.4,819.3 			"/>
			<polygon class="st79" points="761.7,737.5 846.4,819.3 931.1,737.5 			"/>
			<polygon class="st70" points="846.4,819.3 761.7,737.5 677,819.3 			"/>
			<polygon class="st36" points="592.3,737.5 677,819.3 761.7,737.5 			"/>
			<polygon class="st5" points="677,819.3 592.3,737.5 507.6,819.3 			"/>
			<polygon class="st51" points="507.6,819.3 422.9,737.5 338.1,819.3 			"/>
			<polygon class="st1" points="253.4,737.5 338.1,819.3 422.9,737.5 			"/>
			<polygon class="st14" points="422.9,737.5 507.6,819.3 592.3,737.5 			"/>
			<polygon class="st80" points="338.1,819.3 253.4,737.5 168.7,819.3 			"/>
			<polygon class="st81" points="168.7,819.3 84,737.5 -0.7,819.3 			"/>
			<polygon class="st81" points="-0.7,737.5 -0.7,819.3 84,737.5 			"/>
			<polygon class="st57" points="84,737.5 168.7,819.3 253.4,737.5 			"/>
		</g>
		<polygon class="st77" points="1015.8,819.3 1100.5,901.2 1185.2,819.3 		"/>
		<polygon class="st38" points="846.4,819.3 931.1,901.2 1015.8,819.3 		"/>
		<polygon class="st79" points="1269.9,901.2 1185.2,819.3 1100.5,901.2 		"/>
		<polygon class="st66" points="1269.9,901.2 1185.2,819.3 1100.5,901.2 		"/>
		<polygon class="st19" points="1439.3,901.2 1354.6,819.3 1269.9,901.2 		"/>
		<polygon class="st15" points="1185.2,819.3 1269.9,901.2 1354.6,819.3 		"/>
		<polygon class="st79" points="1354.6,819.3 1439.3,901.2 1439.3,819.3 		"/>
		<polygon class="st66" points="1354.6,819.3 1439.3,901.2 1439.3,819.3 		"/>
		<polygon class="st69" points="1100.5,901.2 1015.8,819.3 931.1,901.2 		"/>
		<polygon class="st73" points="931.1,901.2 846.4,819.3 761.7,901.2 		"/>
		<polygon class="st36" points="677,819.3 761.7,901.2 846.4,819.3 		"/>
		<polygon class="st70" points="761.7,901.2 677,819.3 592.3,901.2 		"/>
		<polygon class="st5" points="507.6,819.3 592.3,901.2 677,819.3 		"/>
		<polygon class="st36" points="592.3,901.2 507.6,819.3 422.9,901.2 		"/>
		<polygon class="st1" points="422.9,901.2 338.1,819.3 253.4,901.2 		"/>
		<polygon class="st57" points="168.7,819.3 253.4,901.2 338.1,819.3 		"/>
		<polygon class="st59" points="338.1,819.3 422.9,901.2 507.6,819.3 		"/>
		<polygon class="st80" points="253.4,901.2 168.7,819.3 84,901.2 		"/>
		<polygon class="st38" points="84,901.2 -0.7,819.3 -0.7,901.2 		"/>
		<polygon class="st75" points="-0.7,819.3 84,901.2 168.7,819.3 		"/>
	</g>
</g>
</svg>
