<?xml version="1.0" encoding="utf-8"?>
<!-- Generator: Adobe Illustrator 22.0.1, SVG Export Plug-In . SVG Version: 6.00 Build 0)  -->
<svg version="1.1" id="Capa_1" xmlns="http://www.w3.org/2000/svg" xmlns:xlink="http://www.w3.org/1999/xlink" x="0px" y="0px"
	 viewBox="0 0 28 28" style="enable-background:new 0 0 28 28;" xml:space="preserve">
<style type="text/css">
	.st0{fill:#7D7D7D;}
</style>
<g>
	<g>
		<g>
			<path class="st0" d="M25.2,7.3c-0.5-1.4-1.4-2.6-2.4-3.7s-2.2-1.8-3.6-2.4c-1.3-0.5-2.7-0.8-4.2-0.8s-2.9,0.3-4.2,0.8
				C9.5,1.8,8.2,2.6,7.2,3.6S5.4,5.8,4.8,7.2C4.3,8.5,4,9.9,4,11.4c0,0.5,0.1,1.1,0.1,1.6c0.1,0.5,0.2,1.1,0.4,1.6
				c0.9,3,4.5,7.1,7.1,10c0.7,0.8,1.3,1.5,1.8,2c0,0,0,0,0,0.1c0.4,0.5,0.9,0.7,1.4,0.8s1.1-0.1,1.6-0.5c0,0,0,0,0.1,0
				c0.1-0.1,0.1-0.1,0.2-0.1l0.1-0.2c0.5-0.6,1.1-1.3,1.8-2c2.6-2.9,6.2-7,7.1-9.9c0.2-0.5,0.3-1,0.4-1.6c0.1-0.5,0.1-1.1,0.1-1.6
				C26,10,25.7,8.6,25.2,7.3z M24.9,12.8c-0.1,0.5-0.2,1-0.3,1.4c-0.8,2.7-4.4,6.7-6.9,9.6c-0.7,0.8-1.3,1.5-1.8,2.1c0,0,0,0,0,0
				c0,0-0.1,0.1-0.1,0.1c0,0-0.1,0.1-0.1,0.1c-0.3,0.2-0.6,0.3-0.8,0.3c-0.3,0-0.6-0.2-0.8-0.4c-0.5-0.6-1.1-1.3-1.8-2
				c-2.5-2.8-6-6.8-6.9-9.6c-0.2-0.5-0.3-0.9-0.3-1.4c-0.1-0.5-0.1-1-0.1-1.5C5,10,5.3,8.7,5.8,7.6C6.3,6.3,7,5.2,8,4.3
				s2-1.7,3.3-2.2c1.2-0.5,2.5-0.8,3.8-0.8s2.6,0.3,3.8,0.8c1.2,0.5,2.3,1.2,3.3,2.2c0.9,0.9,1.7,2,2.2,3.3C24.8,8.7,25,10,25,11.4
				C25,11.9,25,12.4,24.9,12.8z"/>
		</g>
	</g>
	<g>
		<g>
			<path class="st0" d="M19.7,9.5c-0.3-0.6-0.6-1.2-1.1-1.6c-0.5-0.5-1-0.8-1.6-1.1c-0.6-0.3-1.2-0.4-1.9-0.4s-1.3,0.1-1.9,0.4
				c-0.6,0.3-1.2,0.6-1.6,1.1c-0.5,0.5-0.8,1-1.1,1.6c-0.3,0.6-0.4,1.2-0.4,1.9s0.1,1.3,0.4,1.9c0.3,0.6,0.6,1.2,1.1,1.6
				c0.5,0.5,1,0.8,1.6,1.1c0.6,0.3,1.2,0.4,1.9,0.4s1.3-0.1,1.9-0.4c0.6-0.3,1.2-0.6,1.6-1.1c0.5-0.5,0.8-1,1.1-1.6
				c0.3-0.6,0.4-1.2,0.4-1.9S19.9,10.1,19.7,9.5z M18.8,13c-0.2,0.5-0.5,0.9-0.9,1.3c-0.4,0.4-0.8,0.7-1.3,0.9
				c-0.5,0.2-1,0.3-1.5,0.3c-0.6,0-1.1-0.1-1.5-0.3c-0.5-0.2-0.9-0.5-1.3-0.9c-0.4-0.4-0.7-0.8-0.9-1.3c-0.2-0.5-0.3-1-0.3-1.5
				c0-0.6,0.1-1.1,0.3-1.5c0.2-0.5,0.5-0.9,0.9-1.3c0.4-0.4,0.8-0.7,1.3-0.9c0.5-0.2,1-0.3,1.5-0.3c0.6,0,1.1,0.1,1.5,0.3
				c0.5,0.2,0.9,0.5,1.3,0.9c0.4,0.4,0.7,0.8,0.9,1.3c0.2,0.5,0.3,1,0.3,1.5C19.1,11.9,19,12.5,18.8,13z"/>
		</g>
	</g>
</g>
</svg>
