<svg id="Layer_1" data-name="Layer 1" xmlns="http://www.w3.org/2000/svg" width="135" height="40" viewBox="0 0 135 40">
  <title>microsoft</title>
  <path d="M130.2,40H4.7A4.7,4.7,0,0,1,0,35.3H0V4.7A4.7,4.7,0,0,1,4.7,0H130.2A4.8,4.8,0,0,1,135,4.7V35.3A4.8,4.8,0,0,1,130.2,40Z" transform="translate(0 0)"/>
  <path d="M134,35.3a3.8,3.8,0,0,1-3.8,3.8H4.7A3.8,3.8,0,0,1,.9,35.3V4.7A3.8,3.8,0,0,1,4.7.9H130.2A3.8,3.8,0,0,1,134,4.7h0Z" transform="translate(0 0)"/>
  <g>
    <path d="M53.6,25V15h2L58,22.1l.5,1.5L59,22l2.4-7h1.8V25H61.9V16.6L59,25H57.8l-2.9-8.5V25Z" transform="translate(0 0)" style="fill: #d8dbdb"/>
    <path d="M65.2,16.4V15h1.2v1.4Zm0,8.6V17.8h1.2v7.3Z" transform="translate(0 0)" style="fill: #d8dbdb"/>
    <path d="M73,22.4l1.2.2a3.1,3.1,0,0,1-1,2,3,3,0,0,1-2,.7,3.1,3.1,0,0,1-2.4-1,4,4,0,0,1-.9-2.8,5.1,5.1,0,0,1,.4-2.1,2.7,2.7,0,0,1,1.2-1.3,3.5,3.5,0,0,1,1.7-.4,3,3,0,0,1,1.9.6,2.7,2.7,0,0,1,1,1.7l-1.2.2a2,2,0,0,0-.6-1.1,1.6,1.6,0,0,0-1-.4,1.9,1.9,0,0,0-1.5.6,3.2,3.2,0,0,0-.6,2.1,3.3,3.3,0,0,0,.6,2.1,1.8,1.8,0,0,0,1.5.7,1.7,1.7,0,0,0,1.2-.4A2.2,2.2,0,0,0,73,22.4Z" transform="translate(0 0)" style="fill: #d8dbdb"/>
    <path d="M75.3,25V17.8h1.1v1.1a3,3,0,0,1,.8-1l.8-.2a2.4,2.4,0,0,1,1.3.4l-.5,1-.9-.3-.7.2a1.3,1.3,0,0,0-.5.7,4.8,4.8,0,0,0-.2,1.4v3.8Z" transform="translate(0 0)" style="fill: #d8dbdb"/>
    <path d="M79.5,21.4a3.7,3.7,0,0,1,1.1-3,3.4,3.4,0,0,1,2.3-.8,3.3,3.3,0,0,1,2.4,1,3.7,3.7,0,0,1,1,2.7,4.8,4.8,0,0,1-.4,2.2,3,3,0,0,1-1.2,1.2,3.6,3.6,0,0,1-1.8.4,3.3,3.3,0,0,1-2.5-1A3.9,3.9,0,0,1,79.5,21.4Zm1.3,0a3.1,3.1,0,0,0,.6,2.1,2,2,0,0,0,2.8.3l.3-.3a3.2,3.2,0,0,0,.6-2.1,3,3,0,0,0-.6-2,2,2,0,0,0-2.8-.3l-.3.3A3.1,3.1,0,0,0,80.8,21.4Z" transform="translate(0 0)" style="fill: #d8dbdb"/>
    <path d="M87.2,22.8l1.2-.2a1.7,1.7,0,0,0,.6,1.1,2,2,0,0,0,1.3.4,1.9,1.9,0,0,0,1.3-.3A1,1,0,0,0,92,23a.7.7,0,0,0-.4-.7l-1.3-.4-1.8-.6a1.8,1.8,0,0,1-1.1-1.7,1.9,1.9,0,0,1,.2-.9,2,2,0,0,1,.6-.7l.8-.4h1.1l1.5.2a2,2,0,0,1,1,.7,2.6,2.6,0,0,1,.4,1.1l-1.2.2a1.3,1.3,0,0,0-.5-.9,1.7,1.7,0,0,0-1.1-.3,2,2,0,0,0-1.2.3.8.8,0,0,0-.4.7.7.7,0,0,0,.2.4l.5.3,1.1.3,1.8.6a1.6,1.6,0,0,1,1.1,1.7,2.1,2.1,0,0,1-.4,1.2,2.3,2.3,0,0,1-1,.8,3.8,3.8,0,0,1-1.5.3,3.4,3.4,0,0,1-2.2-.6A2.7,2.7,0,0,1,87.2,22.8Z" transform="translate(0 0)" style="fill: #d8dbdb"/>
    <path d="M94.3,21.4a3.7,3.7,0,0,1,1.1-3,3.4,3.4,0,0,1,2.3-.8,3.3,3.3,0,0,1,2.4,1,3.7,3.7,0,0,1,1,2.7,4.8,4.8,0,0,1-.4,2.2,3,3,0,0,1-1.2,1.2,3.6,3.6,0,0,1-1.8.4,3.3,3.3,0,0,1-2.5-1A3.9,3.9,0,0,1,94.3,21.4Zm1.3,0a3.1,3.1,0,0,0,.6,2.1,2,2,0,0,0,2.8.3l.3-.3a3.2,3.2,0,0,0,.5-2.2,3,3,0,0,0-.6-2,2,2,0,0,0-2.8-.3l-.3.3a3.1,3.1,0,0,0-.6,2.1Z" transform="translate(0 0)" style="fill: #d8dbdb"/>
    <path d="M102.8,25V18.7h-1.1v-1h1.1v-.8a3.4,3.4,0,0,1,.1-1.1,1.6,1.6,0,0,1,.6-.8,2.3,2.3,0,0,1,1.3-.3h1.1l-.2,1.1H105a1.1,1.1,0,0,0-.8.2,1.3,1.3,0,0,0-.2.9v.7h1.4v1H104v6.3Z" transform="translate(0 0)" style="fill: #d8dbdb"/>
    <path d="M109.1,23.9l.2,1.1h-.9l-1-.2a1.2,1.2,0,0,1-.5-.6,4.4,4.4,0,0,1-.2-1.5v-4h-.9v-1h.9V16l1.2-.7v2.5h1.2v1h-1.2V23a2.1,2.1,0,0,0,.1.7l.2.2h.9Z" transform="translate(0 0)" style="fill: #d8dbdb"/>
  </g>
  <g>
    <rect x="26.5" y="6.9" width="12.1" height="12.1" style="fill: #d8dbdb"/>
    <rect x="26.5" y="20.7" width="12.1" height="12.1" style="fill: #d8dbdb"/>
    <rect x="12.8" y="6.9" width="12.1" height="12.1" style="fill: #d8dbdb"/>
    <rect x="12.8" y="20.7" width="12.1" height="12.1" style="fill: #d8dbdb"/>
  </g>
</svg>
