<svg id="Layer_1" data-name="Layer 1" xmlns="http://www.w3.org/2000/svg" width="100" height="100" viewBox="0 0 100 100">
  <defs>
    <style>
      .cls-1 {
        fill: #fff;
      }

      .cls-2 {
        fill: #ea4747;
      }
    </style>
  </defs>
  <title>pay</title>
  <rect class="cls-1" width="100" height="100"/>
  <g>
    <path class="cls-2" d="M52.9,61.5H73.1a1.2,1.2,0,0,0,1.3-1.3V48.9a1.2,1.2,0,0,0-1.1-1.3H52.9a1.2,1.2,0,0,0-1.3,1.3V60.3a1.2,1.2,0,0,0,1.2,1.2Zm1.3-11.4H71.9V59H54.2Z"/>
    <path class="cls-2" d="M18.7,45.1H28.9a1.3,1.3,0,0,0,0-2.5H18.7a1.3,1.3,0,0,0,0,2.5Z"/>
    <path class="cls-2" d="M33.9,45.1H44a1.3,1.3,0,0,0,0-2.5H33.9a1.3,1.3,0,1,0-.7,2.5Z"/>
    <path class="cls-2" d="M18.7,50.1H35.2a1.3,1.3,0,1,0,.7-2.5H18.7a1.3,1.3,0,0,0,0,2.5Z"/>
    <path class="cls-2" d="M44,47.6H40.2a1.3,1.3,0,0,0,0,2.5H44a1.3,1.3,0,1,0,.7-2.5Z"/>
    <path class="cls-2" d="M87.2,31.9A4.7,4.7,0,0,0,83.8,30l-3-.4v-6a5.1,5.1,0,0,0-5.1-5.1H17.5a5.1,5.1,0,0,0-5.1,5.1h0V64.1A5.1,5.1,0,0,0,16,69a4.9,4.9,0,0,0,4.5,5L79,80.5h.5a5.1,5.1,0,0,0,5.1-4.3l3.7-40.6A4.9,4.9,0,0,0,87.2,31.9ZM14.9,27.4H78.2V35H14.9Zm2.5-6.3H75.7a2.5,2.5,0,0,1,2.5,2.5v1.3H14.9V23.6A2.5,2.5,0,0,1,17.3,21h.1Zm-2.5,43V37.5H78.2V64.1a2.5,2.5,0,0,1-2.5,2.5H17.5a2.5,2.5,0,0,1-2.6-2.4Zm70.9-29L82,75.7A2.6,2.6,0,0,1,79.2,78L20.9,71.4a2.6,2.6,0,0,1-2.3-2.3H75.7A5.1,5.1,0,0,0,80.8,64V32l2.9.3a2.2,2.2,0,0,1,1.6.9A2.6,2.6,0,0,1,85.8,35.1Z"/>
  </g>
</svg>
