<svg id="Layer_1" data-name="Layer 1" xmlns="http://www.w3.org/2000/svg" viewBox="0 0 670.09867 178.63"><defs><style>.cls-1{fill:#003087;}.cls-2{fill:#009cde;}</style></defs><title>paypal-card</title><path class="cls-1" d="M113.42774,8.668Q100.82924.007,80.54774,0h-52.346q-6.2175,0-6.87,6.215L.06675,139.698a4.37183,4.37183,0,0,0,.981,3.6,4.01725,4.01725,0,0,0,3.271,1.635h24.864q6.5415,0,7.198-6.215l5.888-35.986a6.35417,6.35417,0,0,1,2.291-4.254,10.09212,10.09212,0,0,1,4.907-2.13,34.20036,34.20036,0,0,1,5.562-.487q2.6145,0,6.217.327,3.59552.327,4.58.324,28.134,0,44.167-15.866,16.026-15.8655,16.032-44.004Q126.02474,17.3415,113.42774,8.668Zm-26.99,40.08q-1.641,11.4525-8.506,15.049-6.8715,3.6045-19.629,3.598l-10.797.327,5.563-35.007a3.916,3.916,0,0,1,4.252-3.597h6.218q13.08,0,18.975,3.761Q88.39974,36.644,86.43775,48.748Z"/><path class="cls-2" d="M665.84275,0h-24.208a3.91382,3.91382,0,0,0-4.253,3.6l-21.267,136.099-.328.654a4.61465,4.61465,0,0,0,1.311,3.109,4.19223,4.19223,0,0,0,3.27,1.471h21.595q6.207,0,6.871-6.215l21.265-133.813V4.58Q670.09731.0005,665.84275,0Z"/><path class="cls-1" d="M373.35874,52.671a4.64536,4.64536,0,0,0-1.306-3.106,3.89023,3.89023,0,0,0-2.945-1.474h-25.192a6.92542,6.92542,0,0,0-5.889,3.271l-34.679,51.04-14.395-49.075a6.87917,6.87917,0,0,0-7.197-5.236h-24.541a3.858,3.858,0,0,0-2.941,1.474,4.61335,4.61335,0,0,0-1.309,3.106q0,.66,6.379,19.303,6.378,18.6525,13.74,40.245,7.362,21.58951,7.688,22.898-26.829,36.645-26.826,39.259,0,4.257,4.253,4.254h25.192a6.92309,6.92309,0,0,0,5.889-3.27l83.427-120.399A3.18728,3.18728,0,0,0,373.35874,52.671Z"/><path class="cls-2" d="M607.93577,48.091h-24.866q-4.58249,0-5.558,10.798-8.5155-13.0815-31.083-13.088-23.556,0-40.077,17.668a58.84563,58.84563,0,0,0-16.521,41.551q0,19.3065,11.285,30.752,11.28754,11.45852,30.266,11.451a51.76976,51.76976,0,0,0,19.3-3.926q9.816-3.92551,15.379-10.469a28.04227,28.04227,0,0,1-.655,2.943,17.75437,17.75437,0,0,0-.655,3.926q0,5.241,4.254,5.234h22.576q6.207,0,7.194-6.215l13.415-85.39a4.40855,4.40855,0,0,0-.982-3.599A4.036,4.036,0,0,0,607.93577,48.091Zm-42.694,64.453a27.69534,27.69534,0,0,1-20.12,8.178q-9.492,0-15.377-5.234-5.8905-5.226-5.89-14.395a28.09287,28.09287,0,0,1,8.18-20.447,27.258,27.258,0,0,1,20.285-8.343q9.15152,0,15.212,5.397,6.048,5.4,6.054,14.889A26.88536,26.88536,0,0,1,565.24174,112.544Z"/><path class="cls-1" d="M236.27973,48.091h-24.865q-4.587,0-5.563,10.798-8.83352-13.0815-31.081-13.088-23.556,0-40.078,17.668a58.84555,58.84555,0,0,0-16.521,41.551q0,19.3065,11.288,30.752,11.28749,11.45852,30.262,11.451a51.02387,51.02387,0,0,0,18.975-3.926,41.32376,41.32376,0,0,0,15.704-10.469,22.09724,22.09724,0,0,0-1.309,6.869q0,5.241,4.253,5.234h22.574q6.21148,0,7.198-6.215l13.413-85.39a4.408,4.408,0,0,0-.981-3.599A4.03223,4.03223,0,0,0,236.27973,48.091Zm-42.696,64.615a28.37877,28.37877,0,0,1-20.447,8.016q-9.49348,0-15.214-5.234-5.7285-5.226-5.726-14.395a28.0888,28.0888,0,0,1,8.18-20.447,27.25574,27.25574,0,0,1,20.284-8.343q9.156,0,15.214,5.397,6.048,5.4,6.052,14.889A26.72,26.72,0,0,1,193.58375,112.706Z"/><path class="cls-2" d="M485.08476,8.668Q472.48775.007,452.20576,0h-52.019q-6.54749,0-7.198,6.215l-21.265,133.483a4.3684,4.3684,0,0,0,.981,3.6,4.01325,4.01325,0,0,0,3.271,1.635h26.826q3.9255,0,5.235-4.252l5.89-37.949a6.3531,6.3531,0,0,1,2.29-4.254,10.09161,10.09161,0,0,1,4.908-2.13,34.18157,34.18157,0,0,1,5.562-.487q2.61452,0,6.214.327c2.399.218,3.93.324,4.58.324q28.1385,0,44.168-15.866,16.03051-15.8655,16.031-44.004Q497.68129,17.34152,485.08476,8.668Zm-33.534,53.82q-7.19851,4.90649-21.592,4.906l-10.47.327,5.563-35.007a3.91378,3.91378,0,0,1,4.252-3.597h5.887a79.22944,79.22944,0,0,1,11.454.653,16.19875,16.19875,0,0,1,8.178,4.089q3.92849,3.435,3.926,9.979Q458.74876,57.581,451.55076,62.488Z"/></svg>