<?xml version="1.0" encoding="utf-8"?>
<!-- Generator: Adobe Illustrator 21.1.0, SVG Export Plug-In . SVG Version: 6.00 Build 0)  -->
<svg version="1.1" id="Layer_1" xmlns="http://www.w3.org/2000/svg" xmlns:xlink="http://www.w3.org/1999/xlink" x="0px" y="0px"
	 viewBox="0 0 111.4 139.9" style="enable-background:new 0 0 111.4 139.9;" xml:space="preserve">
<style type="text/css">
	.st0{fill:#4DC177;}
	.st1{fill:#288E4A;}
	.st2{fill:#EA2475;}
	.st3{fill:#BC2699;}
	.st4{fill:#FF7E69;}
	.st5{fill:#61E08B;}
	.st6{fill:#FFFFFF;}
	.st7{fill:#D3E2EA;}
	.st8{fill:#FF8ABF;}
	.st9{fill:#F45D9A;}
</style>
<title>rose</title>
<g>
	<rect x="53" y="47.7" class="st0" width="5.4" height="48.7"/>
	<rect x="53" y="20.5" class="st1" width="5.4" height="48.7"/>
	<path d="M58.4,98c-0.9,0-1.6-0.7-1.6-1.6V49.3h-2.2v47.1c0,0.9-0.7,1.7-1.7,1.7s-1.7-0.7-1.7-1.7l0,0V47.7c0-0.9,0.7-1.6,1.6-1.6
		h5.4c0.9,0,1.6,0.7,1.6,1.6v48.7C59.9,97.2,59.2,97.9,58.4,98z"/>
	<path class="st2" d="M70.6,40.8c0,2.2-1.7,3.9-3.9,3.9l0,0H34.8c-2.2,0-3.9-1.7-3.9-3.9c0,0,0,0,0,0V5.9c0-3.4,1.5-4.8,3.9-3.9
		l31.8,12c3.4,1.6,3.9,3.5,3.9,5.7L70.6,40.8L70.6,40.8z"/>
	<path class="st3" d="M66.6,20.6l-31.8-12c-2.5-0.8-3.9,0.5-3.9,3.9v28.3c0,2.2,1.7,3.9,3.9,3.9c0,0,0,0,0,0h31.8
		c2.2,0,3.9-1.7,3.9-3.9c0,0,0,0,0,0V26.3C70.6,24.2,70.1,22.2,66.6,20.6z"/>
	<path d="M66.7,46.4H34.8c-3-0.1-5.4-2.5-5.5-5.5v-35c0-3,1.1-4.5,2.1-5.1c1.2-0.8,2.7-0.9,4-0.3l31.8,12c0.1,0,0.1,0,0.1,0.1
		c4.2,2.1,4.8,4.8,4.8,7.2v20.6c0.1,0.2,0.1,0.3,0.1,0.5c0.1,3-2.3,5.4-5.3,5.5C66.8,46.4,66.8,46.4,66.7,46.4z M33.5,3.4h-0.3
		c-0.3,0.2-0.7,1-0.7,2.4v35c-0.1,1.2,0.9,2.2,2.1,2.3c0.1,0,0.1,0,0.2,0h31.9c1.1,0,2.1-0.8,2.3-1.9c0-0.1-0.1-0.3-0.1-0.4V19.6
		c0-1.6-0.2-2.8-2.9-4.1l-31.6-12L33.5,3.4z"/>
	<path class="st2" d="M40.8,40.8c0,2.2,1.7,3.9,3.9,3.9l0,0h31.8c2.2,0,3.9-1.7,3.9-3.9c0,0,0,0,0,0V5.9c0-3.4-1.5-4.8-3.9-3.9
		L44.9,14c-3.4,1.6-3.9,3.5-3.9,5.7v21.1H40.8z"/>
	<path class="st3" d="M44.9,20.6l31.8-12c2.5-0.8,3.9,0.5,3.9,3.9v28.3c0,2.2-1.7,3.9-3.9,3.9l0,0H44.9c-2.2,0-3.9-1.7-3.9-3.9
		c0,0,0,0,0,0V26.3C40.8,24.2,41.4,22.2,44.9,20.6z"/>
	<path d="M76.5,46.4H44.7c-3-0.1-5.4-2.5-5.5-5.5c0-0.2,0-0.3,0.1-0.5V19.6c0-2.4,0.5-5.1,4.8-7.2c0.1,0,0.1,0,0.1-0.1l31.6-12
		c1.3-0.6,2.9-0.5,4.1,0.3c1,0.7,2.1,2.1,2.1,5.1v35C82.1,43.8,79.6,46.3,76.5,46.4C76.5,46.4,76.5,46.4,76.5,46.4z M42.5,41.2
		c0.2,1.1,1.2,1.9,2.3,1.8h31.7c1.2,0.1,2.2-0.9,2.3-2.1c0-0.1,0-0.1,0-0.2V5.9c0-1.5-0.3-2.3-0.7-2.4s-0.8,0-1.1,0.1l-31.5,12
		c-2.7,1.3-2.9,2.6-2.9,4.1v21.2C42.6,41,42.6,41.1,42.5,41.2z"/>
	<path class="st4" d="M27.3,5.8v29.4c0,6.9,5.6,12.5,12.5,12.5l0,0h21L27.3,5.8z"/>
	<path class="st2" d="M39.8,47.7H54L27.3,14.4v20.8C27.3,42.1,32.9,47.7,39.8,47.7L39.8,47.7z"/>
	<path d="M60.8,49.3h-21c-7.8,0-14.1-6.3-14.1-14.1V5.8c0-0.7,0.5-1.3,1.1-1.5c0.6-0.2,1.4,0,1.8,0.5l33.5,41.9
		c0.4,0.5,0.4,1.1,0.2,1.7C62,49,61.4,49.3,60.8,49.3z M29,10.5v24.7c0.1,5.9,4.9,10.7,10.8,10.8h17.7L29,10.5z"/>
	<path class="st4" d="M84.1,5.8v29.4c0,6.9-5.6,12.5-12.5,12.5h-21L84.1,5.8z"/>
	<path class="st2" d="M71.6,47.7H57.5l26.6-33.3v20.8C84.1,42.1,78.5,47.7,71.6,47.7z"/>
	<path d="M71.6,49.3h-21c-0.7,0-1.3-0.4-1.5-1c-0.2-0.6-0.2-1.2,0.2-1.7L82.8,4.7C83.2,4.2,84,4,84.6,4.2c0.6,0.2,1.1,0.8,1.1,1.5
		V35c0.1,7.8-6.1,14.2-13.9,14.3C71.7,49.3,71.7,49.3,71.6,49.3z M54,46h17.6c6,0,10.8-4.8,10.9-10.8V10.5L54,46z"/>
	<polygon class="st4" points="55.7,23.3 43.3,47.7 68.1,47.7 	"/>
	<polygon class="st2" points="48,47.7 63.4,47.7 55.7,32.5 	"/>
	<path d="M68.1,49.3H43.3c-0.6,0-1.1-0.3-1.4-0.8c-0.3-0.5-0.3-1.1-0.1-1.6l12.4-24.4c0.3-0.5,0.8-0.9,1.4-0.9
		c0.6,0,1.1,0.4,1.4,0.9l12.4,24.4c0.2,0.5,0.2,1.1-0.1,1.6C69.1,49,68.6,49.3,68.1,49.3z M45.9,46h19.5l-9.8-19.1L45.9,46z"/>
	<path class="st5" d="M81.3,47.4C71.2,44.7,60.7,50.7,58,60.8c-0.9,3.2-0.9,6.7,0,9.9c6.6,1.8,13.6-0.1,18.4-4.9
		C81.1,60.9,83,54,81.3,47.4z"/>
	<path class="st0" d="M58,70.7c10.1,2.7,20.6-3.3,23.3-13.4c0.9-3.2,0.9-6.7,0-9.9"/>
	<path d="M63,73c-1.8,0-3.6-0.3-5.4-0.8c-0.6-0.1-1-0.5-1.1-1.1C53.6,60,60.2,48.7,71.2,45.8c3.5-0.9,7.1-0.9,10.6,0
		c0.6,0.2,1,0.6,1.2,1.2c1.8,7.1-0.2,14.6-5.3,19.9C73.8,70.8,68.5,73,63,73z M59.3,69.4c5.8,1.2,11.7-0.6,15.9-4.7
		c4.1-4.2,5.8-10.1,4.7-15.9c-9.3-2-18.6,3.9-20.6,13.2C58.8,64.4,58.8,67,59.3,69.4z"/>
	<path class="st5" d="M30.4,47.4c10.1-2.7,20.6,3.3,23.3,13.4c0.9,3.2,0.9,6.7,0,9.9c-10.1,2.7-20.6-3.3-23.3-13.4
		C29.5,54.1,29.5,50.6,30.4,47.4z"/>
	<path class="st0" d="M53.7,70.7c-10.1,2.7-20.6-3.3-23.3-13.4c-0.9-3.2-0.9-6.7,0-9.9"/>
	<path d="M48.7,73C37.3,73,28,63.6,28.1,52.2c0-1.8,0.2-3.6,0.7-5.3c0.1-0.6,0.5-1,1.1-1.1c11.1-2.9,22.4,3.7,25.3,14.7
		c0.9,3.5,0.9,7.1,0,10.6c-0.1,0.6-0.5,1-1.1,1.1C52.4,72.7,50.5,73,48.7,73z M31.7,48.7c-1.2,5.8,0.6,11.7,4.7,15.9
		c4.1,4.2,10.1,6,15.9,4.7c2-9.3-3.9-18.6-13.2-20.6C36.7,48.2,34.1,48.2,31.7,48.7z"/>
	<polygon class="st6" points="68.4,102.7 43,102.7 29.4,65.1 82,65.1 	"/>
	<polygon class="st7" points="68.4,102.7 77.5,77.6 33.8,77.6 43,102.7 	"/>
	<g>
		<path d="M68.4,104.3H43c-0.7,0-1.3-0.5-1.5-1.1L27.9,65.6c-0.2-0.5-0.1-1.1,0.2-1.5c0.3-0.4,0.8-0.7,1.3-0.7H82
			c0.5,0,1,0.3,1.3,0.7c0.3,0.5,0.3,1,0.2,1.5L70,103.2C69.8,103.9,69.1,104.3,68.4,104.3z M44.1,101h23.3l12.4-34.4h-48L44.1,101z"
			/>
		<path d="M60.9,104.3H50.5c-0.8,0-1.5-0.6-1.6-1.4l-5.7-37.6c-0.1-0.5,0-0.9,0.3-1.3c0.3-0.3,0.7-0.5,1.2-0.5h21.8
			c0.5,0,0.9,0.2,1.2,0.5c0.3,0.4,0.4,0.8,0.3,1.3l-5.7,37.6c0.1,0.7-0.5,1.3-1.2,1.4C61,104.3,61,104.3,60.9,104.3z M51.9,101h7.6
			l5.1-34.4H46.7L51.9,101z"/>
	</g>
	<polygon class="st6" points="48.2,102.7 63.2,102.7 71.2,138.3 40.1,138.3 	"/>
	<polygon class="st7" points="48.2,102.7 42.7,126.4 68.6,126.4 63.2,102.7 	"/>
	<g>
		<path d="M71.3,139.9H40.2c-0.5,0-1-0.3-1.3-0.7c-0.3-0.4-0.4-0.9-0.3-1.4l8-35.6c0.2-0.7,0.8-1.3,1.6-1.3h15
			c0.8,0,1.4,0.6,1.6,1.3l8,35.6c0.1,0.5,0,1-0.3,1.4C72.2,139.6,71.8,139.9,71.3,139.9z M42.3,136.6h27L62,104.3H49.5L42.3,136.6z"
			/>
		<path d="M62.1,139.9H49.3c-0.9-0.1-1.7-0.9-1.6-1.8c0,0,0,0,0,0l3.4-35.6c0.1-0.8,0.8-1.5,1.6-1.5h6.1c0.8,0,1.5,0.7,1.6,1.5
			l3.4,35.6c0,0.5-0.1,0.9-0.4,1.3C63.1,139.8,62.6,140,62.1,139.9z M51,136.6h9.2l-3-32.3h-3.1L51,136.6z"/>
		<path d="M16,94.1h-2.4c-0.9,0-1.7-0.7-1.7-1.7s0.7-1.7,1.7-1.7H16c1.5,0,2.7-1.2,2.7-2.7V74.4c0-1.5-1.2-2.7-2.7-2.7h-4.9
			c-0.9,0-1.7-0.7-1.7-1.7s0.7-1.7,1.7-1.7H16c3.3,0,6,2.7,6,6v13.7C22,91.4,19.3,94.1,16,94.1z"/>
		<path d="M9,103.9c-0.9,0-1.6-0.7-1.6-1.6v-5.4c0-3.3,2.7-6,6-6l0,0c0.9,0,1.7,0.7,1.7,1.7s-0.7,1.7-1.7,1.7
			c-1.5,0-2.7,1.2-2.7,2.7v5.3C10.7,103.1,9.9,103.9,9,103.9z"/>
		<path d="M23.3,104.9c-0.9,0-1.6-0.7-1.6-1.6v-3.4c0-3.3,2.7-6,6-6l0,0c0.9,0,1.7,0.7,1.7,1.7s-0.7,1.7-1.7,1.7l0,0
			c-1.5,0-2.7,1.2-2.7,2.7v3.3C25,104.1,24.2,104.9,23.3,104.9z"/>
		<path d="M32.3,104.9c-0.9,0-1.6-0.7-1.6-1.6v-3.4c0-1.5-1.2-2.7-2.7-2.7c-0.9,0-1.7-0.7-1.7-1.7s0.7-1.7,1.7-1.7c3.3,0,6,2.7,6,6
			l0,0v3.3C34,104.1,33.2,104.9,32.3,104.9z"/>
		<path d="M13.3,109.8c-3.3,0-6-2.7-6-6v-5.4c0-0.9,0.7-1.7,1.6-1.7c0.9,0,1.7,0.7,1.7,1.7v5.4c0,1.5,1.2,2.7,2.7,2.7
			c0.9,0,1.7,0.7,1.7,1.7S14.2,109.8,13.3,109.8z"/>
		<path d="M36.7,109.6c-3.3,0-6-2.7-6-6v-1.4c0-0.9,0.7-1.7,1.6-1.7c0.9,0,1.7,0.7,1.7,1.7v1.4c0,1.5,1.2,2.7,2.7,2.7
			c0.9,0,1.7,0.7,1.7,1.7S37.6,109.6,36.7,109.6z"/>
		<path d="M19,109.6h-5.5c-0.9,0-1.7-0.7-1.7-1.7s0.7-1.7,1.7-1.7h5.4c1.5,0,2.7-1.2,2.7-2.7c0-0.9,0.7-1.7,1.6-1.7
			c0.9,0,1.7,0.7,1.7,1.7l0,0C24.9,106.9,22.3,109.5,19,109.6z"/>
		<path d="M42.8,109.6h-5.5c-0.9,0-1.7-0.7-1.7-1.7s0.7-1.7,1.7-1.7h5.4c1.5,0,2.7-1.2,2.7-2.7c0-0.9,0.7-1.7,1.7-1.7
			s1.7,0.7,1.7,1.7C48.7,106.9,46.1,109.5,42.8,109.6z"/>
		<path d="M9.1,88.4c-5,0-9-4-9-9c0-6.1,4.9-11,11-11c0.9,0,1.7,0.7,1.7,1.7s-0.7,1.7-1.7,1.7c-4.2,0.1-7.6,3.5-7.7,7.7
			c0,3.2,2.5,5.7,5.7,5.8c2.4-0.1,4.2-1.9,4.3-4.3c0-1.8-1.4-3.2-3.2-3.2c-0.9,0-1.7-0.7-1.7-1.7s0.7-1.7,1.7-1.7l0,0
			c3.5,0,6.4,2.9,6.4,6.4l0,0C16.6,85,13.3,88.3,9.1,88.4z"/>
		<path d="M97.8,94.1h-2.4c-3.3,0-6-2.7-6-6V74.4c0-3.3,2.7-6,6-6h4.9c0.9,0,1.7,0.7,1.7,1.7s-0.7,1.7-1.7,1.7h-4.9
			c-1.5,0-2.7,1.2-2.7,2.7v13.7c0,1.5,1.2,2.7,2.7,2.7h2.4c0.9,0,1.7,0.7,1.7,1.7S98.7,94.1,97.8,94.1L97.8,94.1z"/>
		<path d="M102.5,103.9c-0.9,0-1.6-0.7-1.6-1.6v-5.4c0-1.5-1.2-2.7-2.7-2.7c-0.9,0-1.7-0.7-1.7-1.7s0.7-1.7,1.7-1.7c3.3,0,6,2.7,6,6
			v0v5.3C104.2,103.1,103.4,103.9,102.5,103.9L102.5,103.9z"/>
		<path d="M88.1,104.9c-0.9-0.1-1.6-0.8-1.6-1.7v-3.4c0-1.5-1.2-2.7-2.7-2.7c-0.9,0-1.7-0.7-1.7-1.7s0.7-1.7,1.7-1.7
			c3.3,0,6,2.7,6,6v3.4C89.8,104.1,89,104.9,88.1,104.9L88.1,104.9z"/>
		<path d="M79.1,104.9c-0.9-0.1-1.6-0.8-1.6-1.7v-3.4c0-3.3,2.7-6,6-6c0.9,0,1.7,0.7,1.7,1.7s-0.7,1.7-1.7,1.7
			c-1.5,0-2.7,1.2-2.7,2.7v3.4C80.8,104.1,80,104.9,79.1,104.9L79.1,104.9z"/>
		<path d="M98.1,109.8c-0.9,0-1.7-0.7-1.7-1.7s0.7-1.7,1.7-1.7c1.5,0,2.7-1.2,2.7-2.7v-5.4c0-0.9,0.7-1.7,1.7-1.7
			c0.9,0,1.6,0.7,1.6,1.7l0,0v5.4C104.1,107.1,101.4,109.8,98.1,109.8z"/>
		<path d="M74.8,109.6c-0.9,0-1.7-0.7-1.7-1.7s0.7-1.7,1.7-1.7c1.5,0,2.7-1.2,2.7-2.7v-1.4c0-0.9,0.7-1.7,1.7-1.7s1.7,0.7,1.7,1.7
			v1.4C80.8,106.9,78.1,109.6,74.8,109.6z"/>
		<path d="M97.9,109.6h-5.4c-3.3,0-6-2.7-6-6c0-0.9,0.7-1.7,1.7-1.7s1.7,0.7,1.7,1.7c0,1.5,1.2,2.7,2.7,2.7h5.4
			c0.9,0,1.7,0.7,1.7,1.7S98.8,109.6,97.9,109.6z"/>
		<path d="M74.1,109.6h-5.4c-3.3,0-6-2.7-6-6c0-0.9,0.7-1.7,1.7-1.7s1.7,0.7,1.7,1.7c0,1.5,1.2,2.7,2.7,2.7h5.4
			c0.9,0,1.7,0.7,1.7,1.7S75,109.6,74.1,109.6z"/>
		<path d="M102.4,88.4c-4.2,0-7.6-3.4-7.6-7.6c0-3.5,2.9-6.4,6.4-6.4l0,0c0.9,0,1.7,0.7,1.7,1.7s-0.7,1.7-1.7,1.7
			c-1.8,0-3.2,1.4-3.2,3.2c0.1,2.4,1.9,4.2,4.3,4.3c3.2,0,5.8-2.6,5.8-5.8c-0.1-4.2-3.5-7.6-7.7-7.7c-0.9,0-1.7-0.7-1.7-1.7
			s0.7-1.7,1.7-1.7c6.1,0,11,4.9,11,11C111.4,84.4,107.4,88.4,102.4,88.4L102.4,88.4z"/>
	</g>
	<path class="st8" d="M49.3,90.5c2.7-0.1,5.3,1.5,6.4,4l0,0c1.1-2.5,3.6-4.1,6.4-4c3.7,0,6.6,2.6,6.6,5.9c0,1.2-0.4,2.3-1.1,3.3
		h-0.1l-11.9,14l-11.9-14h-0.1c-0.7-0.9-1.1-2.1-1.1-3.3C42.7,93.1,45.6,90.5,49.3,90.5z"/>
	<g>
		<path class="st9" d="M55.7,94.6L55.7,94.6c1.1-2.6,3.6-4.2,6.4-4.1c3.7,0,6.6,2.6,6.6,5.9c0,1.2-0.4,2.3-1.1,3.3h-0.1l-11.9,14
			L55.7,94.6z"/>
		<path class="st9" d="M50.7,95.6c2.2-0.1,4.1,1.2,5,3.2l0,0c0.8-2,2.8-3.3,5-3.2c2.8,0,5.2,2.1,5.2,4.6c0,0.9-0.3,1.8-0.9,2.6l0,0
			l-9.2,11l-9.4-11l0,0c-0.6-0.7-0.9-1.7-0.9-2.6C45.5,97.7,47.8,95.6,50.7,95.6z"/>
	</g>
	<path class="st2" d="M55.7,98.9L55.7,98.9c0.8-2,2.8-3.3,5-3.3c2.8,0,5.2,2.1,5.2,4.6c0,0.9-0.3,1.8-0.9,2.6l0,0l-9.2,11L55.7,98.9
		L55.7,98.9z"/>
	<path d="M55.7,115.4c-0.5,0-0.9-0.2-1.2-0.5l-11.9-14h-0.1c-1-1.2-1.4-2.7-1.4-4.2c0-4.2,3.6-7.5,8.3-7.5c2.4,0,4.7,0.9,6.4,2.6
		c1.7-1.7,4-2.6,6.4-2.6c4.7,0,8.3,3.3,8.3,7.5c0,1.5-0.5,2.9-1.4,4.1c-0.1,0.1-0.1,0.2-0.2,0.2h-0.1l-11.9,14
		C56.6,115.3,56.1,115.4,55.7,115.4z M45,98.6L45,98.6l10.7,12.6l10.7-12.5c0-0.1,0-0.1,0.1-0.1c0.5-0.7,0.8-1.5,0.8-2.3
		c0-2.4-2.2-4.2-5-4.2c-2-0.1-3.9,0.9-4.8,2.7c-0.1,0.8-0.8,1.4-1.6,1.4c-0.8,0-1.4-0.6-1.6-1.3c-0.9-1.8-2.8-2.9-4.8-2.8
		c-2.8,0-5,1.8-5,4.2C44.4,97.1,44.5,97.9,45,98.6z"/>
</g>
</svg>
