<svg id="Capa_1" data-name="Capa 1" xmlns="http://www.w3.org/2000/svg" width="511" height="399" viewBox="0 0 511 399">
  <title>store</title>
  <g>
    <path d="M503.5,440H479V207.4c13.8-3.5,24-16.5,24-31.9V71.5A15.5,15.5,0,0,0,487.5,56H23.5A15.5,15.5,0,0,0,8,71.5v104c0,15.4,10.2,28.4,24,31.9V440H7.5a7.5,7.5,0,0,0,0,15h496a7.5,7.5,0,0,0,0-15ZM488,71.5v104c0,9.4-7,17.4-15.6,17.8A16.5,16.5,0,0,1,455,176.9V71h32.5A.5.5,0,0,1,488,71.5ZM71,71h33V176.9a16.5,16.5,0,0,1-33,0Zm48,0h33V176.9a16.5,16.5,0,0,1-33,0Zm48,0h33V176.9a16.5,16.5,0,0,1-33,0Zm48,0h33V176.9a16.5,16.5,0,0,1-33,0Zm48,0h33V176.9a16.5,16.5,0,0,1-33,0Zm48,0h33V176.9a16.5,16.5,0,0,1-33,0Zm48,0h33V176.9a16.5,16.5,0,0,1-33,0Zm48,0h33V176.9a16.5,16.5,0,0,1-33,0ZM23,175.5V71.5a.5.5,0,0,1,.5-.5H56V176.9a16.5,16.5,0,0,1-17.4,16.5C30,192.9,23,184.9,23,175.5Zm24,32a31.3,31.3,0,0,0,14.2-7.8l2.3-2.5a31.5,31.5,0,0,0,48,0,31.5,31.5,0,0,0,48,0,31.5,31.5,0,0,0,48,0,31.5,31.5,0,0,0,48,0,31.5,31.5,0,0,0,48,0,31.5,31.5,0,0,0,48,0,31.5,31.5,0,0,0,48,0,31.5,31.5,0,0,0,48,0l2.3,2.5a31.3,31.3,0,0,0,14.2,7.8V440H431V263.5A15.5,15.5,0,0,0,415.5,248h-96A15.5,15.5,0,0,0,304,263.5V440H47ZM416,440H319V263.5a.5.5,0,0,1,.5-.5h96a.5.5,0,0,1,.5.5Z" transform="translate(0 -56)"/>
    <path d="M343.5,336a7.5,7.5,0,0,0-7.5,7.5v16a7.5,7.5,0,0,0,15,0v-16A7.5,7.5,0,0,0,343.5,336Z" transform="translate(0 -56)"/>
    <path d="M262.5,248H88.5a8.5,8.5,0,0,0-8.5,8.5v142a8.5,8.5,0,0,0,8.5,8.5h174a8.5,8.5,0,0,0,8.5-8.5v-142A8.5,8.5,0,0,0,262.5,248ZM256,392H95V263H256Z" transform="translate(0 -56)"/>
  </g>
</svg>
