<svg id="Layer_1" data-name="Layer 1" xmlns="http://www.w3.org/2000/svg" width="395.6" height="395.7" viewBox="0 0 395.6 395.7">
  <title>telephone</title>
  <g>
    <rect x="6.2" y="42" width="29.1" height="312.18" style="fill: #fff"/>
    <polygon points="389.4 42 389.4 354.2 130.5 354.2 130.5 42 161.4 42 161.4 6.2 357.9 6.2 357.9 42 389.4 42" style="fill: #fff"/>
  </g>
  <rect id="SVGCleanerId_0" data-name="SVGCleanerId 0" x="161.4" y="292.4" width="48.2" height="34.59" style="fill: #2ea2db"/>
  <rect id="SVGCleanerId_1" data-name="SVGCleanerId 1" x="236.2" y="292.4" width="48.2" height="34.59" style="fill: #2ea2db"/>
  <rect id="SVGCleanerId_2" data-name="SVGCleanerId 2" x="310.3" y="292.4" width="48.2" height="34.59" style="fill: #2ea2db"/>
  <rect id="SVGCleanerId_3" data-name="SVGCleanerId 3" x="161.4" y="226.8" width="48.2" height="34.59" style="fill: #2ea2db"/>
  <rect id="SVGCleanerId_4" data-name="SVGCleanerId 4" x="236.2" y="226.8" width="48.2" height="34.59" style="fill: #2ea2db"/>
  <rect id="SVGCleanerId_5" data-name="SVGCleanerId 5" x="310.3" y="226.8" width="48.2" height="34.59" style="fill: #2ea2db"/>
  <rect id="SVGCleanerId_6" data-name="SVGCleanerId 6" x="161.4" y="161.4" width="48.2" height="34.65" style="fill: #2ea2db"/>
  <rect id="SVGCleanerId_7" data-name="SVGCleanerId 7" x="236.2" y="161.4" width="48.2" height="34.65" style="fill: #2ea2db"/>
  <rect id="SVGCleanerId_8" data-name="SVGCleanerId 8" x="310.3" y="161.4" width="48.2" height="34.65" style="fill: #2ea2db"/>
  <rect id="SVGCleanerId_9" data-name="SVGCleanerId 9" x="186.1" y="30.9" width="147.1" height="73.57" style="fill: #e1e6e9"/>
  <rect id="SVGCleanerId_10" data-name="SVGCleanerId 10" x="76.7" y="129.2" width="12.3" height="12.35" style="fill: #193651"/>
  <rect id="SVGCleanerId_11" data-name="SVGCleanerId 11" x="76.7" y="191.6" width="12.3" height="12.35" style="fill: #193651"/>
  <rect id="SVGCleanerId_12" data-name="SVGCleanerId 12" x="76.7" y="254.1" width="12.3" height="12.35" style="fill: #193651"/>
  <rect id="SVGCleanerId_0-2" data-name="SVGCleanerId 0" x="161.4" y="292.4" width="48.2" height="34.59"/>
  <rect id="SVGCleanerId_1-2" data-name="SVGCleanerId 1" x="236.2" y="292.4" width="48.2" height="34.59"/>
  <rect id="SVGCleanerId_2-2" data-name="SVGCleanerId 2" x="310.3" y="292.4" width="48.2" height="34.59"/>
  <rect id="SVGCleanerId_3-2" data-name="SVGCleanerId 3" x="161.4" y="226.8" width="48.2" height="34.59"/>
  <rect id="SVGCleanerId_4-2" data-name="SVGCleanerId 4" x="236.2" y="226.8" width="48.2" height="34.59"/>
  <rect id="SVGCleanerId_5-2" data-name="SVGCleanerId 5" x="310.3" y="226.8" width="48.2" height="34.59"/>
  <rect id="SVGCleanerId_6-2" data-name="SVGCleanerId 6" x="161.4" y="161.4" width="48.2" height="34.65"/>
  <rect id="SVGCleanerId_7-2" data-name="SVGCleanerId 7" x="236.2" y="161.4" width="48.2" height="34.65"/>
  <rect id="SVGCleanerId_8-2" data-name="SVGCleanerId 8" x="310.3" y="161.4" width="48.2" height="34.65"/>
  <rect id="SVGCleanerId_9-2" data-name="SVGCleanerId 9" x="186.1" y="30.9" width="147.1" height="73.57" style="fill: #f7f8f9"/>
  <rect id="SVGCleanerId_10-2" data-name="SVGCleanerId 10" x="76.7" y="129.2" width="12.3" height="12.35"/>
  <rect id="SVGCleanerId_11-2" data-name="SVGCleanerId 11" x="76.7" y="191.6" width="12.3" height="12.35"/>
  <rect id="SVGCleanerId_12-2" data-name="SVGCleanerId 12" x="76.7" y="254.1" width="12.3" height="12.35"/>
  <g>
    <rect x="289.9" y="61.2" width="12.3" height="12.35"/>
    <rect x="254.1" y="61.2" width="12.3" height="12.35"/>
    <rect x="218.2" y="61.2" width="12.3" height="12.35"/>
    <path d="M364.8,35.9V0H155.2V35.9H136.6V24.8A24.8,24.8,0,0,0,111.9,0H53.8A24.8,24.8,0,0,0,29.1,24.8V35.9H0V360.4h29v10.5a24.8,24.8,0,0,0,24.8,24.8h58.1a24.8,24.8,0,0,0,24.8-24.8V360.4h259V35.9ZM29.1,348.1H12.4V48.2H29.1Zm95.2,22.9a12.4,12.4,0,0,1-12.3,12.3H53.8a12.4,12.4,0,0,1-12.3-12.3V24.8A12.4,12.4,0,0,1,53.8,12.4h58.1a12.4,12.4,0,0,1,12.3,12.3ZM167.5,12.3H352.4V123H167.5ZM383.3,348.1H136.6V48.2h18.6v87.1H364.8V48.2h18.6V348.1Z" transform="translate(0)"/>
  </g>
</svg>
