<svg id="Layer_1" data-name="Layer 1" xmlns="http://www.w3.org/2000/svg" width="141.8" height="35.1" viewBox="0 0 141.8 35.1">
  <defs>
    <style>
      .cls-1 {
        fill: #e5e4e5;
      }
    </style>
  </defs>
  <title>velcani_white</title>
  <path class="cls-1" d="M23.1,26.9l-1.3,1.3,4.5,4.5a17.5,17.5,0,0,0,7.4-21.8l-4,4L31,16.4l1.9-1.9a16.7,16.7,0,0,1,0,6.3l-6-6,5.9-5.9a17.4,17.4,0,0,0-22-7.5l5.4,5.5L9.7,13.5,6.2,10l-1,1.7L16.3,22.8l-1.4,1.4L2.8,12.3A16,16,0,0,1,6.5,6.5l2-1.7L12,8.4l1.4-1.3L8.8,2.5a17.4,17.4,0,0,0-7.4,22l4.1-4.1L4.2,19,2.3,20.8a17.2,17.2,0,0,1,0-6.4l6,6-6,6A19.3,19.3,0,0,0,5.1,30a17.5,17.5,0,0,0,19.2,3.7L19,28.4l6.5-6.5,3.3,3.3,1-1.7-11-10.9,1.5-1.5L32.2,22.9a15.8,15.8,0,0,1-3.6,5.6l-2.1,1.7ZM8.7,30.4a9.1,9.1,0,0,1-2.1-1.8,16.3,16.3,0,0,1-1.7-2l4.8-4.8,3.8,3.8Zm9-.6,3.1,3.1a15.6,15.6,0,0,1-10.4-1.4l11-11L20,19.1l-2.4,2.4L11,14.8,21.4,4.5l-2.2-.4L17.6,5.6,14.3,2.3A15.4,15.4,0,0,1,25,3.8L13.8,14.9l1.3,1.3,2.4-2.4,6.6,6.6L13.9,30.7l2.3.4Zm7.9-16.2L21.7,9.8l4.9-4.9,2,1.7a11.8,11.8,0,0,1,1.8,2.1Z" transform="translate(0 0)"/>
  <path class="cls-1" d="M53.3,15.8l-1.8,3.6-1.7-3.5L48.9,14l-1.5-3H45l6.5,13.2L58,10.9H55.6l-1.4,3Z" transform="translate(0 0)"/>
  <path class="cls-1" d="M108.5,21.3h5.3l1.5,2.9h2.4l-6.5-13.3-6.5,13.3h2.4Zm2.7-5.4,1.7,3.5h-3.4Z" transform="translate(0 0)"/>
  <polygon class="cls-1" points="62.2 11 71.7 11 71.7 13.4 64.5 13.4 64.5 16.4 71.7 16.4 71.7 18.8 64.5 18.8 64.5 21.8 71.7 21.8 71.7 24.2 62.2 24.2 62.2 11"/>
  <polygon class="cls-1" points="122.1 11 124.7 11 131.3 20.6 131.3 11 133.6 11 133.6 24.2 131 24.2 124.4 14.6 124.4 24.2 122.1 24.2 122.1 11"/>
  <polygon class="cls-1" points="85.6 24.2 85.6 21.8 79 21.8 79 11 76.7 11 76.7 24.2 85.6 24.2"/>
  <rect class="cls-1" x="139.5" y="11" width="2.3" height="13.23"/>
  <path class="cls-1" d="M96.1,22.2a4.6,4.6,0,0,1,.1-9.2,4.7,4.7,0,0,1,3.6,1.8l2.1-1a6.9,6.9,0,1,0-11.5,7.6,6.8,6.8,0,0,0,9.5,2,7.6,7.6,0,0,0,2-2l-2.1-1A4.9,4.9,0,0,1,96.1,22.2Z" transform="translate(0 0)"/>
</svg>
