<svg id="Layer_1" data-name="Layer 1" xmlns="http://www.w3.org/2000/svg" viewBox="0 0 659.60604 202.07001"><defs><style>.cls-1{fill:#0e4595;}.cls-2{fill:#f2ae14;}</style></defs><title>visa-card</title><g id="visa"><path id="Shape" class="cls-1" d="M233.001,199.763,266.361,4h53.358L286.335,199.763Z"/><path id="path13" class="cls-1" d="M479.11,8.222A137.7957,137.7957,0,0,0,431.288,0c-52.725,0-89.863,26.551-90.18,64.604-.297,28.129,26.514,43.821,46.754,53.185,20.77,9.597,27.752,15.716,27.652,24.283-.133,13.123-16.586,19.116-31.924,19.116-21.355,0-32.701-2.967-50.225-10.274l-6.877-3.112L319,191.625c12.463,5.466,35.508,10.199,59.438,10.445,56.09,0,92.502-26.248,92.916-66.884.199-22.27-14.016-39.216-44.801-53.188-18.65-9.056-30.072-15.099-29.951-24.269,0-8.137,9.668-16.838,30.559-16.838a98.43773,98.43773,0,0,1,39.936,7.5l4.781,2.259L479.11,8.222"/><path id="Path" class="cls-1" d="M616.418,3.999h-41.23c-12.773,0-22.332,3.486-27.941,16.234L468.003,199.635h56.031s9.16-24.121,11.232-29.418c6.123,0,60.555.084,68.336.084,1.596,6.854,6.492,29.334,6.492,29.334h49.512L616.418,3.999ZM551.001,130.407c4.414-11.279,21.26-54.724,21.26-54.724-.314.521,4.381-11.334,7.074-18.684l3.607,16.878s10.217,46.729,12.352,56.527H551.001v.003Z"/><path id="path16" class="cls-1" d="M187.706,3.999,135.467,137.495l-5.565-27.129c-9.726-31.274-40.025-65.157-73.898-82.12L103.771,199.45l56.455-.064L244.23,4l-56.524-.001"/><path id="path18" class="cls-2" d="M86.723,3.999H.682L0,8.072C66.939,24.276,111.232,63.435,129.618,110.487l-18.709-89.96C107.68,8.131,98.312,4.431,86.723,3.999"/></g></svg>