<?xml version="1.0" encoding="utf-8"?>
<!-- Generator: Adobe Illustrator 21.1.0, SVG Export Plug-In . SVG Version: 6.00 Build 0)  -->
<svg version="1.1" id="Capa_1" xmlns="http://www.w3.org/2000/svg" xmlns:xlink="http://www.w3.org/1999/xlink" x="0px" y="0px"
	 viewBox="0 0 348.8 344.7" style="enable-background:new 0 0 348.8 344.7;" xml:space="preserve">
<style type="text/css">
	.st0{fill:#C94D3F;}
</style>
<title>wedding</title>
<g>
	<path class="st0" d="M174.4,241.4c40.5-23.3,38.7-44.9,37.1-51.1c-2.1-8.1-8.9-13.9-16.2-13.9c-5.6,0-10.7,3.4-14.5,9.7
		c-1.4,2.2-3.8,3.6-6.4,3.6l0,0c-2.6,0-5-1.4-6.4-3.6c-3.8-6.3-8.8-9.7-14.5-9.7c-7.3,0-14.2,5.8-16.2,13.9
		C135.7,196.5,133.9,218.1,174.4,241.4z"/>
	<path class="st0" d="M318.7,47.9h-9V75c0,13.9-11.3,25.2-25.2,25.2c-13.9,0-25.2-11.3-25.2-25.2V47.9h-59.7V75
		c0,13.9-11.3,25.2-25.2,25.2c-13.9,0-25.2-11.3-25.2-25.2V47.9H89.5V75c0,13.9-11.3,25.2-25.2,25.2c-13.9,0-25.2-11.3-25.2-25.2
		V47.9h-9C21.8,47.9,15,54.7,15,63c0,0,0,0.1,0,0.1v51.1h318.8V63.1c0.1-8.3-6.7-15.1-15-15.2C318.8,47.9,318.7,47.9,318.7,47.9z"/>
	<path d="M318.7,32.9h-9v-7.7c0-13.9-11.3-25.2-25.2-25.2c-13.9,0-25.2,11.3-25.2,25.2v7.7h-59.7v-7.7c0-13.9-11.3-25.2-25.2-25.2
		c-13.9,0-25.2,11.3-25.2,25.2c0,0,0,0,0,0v7.7H89.5v-7.7C89.5,11.3,78.2,0,64.3,0C50.4,0,39.1,11.3,39.1,25.2v7.7h-9
		C13.5,33,0,46.5,0,63.1v251.5c0.1,16.6,13.5,30,30.1,30.1h288.6c16.6-0.1,30-13.5,30.1-30.1V63.1C348.8,46.5,335.3,33,318.7,32.9z
		 M333.8,114.1H15v-51c-0.1-8.3,6.7-15.1,15-15.2c0,0,0.1,0,0.1,0h9V75c0,13.9,11.3,25.2,25.2,25.2c13.9,0,25.2-11.3,25.2-25.2V47.9
		h59.7V75c0,13.9,11.3,25.2,25.2,25.2c13.9,0,25.2-11.3,25.2-25.2V47.9h59.7V75c0,13.9,11.3,25.2,25.2,25.2
		c13.9,0,25.2-11.3,25.2-25.2V47.9h9c8.3,0,15.1,6.8,15.1,15.1c0,0,0,0,0,0V114.1z M274.3,25.1c0-5.6,4.6-10.2,10.2-10.2
		s10.2,4.6,10.2,10.2c0,0,0,0,0,0V75c0,5.6-4.6,10.2-10.2,10.2c-5.6,0-10.2-4.6-10.2-10.2V25.1z M164.2,25.1
		c0-5.6,4.6-10.2,10.2-10.2c5.6,0,10.2,4.6,10.2,10.2c0,0,0,0,0,0V75c0,5.6-4.6,10.2-10.2,10.2c-5.6,0-10.2-4.6-10.2-10.2V25.1z
		 M54.1,25.1c0-5.6,4.6-10.2,10.2-10.2c5.6,0,10.2,4.6,10.2,10.2V75c0,5.6-4.6,10.2-10.2,10.2c-5.6,0-10.2-4.6-10.2-10.2V25.1z
		 M333.8,314.6c0,8.3-6.8,15.1-15.1,15.1l0,0H30.1c-8.3,0-15.1-6.8-15.1-15.1l0,0V129.2h318.8V314.6z"/>
	<path d="M44.5,181.2h49.9c4.1,0,7.5-3.4,7.5-7.5s-3.4-7.5-7.5-7.5H44.5c-4.1,0-7.5,3.4-7.5,7.5S40.4,181.2,44.5,181.2z"/>
	<path d="M44.5,291.1h49.9c4.1,0,7.5-3.4,7.5-7.5s-3.4-7.5-7.5-7.5H44.5c-4.1,0-7.5,3.4-7.5,7.5S40.4,291.1,44.5,291.1z"/>
	<path d="M44.5,236.2h49.9c4.1,0,7.5-3.4,7.5-7.5s-3.4-7.5-7.5-7.5H44.5c-4.1,0-7.5,3.4-7.5,7.5S40.4,236.2,44.5,236.2z"/>
	<path d="M254.4,181.2h49.9c4.1,0,7.5-3.4,7.5-7.5s-3.4-7.5-7.5-7.5h-49.9c-4.1,0-7.5,3.4-7.5,7.5S250.3,181.2,254.4,181.2z"/>
	<path d="M254.4,291.1h49.9c4.1,0,7.5-3.4,7.5-7.5s-3.4-7.5-7.5-7.5h-49.9c-4.1,0-7.5,3.4-7.5,7.5
		C246.9,287.7,250.3,291.1,254.4,291.1z"/>
	<path d="M254.4,236.2h49.9c4.1,0,7.5-3.4,7.5-7.5s-3.4-7.5-7.5-7.5h-49.9c-4.1,0-7.5,3.4-7.5,7.5S250.3,236.2,254.4,236.2z"/>
	<path d="M199.4,276.1h-49.9c-4.1,0-7.5,3.4-7.5,7.5s3.4,7.5,7.5,7.5h49.9c4.1,0,7.5-3.4,7.5-7.5
		C206.9,279.5,203.5,276.1,199.4,276.1L199.4,276.1z"/>
	<path d="M170.8,256.6c2.2,1.2,5,1.2,7.2,0c19.3-10.5,33.2-22.4,41.3-35.3c9.2-14.6,8.8-26.9,6.8-34.6
		c-3.8-14.8-16.4-25.2-30.8-25.2c-7.8,0.1-15.4,3.2-20.9,8.8c-5.5-5.6-13-8.7-20.9-8.8c-14.3,0-27,10.4-30.7,25.2
		c-2,7.7-2.4,20,6.8,34.6C137.7,234.2,151.5,246.1,170.8,256.6z M137.3,190.3c2.1-8.1,8.9-13.9,16.2-13.9c5.6,0,10.6,3.3,14.5,9.7
		c1.4,2.2,3.8,3.6,6.4,3.6l0,0c2.6,0,5-1.4,6.4-3.6c3.8-6.2,8.9-9.7,14.5-9.7c7.3,0,14.2,5.8,16.2,13.9c1.6,6.2,3.4,27.7-37.1,51.1
		C133.9,218.1,135.7,196.5,137.3,190.3L137.3,190.3z"/>
</g>
</svg>
